<?xml version="1.0" encoding="UTF-8" standalone="no"?>
<!-- Created with Inkscape (http://www.inkscape.org/) -->

<svg
   xmlns:dc="http://purl.org/dc/elements/1.1/"
   xmlns:cc="http://creativecommons.org/ns#"
   xmlns:rdf="http://www.w3.org/1999/02/22-rdf-syntax-ns#"
   xmlns:svg="http://www.w3.org/2000/svg"
   xmlns="http://www.w3.org/2000/svg"
   xmlns:xlink="http://www.w3.org/1999/xlink"
   xmlns:sodipodi="http://sodipodi.sourceforge.net/DTD/sodipodi-0.dtd"
   xmlns:inkscape="http://www.inkscape.org/namespaces/inkscape"
   width="96"
   height="96"
   id="svg2408"
   sodipodi:version="0.32"
   inkscape:version="0.48.4 r9939"
   version="1.0"
   sodipodi:docname="ardour.svg"
   inkscape:output_extension="org.inkscape.output.svg.inkscape">
  <defs
     id="defs2410">
    <linearGradient
       id="linearGradient4221">
      <stop
         id="stop4223"
         offset="0"
         style="stop-color:#fa8684;stop-opacity:1;" />
      <stop
         id="stop4225"
         offset="1"
         style="stop-color:#e8384c;stop-opacity:1;" />
    </linearGradient>
    <linearGradient
       id="linearGradient3805">
      <stop
         id="stop3807"
         offset="0"
         style="stop-color:#d2d2d2;stop-opacity:1;" />
      <stop
         id="stop3809"
         offset="1"
         style="stop-color:#f5f5f5;stop-opacity:1;" />
    </linearGradient>
    <inkscape:perspective
       sodipodi:type="inkscape:persp3d"
       inkscape:vp_x="0 : 48 : 1"
       inkscape:vp_y="0 : 1000 : 0"
       inkscape:vp_z="96 : 48 : 1"
       inkscape:persp3d-origin="48 : 32 : 1"
       id="perspective48" />
    <linearGradient
       id="ButtonShadow"
       gradientTransform="scale(1.0058652,0.994169)"
       x1="45.447727"
       y1="92.539597"
       x2="45.447727"
       y2="7.0165396"
       gradientUnits="userSpaceOnUse">
      <stop
         style="stop-color:#000000;stop-opacity:1;"
         offset="0"
         id="stop3750" />
      <stop
         style="stop-color:#000000;stop-opacity:0.58823532;"
         offset="1"
         id="stop3752" />
    </linearGradient>
    <linearGradient
       inkscape:collect="always"
       id="linearGradient3737">
      <stop
         style="stop-color:#ffffff;stop-opacity:1;"
         offset="0"
         id="stop3739" />
      <stop
         style="stop-color:#ffffff;stop-opacity:0;"
         offset="1"
         id="stop3741" />
    </linearGradient>
    <linearGradient
       id="linearGradient3700">
      <stop
         style="stop-color:#2276c5;stop-opacity:1;"
         offset="0"
         id="stop3702" />
      <stop
         style="stop-color:#68baf4;stop-opacity:1;"
         offset="1"
         id="stop3704" />
    </linearGradient>
    <filter
       inkscape:collect="always"
       id="filter3174">
      <feGaussianBlur
         inkscape:collect="always"
         stdDeviation="1.71"
         id="feGaussianBlur3176" />
    </filter>
    <linearGradient
       inkscape:collect="always"
       xlink:href="#linearGradient3737"
       id="linearGradient3188"
       gradientUnits="userSpaceOnUse"
       x1="36.357143"
       y1="6"
       x2="36.357143"
       y2="63.893143" />
    <filter
       inkscape:collect="always"
       id="filter3794"
       x="-0.192"
       width="1.384"
       y="-0.192"
       height="1.384">
      <feGaussianBlur
         inkscape:collect="always"
         stdDeviation="5.28"
         id="feGaussianBlur3796" />
    </filter>
    <linearGradient
       inkscape:collect="always"
       xlink:href="#linearGradient3737"
       id="linearGradient3613"
       x1="48"
       y1="20.220806"
       x2="48"
       y2="138.66119"
       gradientUnits="userSpaceOnUse" />
    <radialGradient
       inkscape:collect="always"
       xlink:href="#linearGradient3737"
       id="radialGradient3619"
       cx="48"
       cy="90.171875"
       fx="48"
       fy="90.171875"
       r="42"
       gradientTransform="matrix(1.1573129,0,0,0.99590774,-7.551021,0.197132)"
       gradientUnits="userSpaceOnUse" />
    <clipPath
       clipPathUnits="userSpaceOnUse"
       id="clipPath3613">
      <rect
         ry="6"
         rx="6"
         y="6"
         x="6"
         height="84"
         width="84"
         id="rect3615"
         style="fill:#ffffff;fill-opacity:1;fill-rule:nonzero;stroke:none" />
    </clipPath>
    <linearGradient
       inkscape:collect="always"
       xlink:href="#linearGradient3805"
       id="linearGradient3617"
       gradientUnits="userSpaceOnUse"
       x1="48"
       y1="90"
       x2="48"
       y2="5.9877172" />
    <linearGradient
       id="ButtonShadow-0"
       gradientTransform="matrix(1.0058652,0,0,0.994169,100,0)"
       x1="45.447727"
       y1="92.539597"
       x2="45.447727"
       y2="7.0165396"
       gradientUnits="userSpaceOnUse">
      <stop
         style="stop-color:#000000;stop-opacity:1;"
         offset="0"
         id="stop3750-8" />
      <stop
         style="stop-color:#000000;stop-opacity:0.58823532;"
         offset="1"
         id="stop3752-5" />
    </linearGradient>
    <linearGradient
       inkscape:collect="always"
       xlink:href="#ButtonShadow-0"
       id="linearGradient3780"
       gradientUnits="userSpaceOnUse"
       gradientTransform="matrix(1.0238095,0,0,1.0119048,-1.1428571,-98.071429)"
       x1="32.251034"
       y1="6.1317081"
       x2="32.251034"
       y2="90.238609" />
    <linearGradient
       inkscape:collect="always"
       xlink:href="#ButtonShadow-0"
       id="linearGradient3772"
       gradientUnits="userSpaceOnUse"
       gradientTransform="matrix(1.0238095,0,0,1.0119048,-1.1428571,-98.071429)"
       x1="32.251034"
       y1="6.1317081"
       x2="32.251034"
       y2="90.238609" />
    <linearGradient
       inkscape:collect="always"
       xlink:href="#ButtonShadow-0"
       id="linearGradient3725"
       gradientUnits="userSpaceOnUse"
       gradientTransform="matrix(1.0238095,0,0,1.0119048,-1.1428571,-98.071429)"
       x1="32.251034"
       y1="6.1317081"
       x2="32.251034"
       y2="90.238609" />
    <linearGradient
       inkscape:collect="always"
       xlink:href="#ButtonShadow-0"
       id="linearGradient3721"
       gradientUnits="userSpaceOnUse"
       gradientTransform="translate(0,-97)"
       x1="32.251034"
       y1="6.1317081"
       x2="32.251034"
       y2="90.238609" />
    <linearGradient
       y2="90.238609"
       x2="32.251034"
       y1="6.1317081"
       x1="32.251034"
       gradientTransform="matrix(1.0238095,0,0,1.0119048,-1.1428571,-98.071429)"
       gradientUnits="userSpaceOnUse"
       id="linearGradient3026"
       xlink:href="#ButtonShadow-0"
       inkscape:collect="always" />
    <linearGradient
       inkscape:collect="always"
       xlink:href="#linearGradient3640"
       id="linearGradient3646"
       x1="2"
       y1="10"
       x2="22"
       y2="10"
       gradientUnits="userSpaceOnUse"
       gradientTransform="translate(-22,2)" />
    <linearGradient
       id="linearGradient3640">
      <stop
         style="stop-color:#2a782a;stop-opacity:1;"
         offset="0"
         id="stop3642" />
      <stop
         style="stop-color:#278f27;stop-opacity:1;"
         offset="1"
         id="stop3644" />
    </linearGradient>
    <linearGradient
       y2="10"
       x2="22"
       y1="10"
       x1="2"
       gradientTransform="translate(-96,-58)"
       gradientUnits="userSpaceOnUse"
       id="linearGradient3082"
       xlink:href="#linearGradient3640"
       inkscape:collect="always" />
    <linearGradient
       inkscape:collect="always"
       xlink:href="#linearGradient3795"
       id="linearGradient3801"
       x1="445.86133"
       y1="154.82829"
       x2="716.67383"
       y2="154.82829"
       gradientUnits="userSpaceOnUse"
       gradientTransform="matrix(0.2456704,0,0,0.2456704,-94.800236,9.9632722)" />
    <linearGradient
       id="linearGradient3795">
      <stop
         style="stop-color:#f63a38;stop-opacity:1;"
         offset="0"
         id="stop3797" />
      <stop
         style="stop-color:#b91628;stop-opacity:1;"
         offset="1"
         id="stop3799" />
    </linearGradient>
    <linearGradient
       y2="154.82829"
       x2="716.67383"
       y1="154.82829"
       x1="445.86133"
       gradientTransform="matrix(0.2456704,0,0,0.2456704,-94.800234,8.963272)"
       gradientUnits="userSpaceOnUse"
       id="linearGradient3230"
       xlink:href="#linearGradient3795"
       inkscape:collect="always" />
    <linearGradient
       inkscape:collect="always"
       xlink:href="#linearGradient3795"
       id="linearGradient4208"
       gradientUnits="userSpaceOnUse"
       gradientTransform="matrix(0.2456704,0,0,0.2456704,-94.800234,8.963272)"
       x1="445.86133"
       y1="154.82829"
       x2="716.67383"
       y2="154.82829" />
    <linearGradient
       inkscape:collect="always"
       xlink:href="#linearGradient4221"
       id="linearGradient4219"
       x1="-5.25"
       y1="47"
       x2="61.25"
       y2="47"
       gradientUnits="userSpaceOnUse"
       gradientTransform="translate(20,0)" />
  </defs>
  <sodipodi:namedview
     id="base"
     pagecolor="#ffffff"
     bordercolor="#666666"
     borderopacity="1.0"
     inkscape:pageopacity="0.0"
     inkscape:pageshadow="2"
     inkscape:zoom="2.6318539"
     inkscape:cx="-119.97557"
     inkscape:cy="17.723752"
     inkscape:document-units="px"
     inkscape:current-layer="layer4"
     showgrid="false"
     showborder="true"
     inkscape:showpageshadow="false"
     inkscape:window-width="1839"
     inkscape:window-height="1056"
     inkscape:window-x="81"
     inkscape:window-y="24"
     inkscape:window-maximized="1"
     inkscape:snap-global="false">
    <inkscape:grid
       type="xygrid"
       id="grid3732"
       visible="true"
       enabled="true" />
  </sodipodi:namedview>
  <metadata
     id="metadata2413">
    <rdf:RDF>
      <cc:Work
         rdf:about="">
        <dc:format>image/svg+xml</dc:format>
        <dc:type
           rdf:resource="http://purl.org/dc/dcmitype/StillImage" />
        <dc:title></dc:title>
      </cc:Work>
    </rdf:RDF>
  </metadata>
  <g
     inkscape:groupmode="layer"
     id="layer2"
     inkscape:label="Blur Shadow"
     style="display:none"
     sodipodi:insensitive="true">
    <rect
       style="opacity:0.9;fill:url(#ButtonShadow);fill-opacity:1;fill-rule:nonzero;stroke:none;filter:url(#filter3174)"
       id="rect3745"
       width="86"
       height="85"
       x="5"
       y="7"
       rx="6"
       ry="6" />
  </g>
  <g
     inkscape:groupmode="layer"
     id="layer3"
     inkscape:label="Shadow"
     sodipodi:insensitive="true">
    <path
       sodipodi:type="inkscape:offset"
       inkscape:radius="0.99097413"
       inkscape:original="M 12 -94.03125 C 7.028367 -94.03125 2.96875 -89.971633 2.96875 -85 L 2.96875 -14 C 2.96875 -9.0283671 7.0283671 -4.96875 12 -4.96875 L 84 -4.96875 C 88.971633 -4.96875 93.03125 -9.028367 93.03125 -14 L 93.03125 -85 C 93.03125 -89.971633 88.971633 -94.03125 84 -94.03125 L 12 -94.03125 z "
       style="opacity:0.07999998;fill:url(#linearGradient3026);fill-opacity:1;fill-rule:nonzero;stroke:none;display:inline"
       id="path3786"
       d="m 12,-95.03125 c -5.5110903,0 -10.03125,4.52016 -10.03125,10.03125 l 0,71 c 0,5.5110902 4.5201598,10.03125 10.03125,10.03125 l 72,0 c 5.51109,0 10.03125,-4.5201597 10.03125,-10.03125 l 0,-71 c 0,-5.51109 -4.52016,-10.03125 -10.03125,-10.03125 l -72,0 z"
       transform="scale(1,-1)" />
    <path
       sodipodi:type="inkscape:offset"
       inkscape:radius="1.0360184"
       inkscape:original="M 12 -93 C 7.5908667 -93 4 -89.409133 4 -85 L 4 -14 C 4 -9.5908667 7.5908667 -6 12 -6 L 84 -6 C 88.409133 -6 92 -9.5908667 92 -14 L 92 -85 C 92 -89.409133 88.409133 -93 84 -93 L 12 -93 z "
       style="opacity:0.1;fill:url(#linearGradient3780);fill-opacity:1;fill-rule:nonzero;stroke:none;display:inline"
       id="path3778"
       d="m 12,-94.03125 c -4.971633,0 -9.03125,4.059617 -9.03125,9.03125 l 0,71 c 0,4.9716329 4.0596171,9.03125 9.03125,9.03125 l 72,0 c 4.971633,0 9.03125,-4.059617 9.03125,-9.03125 l 0,-71 c 0,-4.971633 -4.059617,-9.03125 -9.03125,-9.03125 l -72,0 z"
       transform="scale(1,-1)" />
    <path
       sodipodi:type="inkscape:offset"
       inkscape:radius="0.98962283"
       inkscape:original="M 12 -92 C 8.122 -92 5 -88.878 5 -85 L 5 -14 C 5 -10.122 8.122 -7 12 -7 L 84 -7 C 87.878 -7 91 -10.122 91 -14 L 91 -85 C 91 -88.878 87.878 -92 84 -92 L 12 -92 z "
       style="opacity:0.2;fill:url(#linearGradient3772);fill-opacity:1;fill-rule:nonzero;stroke:none;display:inline"
       id="path3770"
       d="m 12,-93 c -4.4091333,0 -8,3.590867 -8,8 l 0,71 c 0,4.4091333 3.5908667,8 8,8 l 72,0 c 4.409133,0 8,-3.5908667 8,-8 l 0,-71 c 0,-4.409133 -3.590867,-8 -8,-8 l -72,0 z"
       transform="scale(1,-1)" />
    <rect
       style="opacity:0.3;fill:url(#linearGradient3725);fill-opacity:1;fill-rule:nonzero;stroke:none;display:inline"
       id="rect3723"
       width="86"
       height="85"
       x="5"
       y="-92"
       rx="7"
       ry="7"
       transform="scale(1,-1)" />
    <rect
       transform="scale(1,-1)"
       ry="6"
       rx="6"
       y="-91"
       x="6"
       height="84"
       width="84"
       id="rect3716"
       style="opacity:0.45;fill:url(#linearGradient3721);fill-opacity:1;fill-rule:nonzero;stroke:none;display:inline" />
  </g>
  <g
     inkscape:label="Button"
     inkscape:groupmode="layer"
     id="layer1">
    <rect
       style="fill:url(#linearGradient3617);fill-opacity:1.0;fill-rule:nonzero;stroke:none"
       id="rect2419"
       width="84"
       height="84"
       x="6"
       y="6"
       rx="6"
       ry="6" />
    <path
       style="opacity:0.6;fill:url(#linearGradient3188);fill-opacity:1;fill-rule:nonzero;stroke:none"
       d="M 12,6 C 8.676,6 6,8.676 6,12 l 0,2 0,68 0,2 c 0,0.334721 0.04135,0.6507 0.09375,0.96875 0.0487,0.295596 0.09704,0.596915 0.1875,0.875 0.00988,0.03038 0.020892,0.0636 0.03125,0.09375 0.098865,0.287771 0.2348802,0.547452 0.375,0.8125 0.1445918,0.273507 0.3156161,0.535615 0.5,0.78125 0.1843839,0.245635 0.3737765,0.473472 0.59375,0.6875 0.439947,0.428056 0.94291,0.814526 1.5,1.09375 0.278545,0.139612 0.5734731,0.246947 0.875,0.34375 -0.2562018,-0.100222 -0.4867109,-0.236272 -0.71875,-0.375 -0.00741,-0.0044 -0.023866,0.0045 -0.03125,0 -0.031933,-0.0193 -0.062293,-0.04251 -0.09375,-0.0625 -0.120395,-0.0767 -0.2310226,-0.163513 -0.34375,-0.25 -0.1061728,-0.0808 -0.2132809,-0.161112 -0.3125,-0.25 C 8.4783201,88.557317 8.3087904,88.373362 8.15625,88.1875 8.0486711,88.057245 7.9378561,87.922215 7.84375,87.78125 7.818661,87.74287 7.805304,87.69538 7.78125,87.65625 7.716487,87.553218 7.6510225,87.451733 7.59375,87.34375 7.4927417,87.149044 7.3880752,86.928049 7.3125,86.71875 7.30454,86.69694 7.288911,86.6782 7.28125,86.65625 7.2494249,86.5643 7.2454455,86.469419 7.21875,86.375 7.1884177,86.268382 7.1483606,86.171969 7.125,86.0625 7.0521214,85.720988 7,85.364295 7,85 L 7,83 7,15 7,13 C 7,10.218152 9.2181517,8 12,8 l 2,0 68,0 2,0 c 2.781848,0 5,2.218152 5,5 l 0,2 0,68 0,2 c 0,0.364295 -0.05212,0.720988 -0.125,1.0625 -0.04415,0.206893 -0.08838,0.397658 -0.15625,0.59375 -0.0077,0.02195 -0.0233,0.04069 -0.03125,0.0625 -0.06274,0.173739 -0.138383,0.367449 -0.21875,0.53125 -0.04158,0.0828 -0.07904,0.169954 -0.125,0.25 -0.0546,0.09721 -0.126774,0.18835 -0.1875,0.28125 -0.09411,0.140965 -0.204921,0.275995 -0.3125,0.40625 -0.143174,0.17445 -0.303141,0.346998 -0.46875,0.5 -0.01117,0.0102 -0.01998,0.02115 -0.03125,0.03125 -0.138386,0.125556 -0.285091,0.234436 -0.4375,0.34375 -0.102571,0.07315 -0.204318,0.153364 -0.3125,0.21875 -0.0074,0.0045 -0.02384,-0.0044 -0.03125,0 -0.232039,0.138728 -0.462548,0.274778 -0.71875,0.375 0.301527,-0.0968 0.596455,-0.204138 0.875,-0.34375 0.55709,-0.279224 1.060053,-0.665694 1.5,-1.09375 0.219973,-0.214028 0.409366,-0.441865 0.59375,-0.6875 0.184384,-0.245635 0.355408,-0.507743 0.5,-0.78125 0.14012,-0.265048 0.276135,-0.524729 0.375,-0.8125 0.01041,-0.03078 0.02133,-0.06274 0.03125,-0.09375 0.09046,-0.278085 0.1388,-0.579404 0.1875,-0.875 C 89.95865,84.6507 90,84.334721 90,84 l 0,-2 0,-68 0,-2 C 90,8.676 87.324,6 84,6 L 12,6 z"
       id="rect3728"
       inkscape:connector-curvature="0" />
    <path
       id="path3615"
       d="M 12,90 C 8.676,90 6,87.324 6,84 L 6,82 6,14 6,12 c 0,-0.334721 0.04135,-0.6507 0.09375,-0.96875 0.0487,-0.295596 0.09704,-0.596915 0.1875,-0.875 C 6.29115,10.12587 6.30214,10.09265 6.3125,10.0625 6.41136,9.774729 6.54738,9.515048 6.6875,9.25 6.832092,8.976493 7.003116,8.714385 7.1875,8.46875 7.371884,8.223115 7.561276,7.995278 7.78125,7.78125 8.221197,7.353194 8.72416,6.966724 9.28125,6.6875 9.559795,6.547888 9.854723,6.440553 10.15625,6.34375 9.900048,6.443972 9.669539,6.580022 9.4375,6.71875 c -0.0074,0.0044 -0.02387,-0.0045 -0.03125,0 -0.03193,0.0193 -0.06229,0.04251 -0.09375,0.0625 -0.120395,0.0767 -0.231023,0.163513 -0.34375,0.25 -0.106173,0.0808 -0.213281,0.161112 -0.3125,0.25 C 8.47832,7.442683 8.30879,7.626638 8.15625,7.8125 8.048671,7.942755 7.937856,8.077785 7.84375,8.21875 7.81866,8.25713 7.8053,8.30462 7.78125,8.34375 7.71649,8.446782 7.651022,8.548267 7.59375,8.65625 7.492742,8.850956 7.388075,9.071951 7.3125,9.28125 7.3045,9.30306 7.28891,9.3218 7.28125,9.34375 7.24942,9.4357 7.24545,9.530581 7.21875,9.625 7.188418,9.731618 7.148361,9.828031 7.125,9.9375 7.052121,10.279012 7,10.635705 7,11 l 0,2 0,68 0,2 c 0,2.781848 2.218152,5 5,5 l 2,0 68,0 2,0 c 2.78185,0 5,-2.218152 5,-5 l 0,-2 0,-68 0,-2 C 89,10.635705 88.9479,10.279012 88.875,9.9375 88.8308,9.730607 88.7866,9.539842 88.71875,9.34375 88.71075,9.3218 88.69545,9.30306 88.68755,9.28125 88.62485,9.107511 88.54917,8.913801 88.4688,8.75 88.4272,8.6672 88.3898,8.580046 88.3438,8.5 88.2892,8.40279 88.21703,8.31165 88.1563,8.21875 88.0622,8.077785 87.95138,7.942755 87.8438,7.8125 87.70063,7.63805 87.54066,7.465502 87.37505,7.3125 87.36385,7.3023 87.35505,7.29135 87.34385,7.28125 87.20546,7.155694 87.05876,7.046814 86.90635,6.9375 86.80378,6.86435 86.70203,6.784136 86.59385,6.71875 c -0.007,-0.0045 -0.0238,0.0044 -0.0312,0 -0.23204,-0.138728 -0.46255,-0.274778 -0.71875,-0.375 0.30153,0.0968 0.59646,0.204138 0.875,0.34375 0.55709,0.279224 1.06005,0.665694 1.5,1.09375 0.21997,0.214028 0.40937,0.441865 0.59375,0.6875 0.18438,0.245635 0.35541,0.507743 0.5,0.78125 0.14012,0.265048 0.27613,0.524729 0.375,0.8125 0.0104,0.03078 0.0213,0.06274 0.0312,0.09375 0.0905,0.278085 0.1388,0.579404 0.1875,0.875 C 89.95865,11.3493 90,11.665279 90,12 l 0,2 0,68 0,2 c 0,3.324 -2.676,6 -6,6 l -72,0 z"
       style="opacity:0.3;fill:url(#radialGradient3619);fill-opacity:1;fill-rule:nonzero;stroke:none"
       inkscape:connector-curvature="0" />
  </g>
  <g
     inkscape:groupmode="layer"
     id="layer5"
     inkscape:label="Highlight"
     sodipodi:insensitive="true">
    <rect
       style="opacity:0.1;fill:url(#linearGradient3613);fill-opacity:1;fill-rule:nonzero;stroke:#ffffff;stroke-width:0.5;stroke-linecap:round;stroke-linejoin:miter;stroke-miterlimit:4;stroke-opacity:1;stroke-dasharray:none;stroke-dashoffset:0;filter:url(#filter3794)"
       id="rect3171"
       width="66"
       height="66"
       x="15"
       y="15"
       rx="12"
       ry="12"
       clip-path="url(#clipPath3613)" />
  </g>
  <g
     inkscape:groupmode="layer"
     id="layer4"
     inkscape:label="Symbol">
    <path
       d="m 47.6875,18.25 a 1.9548802,1.9548802 0 0 0 -1.375,0.96875 l -33.25,57.625 a 1.9548802,1.9548802 0 0 0 1.6875,2.9375 l 0.5625,0 a 1.9548802,1.9548802 0 0 0 0.03125,0 C 16.163507,79.763371 16.874204,79.371242 17.3125,79 c 0.410136,-0.347391 0.6484,-0.690728 0.84375,-0.96875 0.206327,0.05895 0.302134,0.15625 0.6875,0.15625 0.956512,0 1.580574,-0.635724 1.84375,-1 0.01802,-0.02495 0.01465,-0.03828 0.03125,-0.0625 0.368744,0.261649 0.779383,0.512211 1.3125,0.53125 0.588775,0.02102 1.208815,-0.281337 1.5625,-0.59375 0.353685,-0.312413 0.50401,-0.616258 0.625,-0.875 0.01667,-0.03565 0.01613,-0.059 0.03125,-0.09375 0.365747,0.268018 0.787492,0.51513 1.3125,0.53125 0.761869,0.02413 1.464997,-0.464931 1.78125,-0.84375 0.276279,-0.330936 0.376741,-0.586525 0.46875,-0.84375 0.04711,0.05168 0.03839,0.104028 0.09375,0.15625 0.356065,0.335849 0.990811,0.65625 1.625,0.65625 0.945659,0 1.612955,-0.662444 1.875,-1.0625 0.141117,-0.215438 0.150102,-0.383637 0.21875,-0.5625 0.250603,0.366649 0.960725,0.925381 1.84375,0.9375 l 0,0.0625 c 0.05359,0 0.07229,-0.05787 0.125,-0.0625 0.02512,-0.0014 0.03709,0.03365 0.0625,0.03125 l 0,-0.03125 c 0.524198,-0.06427 1.026057,-0.315451 1.28125,-0.5625 0.230673,-0.223312 0.317424,-0.389756 0.40625,-0.5625 0.08844,0.147329 0.152935,0.290642 0.34375,0.46875 0.293396,0.273858 0.834297,0.59608 1.4375,0.59375 0.593786,-0.0024 1.139579,-0.319446 1.4375,-0.59375 0.254962,-0.23475 0.369786,-0.438069 0.46875,-0.625 0.01152,0.02396 0.01878,0.03788 0.03125,0.0625 0.106856,0.210994 0.248331,0.441431 0.5625,0.71875 0.314169,0.277319 0.875403,0.583786 1.46875,0.5625 0.798401,-0.02862 1.276588,-0.474785 1.59375,-0.875 0.09901,0.172808 0.172765,0.353754 0.40625,0.5625 0.300773,0.268904 0.857279,0.5625 1.4375,0.5625 0.547174,0 1.095169,-0.266613 1.40625,-0.53125 0.198027,-0.168462 0.24369,-0.317331 0.34375,-0.46875 0.02745,0.06759 0.02736,0.114264 0.0625,0.1875 0.09853,0.205322 0.235402,0.470469 0.53125,0.75 0.295848,0.279531 0.865439,0.59375 1.46875,0.59375 1.108819,0 1.720387,-0.824772 1.9375,-1.21875 0.04664,0.144927 0.06856,0.262759 0.15625,0.4375 0.09981,0.198885 0.204434,0.449972 0.5,0.71875 0.295566,0.268778 0.855711,0.5625 1.4375,0.5625 1.006147,0 1.643999,-0.719205 1.875,-1.09375 0.0066,-0.01076 -0.0064,-0.02065 0,-0.03125 0.07946,0.200058 0.12815,0.379919 0.3125,0.625 0.302379,0.401993 1.065575,0.941305 1.90625,0.90625 0.664519,-0.02769 1.242244,-0.387019 1.5625,-0.71875 0.04609,-0.04775 0.0542,-0.07839 0.09375,-0.125 0.1152,0.296586 0.256584,0.638694 0.59375,1 0.337166,0.361306 0.997679,0.75 1.6875,0.75 0.757575,0 1.330911,-0.44067 1.75,-0.875 0.08861,0.237624 0.190463,0.494716 0.46875,0.8125 0.307124,0.350713 0.961708,0.78125 1.65625,0.78125 0.683099,0 1.1843,-0.357546 1.5625,-0.71875 0.09486,0.144865 0.133757,0.276613 0.3125,0.4375 0.320052,0.28808 0.89847,0.59375 1.46875,0.59375 0.496824,0 0.874521,-0.331577 1.25,-0.59375 0.314083,0.383468 0.852839,0.834103 1.59375,0.875 0.358141,0.01978 0.618741,-0.201132 0.9375,-0.34375 0.02098,0.02007 0.0089,0.0424 0.03125,0.0625 0.370195,0.332703 1.006841,0.626232 1.59375,0.625 0.373051,-0.001 0.773935,-0.134139 1.125,-0.3125 0.37311,0.273904 0.818447,0.53125 1.375,0.53125 a 1.9548802,1.9548802 0 0 0 0.03125,0 c 1.033619,-0.01914 1.434725,-0.407206 1.6875,-0.625 0.02939,0.02263 -0.187722,-0.0579 0.09375,0.09375 0.613465,0.330509 1.680632,0.71875 3.03125,0.71875 l 0.875,0 a 1.9548802,1.9548802 0 0 0 1.6875,-2.9375 l -33.25,-57.625 a 1.9548802,1.9548802 0 0 0 -2,-0.96875 z"
       id="path4025"
       style="opacity:0.05;fill:#550000;fill-opacity:1;fill-rule:evenodd;stroke:none;display:inline"
       inkscape:original="M 48 20.1875 L 14.75 77.8125 L 15.3125 77.8125 C 16.45094 77.78767 16.91019 75.90625 17.5 75.90625 C 17.88922 75.90625 18.45367 76.21875 18.84375 76.21875 C 19.58251 76.21875 19.78321 72.299475 20.40625 72.3125 C 21.02929 72.32555 20.9211 75.645621 22.09375 75.6875 C 23.30978 75.73092 22.49809 68.03125 23.6875 68.03125 C 24.72215 68.03125 24.21061 74.612823 25.625 74.65625 C 26.99595 74.69967 25.94376 63.267136 27.3125 63.15625 C 28.90668 63.027086 27.88214 73.78125 29.53125 73.78125 C 30.97087 73.78125 30.03846 58.65625 31.3125 58.65625 C 32.58507 58.65625 32.17046 73.279086 33.46875 73.15625 C 34.71869 73.15625 33.52734 55.53125 34.96875 55.53125 C 36.8145 55.53125 35.8607 73.036134 37.125 73.03125 C 38.54977 73.02545 37.4039 53.8125 39.0625 53.8125 C 40.78216 53.8125 39.5973 73.207692 41.03125 73.15625 C 42.54184 73.1021 40.96102 54.96875 42.625 54.96875 C 44.22754 54.96875 43.13173 73.40625 44.53125 73.40625 C 46.00982 73.40625 44.43996 55.216907 46.375 55.34375 C 48.24887 55.466587 47.00402 73.9375 48.34375 73.9375 C 49.62207 73.9375 48.88188 57.788063 50.40625 57.875 C 52.19325 57.97696 51.14105 74.4375 52.375 74.4375 C 53.51869 74.4375 52.98539 61.3125 54.5 61.3125 C 56.10092 61.3125 54.90208 74.936418 56.375 74.875 C 57.84663 74.81369 57.19266 64.46875 58.625 64.46875 C 59.99599 64.46875 58.85678 75.75 60.40625 75.75 C 62.01683 75.75 61.20373 67.875 62.625 67.875 C 64.08949 67.875 63.16047 76.46875 64.28125 76.46875 C 65.37132 76.46875 65.04894 71.0625 66.125 71.0625 C 67.20205 71.0625 66.71814 76.78125 67.625 76.78125 C 68.56253 76.78125 68.16281 73.46875 69.15625 73.46875 C 70.15097 73.46875 69.79958 77.051638 70.5625 77.09375 C 71.23995 77.13116 71.15695 74.84375 71.78125 74.84375 C 72.41641 74.84375 72.15687 77.408086 73.03125 77.40625 C 73.87492 77.40395 73.61792 75.96875 74.21875 75.96875 C 74.80872 75.96875 74.83434 77.625 75.53125 77.625 C 76.02797 77.6158 76.52491 76.875 77.15625 76.875 C 77.9867 76.875 78.24818 77.8125 80.375 77.8125 L 81.25 77.8125 L 48 20.1875 z "
       inkscape:radius="1.9546847"
       sodipodi:type="inkscape:offset"
       transform="translate(0,-1)" />
    <path
       sodipodi:type="inkscape:offset"
       inkscape:radius="0.97451669"
       inkscape:original="M 48 20.1875 L 14.75 77.8125 L 15.3125 77.8125 C 16.45094 77.78767 16.91019 75.90625 17.5 75.90625 C 17.88922 75.90625 18.45367 76.21875 18.84375 76.21875 C 19.58251 76.21875 19.78321 72.299475 20.40625 72.3125 C 21.02929 72.32555 20.9211 75.645621 22.09375 75.6875 C 23.30978 75.73092 22.49809 68.03125 23.6875 68.03125 C 24.72215 68.03125 24.21061 74.612823 25.625 74.65625 C 26.99595 74.69967 25.94376 63.267136 27.3125 63.15625 C 28.90668 63.027086 27.88214 73.78125 29.53125 73.78125 C 30.97087 73.78125 30.03846 58.65625 31.3125 58.65625 C 32.58507 58.65625 32.17046 73.279086 33.46875 73.15625 C 34.71869 73.15625 33.52734 55.53125 34.96875 55.53125 C 36.8145 55.53125 35.8607 73.036134 37.125 73.03125 C 38.54977 73.02545 37.4039 53.8125 39.0625 53.8125 C 40.78216 53.8125 39.5973 73.207692 41.03125 73.15625 C 42.54184 73.1021 40.96102 54.96875 42.625 54.96875 C 44.22754 54.96875 43.13173 73.40625 44.53125 73.40625 C 46.00982 73.40625 44.43996 55.216907 46.375 55.34375 C 48.24887 55.466587 47.00402 73.9375 48.34375 73.9375 C 49.62207 73.9375 48.88188 57.788063 50.40625 57.875 C 52.19325 57.97696 51.14105 74.4375 52.375 74.4375 C 53.51869 74.4375 52.98539 61.3125 54.5 61.3125 C 56.10092 61.3125 54.90208 74.936418 56.375 74.875 C 57.84663 74.81369 57.19266 64.46875 58.625 64.46875 C 59.99599 64.46875 58.85678 75.75 60.40625 75.75 C 62.01683 75.75 61.20373 67.875 62.625 67.875 C 64.08949 67.875 63.16047 76.46875 64.28125 76.46875 C 65.37132 76.46875 65.04894 71.0625 66.125 71.0625 C 67.20205 71.0625 66.71814 76.78125 67.625 76.78125 C 68.56253 76.78125 68.16281 73.46875 69.15625 73.46875 C 70.15097 73.46875 69.79958 77.051638 70.5625 77.09375 C 71.23995 77.13116 71.15695 74.84375 71.78125 74.84375 C 72.41641 74.84375 72.15687 77.408086 73.03125 77.40625 C 73.87492 77.40395 73.61792 75.96875 74.21875 75.96875 C 74.80872 75.96875 74.83434 77.625 75.53125 77.625 C 76.02797 77.6158 76.52491 76.875 77.15625 76.875 C 77.9867 76.875 78.24818 77.8125 80.375 77.8125 L 81.25 77.8125 L 48 20.1875 z "
       style="opacity:0.1;fill:#550000;fill-opacity:1;fill-rule:evenodd;stroke:none;display:inline"
       id="path4023"
       d="m 47.84375,19.21875 a 0.97461414,0.97461414 0 0 0 -0.6875,0.46875 l -33.25,57.625 A 0.97461414,0.97461414 0 0 0 14.75,78.78125 l 0.5625,0 a 0.97461414,0.97461414 0 0 0 0.03125,0 c 0.55141,-0.01203 1.018747,-0.255968 1.34375,-0.53125 0.325003,-0.275282 0.535792,-0.581926 0.71875,-0.84375 0.143259,-0.205013 0.226367,-0.349254 0.3125,-0.46875 0.06912,0.01715 0.05484,0.02929 0.15625,0.0625 0.238607,0.07815 0.513476,0.1875 0.96875,0.1875 0.523179,0 0.861227,-0.327163 1.03125,-0.5625 0.170023,-0.235337 0.260875,-0.457703 0.34375,-0.6875 0.08497,-0.235595 0.154522,-0.49714 0.21875,-0.75 0.05202,0.136242 0.05485,0.27092 0.125,0.40625 0.239855,0.462734 0.747331,1.03562 1.5,1.0625 0.331647,0.01184 0.668009,-0.129663 0.875,-0.3125 0.206991,-0.182837 0.321734,-0.381758 0.40625,-0.5625 0.169033,-0.361483 0.248664,-0.722418 0.3125,-1.125 0.07921,-0.499502 0.08839,-1.102368 0.125,-1.6875 0.04983,0.292485 0.08431,0.606735 0.15625,0.875 0.09876,0.368275 0.212976,0.727481 0.4375,1.0625 0.224524,0.335019 0.663692,0.701708 1.21875,0.71875 0.422799,0.01339 0.808264,-0.239082 1,-0.46875 0.191736,-0.229668 0.299862,-0.43559 0.375,-0.65625 0.150276,-0.44132 0.219766,-0.931945 0.28125,-1.5 0.122967,-1.136109 0.147791,-2.566625 0.1875,-4 0.0035,-0.126396 0.02767,-0.217705 0.03125,-0.34375 0.07106,1.27106 0.115509,2.556417 0.28125,3.59375 0.08723,0.545924 0.175237,1.027206 0.375,1.46875 0.09988,0.220772 0.249375,0.44933 0.46875,0.65625 0.219375,0.20692 0.569638,0.375 0.9375,0.375 0.516581,0 0.89547,-0.338751 1.0625,-0.59375 0.16703,-0.254999 0.24004,-0.488887 0.3125,-0.75 0.14492,-0.522226 0.242413,-1.169762 0.3125,-1.90625 0.130145,-1.367585 0.16856,-3.119201 0.21875,-4.875 0.09624,1.591143 0.194857,3.205468 0.34375,4.4375 0.08491,0.702603 0.196973,1.287639 0.34375,1.78125 0.07339,0.246806 0.143491,0.471479 0.3125,0.71875 0.153986,0.225291 0.566241,0.482238 1.03125,0.5 l 0,0.0625 c 0.02692,0 0.03598,-0.02905 0.0625,-0.03125 0.01745,-7.7e-4 0.01354,0.03293 0.03125,0.03125 l 0,-0.03125 c 0.280636,-0.03255 0.544128,-0.142453 0.6875,-0.28125 0.162414,-0.157231 0.25051,-0.304764 0.3125,-0.4375 0.123981,-0.265471 0.165849,-0.528792 0.21875,-0.8125 0.105802,-0.567417 0.174399,-1.247575 0.21875,-2.09375 0.0887,-1.692349 0.105725,-3.923639 0.125,-6.125 0.006,-0.688056 0.05284,-1.205876 0.0625,-1.875 0.02913,0.658632 0.07048,1.166327 0.09375,1.84375 0.07497,2.182421 0.129997,4.383062 0.25,6.0625 0.06,0.839719 0.133821,1.529868 0.25,2.09375 0.05809,0.281941 0.120555,0.518016 0.25,0.78125 0.06472,0.131617 0.14851,0.28443 0.3125,0.4375 0.16399,0.15307 0.460708,0.313738 0.78125,0.3125 0.318361,-0.0013 0.612829,-0.157431 0.78125,-0.3125 0.168421,-0.155069 0.274511,-0.298545 0.34375,-0.4375 0.138479,-0.277911 0.186789,-0.536685 0.25,-0.84375 0.126423,-0.614129 0.220452,-1.390664 0.28125,-2.3125 0.121595,-1.843672 0.138064,-4.256245 0.1875,-6.65625 0.02128,-1.0333 0.06314,-1.832209 0.09375,-2.8125 0.03234,1.009491 0.103423,1.839939 0.125,2.90625 0.04895,2.418798 0.06736,4.834787 0.1875,6.6875 0.06007,0.926357 0.154616,1.697533 0.28125,2.3125 0.06332,0.307484 0.139346,0.56355 0.28125,0.84375 0.07095,0.1401 0.13588,0.312846 0.3125,0.46875 0.17662,0.155904 0.494214,0.292668 0.8125,0.28125 0.582421,-0.02088 0.946435,-0.440177 1.09375,-0.71875 0.147315,-0.278573 0.18753,-0.544506 0.25,-0.84375 0.124941,-0.598488 0.203646,-1.341449 0.25,-2.21875 0.07205,-1.363683 0.05992,-3.160563 0.0625,-4.90625 0.04127,1.848669 0.08877,3.72352 0.1875,5.15625 0.06103,0.885626 0.123743,1.624447 0.25,2.21875 0.06313,0.297151 0.141103,0.570431 0.28125,0.84375 0.07007,0.136659 0.142982,0.285944 0.3125,0.4375 0.169518,0.151556 0.470048,0.28125 0.78125,0.28125 0.295965,0 0.574625,-0.132058 0.75,-0.28125 0.175375,-0.149192 0.270336,-0.298199 0.34375,-0.4375 0.146829,-0.278602 0.220126,-0.546889 0.28125,-0.84375 0.122249,-0.593723 0.203307,-1.313383 0.25,-2.1875 0.09339,-1.748233 0.07666,-4.019608 0.09375,-6.28125 0.01214,-1.607166 0.06313,-2.999632 0.125,-4.375 0.08893,1.474203 0.184771,3.010249 0.21875,4.75 0.04515,2.311884 0.05297,4.601851 0.15625,6.375 0.05164,0.886574 0.13539,1.658068 0.25,2.25 0.0573,0.295966 0.119196,0.539918 0.25,0.8125 0.0654,0.136291 0.146454,0.280612 0.3125,0.4375 0.166046,0.156888 0.459473,0.3125 0.78125,0.3125 0.59287,0 0.921577,-0.431779 1.0625,-0.6875 0.140923,-0.255721 0.217715,-0.483097 0.28125,-0.75 0.12707,-0.533806 0.212199,-1.190376 0.28125,-1.96875 0.138101,-1.556747 0.198709,-3.583015 0.28125,-5.59375 0.04554,-1.109321 0.126697,-1.987821 0.1875,-3 0.06168,1.101097 0.153665,2.09343 0.1875,3.3125 0.05713,2.058534 0.082,4.133398 0.1875,5.71875 0.05275,0.792676 0.138885,1.460908 0.25,2 0.05556,0.269546 0.12014,0.491223 0.25,0.75 0.06493,0.129389 0.147969,0.28788 0.3125,0.4375 0.164531,0.14962 0.44061,0.28125 0.75,0.28125 0.537463,0 0.886353,-0.358815 1.03125,-0.59375 0.144897,-0.234935 0.21885,-0.45859 0.28125,-0.6875 0.124799,-0.457821 0.180158,-0.986051 0.25,-1.625 0.139685,-1.277898 0.244546,-2.92644 0.34375,-4.5625 0.03561,-0.5873 0.08386,-1.029461 0.125,-1.59375 0.02289,0.634781 0.0772,1.147069 0.09375,1.8125 0.04222,1.697641 0.09318,3.388515 0.21875,4.71875 0.06278,0.665117 0.13234,1.22824 0.28125,1.71875 0.07446,0.245255 0.156633,0.46999 0.34375,0.71875 0.187117,0.24876 0.597216,0.550651 1.0625,0.53125 0.37742,-0.01572 0.739525,-0.201181 0.9375,-0.40625 0.197975,-0.205069 0.282888,-0.413508 0.375,-0.625 0.184224,-0.422983 0.284329,-0.909476 0.375,-1.4375 0.161268,-0.939149 0.285538,-2.096414 0.375,-3.25 0.0402,1.412723 0.07639,2.832531 0.21875,3.96875 0.07118,0.568109 0.168802,1.08084 0.34375,1.53125 0.08747,0.225205 0.19949,0.434686 0.40625,0.65625 0.20676,0.221564 0.576276,0.4375 0.96875,0.4375 0.598401,0 1.078352,-0.406885 1.3125,-0.78125 0.234148,-0.374365 0.369591,-0.763029 0.46875,-1.1875 0.198318,-0.848943 0.286803,-1.855517 0.375,-2.84375 0.0054,0.116817 0.02628,0.194959 0.03125,0.3125 0.04518,1.06774 0.08587,2.154594 0.1875,3.03125 0.05081,0.438328 0.115774,0.815199 0.25,1.1875 0.06711,0.18615 0.162993,0.356088 0.34375,0.5625 0.180757,0.206412 0.524857,0.4375 0.90625,0.4375 0.539022,0 0.960135,-0.35924 1.15625,-0.65625 0.196115,-0.29701 0.290643,-0.600598 0.375,-0.90625 0.101646,-0.368298 0.155259,-0.781035 0.21875,-1.1875 0.04359,0.471694 0.07973,0.960554 0.15625,1.375 0.05735,0.310588 0.134633,0.603229 0.28125,0.90625 0.07331,0.15151 0.160852,0.304123 0.34375,0.46875 0.182898,0.164627 0.499763,0.3125 0.8125,0.3125 0.404123,0 0.817103,-0.2285 1.03125,-0.46875 0.214147,-0.24025 0.296008,-0.464268 0.375,-0.6875 0.04526,-0.127903 0.06165,-0.248468 0.09375,-0.375 0.03122,0.179228 0.04755,0.355549 0.09375,0.53125 0.05853,0.222594 0.120562,0.436687 0.28125,0.6875 0.160688,0.250813 0.522932,0.598667 1,0.625 0.357089,0.01972 0.729944,-0.151871 0.9375,-0.34375 0.114093,-0.105475 0.154647,-0.210686 0.21875,-0.3125 0.08917,0.197279 0.213913,0.424057 0.4375,0.625 0.223587,0.200943 0.590087,0.344479 0.9375,0.34375 0.487347,-0.0013 0.980758,-0.284915 1.21875,-0.59375 0.03224,0.05391 0.02279,0.100004 0.0625,0.15625 0.204946,0.290291 0.658523,0.65625 1.21875,0.65625 a 0.97461414,0.97461414 0 0 0 0.03125,0 c 0.726554,-0.01346 1.033415,-0.38838 1.28125,-0.5625 0.247835,-0.17412 0.377989,-0.1875 0.3125,-0.1875 0.04851,0 0.132261,0.06145 0.65625,0.34375 0.523989,0.282303 1.355901,0.59375 2.5625,0.59375 l 0.875,0 a 0.97461414,0.97461414 0 0 0 0.84375,-1.46875 l -33.25,-57.625 a 0.97461414,0.97461414 0 0 0 -1,-0.46875 z"
       transform="translate(0,-1)" />
    <path
       inkscape:connector-curvature="0"
       inkscape:export-ydpi="40.39333"
       inkscape:export-xdpi="40.39333"
       inkscape:export-filename="/mnt/first/logos/ardour/ardour_bw_scale.png"
       id="path3249"
       d="m 48,19.191306 -33.26531,57.617388 0.57579,0 c 1.13844,-0.02483 1.59052,-1.888599 2.18033,-1.888599 0.38922,0 0.95343,0.291734 1.34351,0.291734 0.73876,0 0.95387,-3.909862 1.57691,-3.896837 0.62304,0.01305 0.50557,3.340585 1.67822,3.382464 1.21603,0.04342 0.41512,-7.669519 1.60453,-7.669519 1.03465,0 0.51523,6.580491 1.92962,6.623918 1.37095,0.04342 0.30948,-11.398359 1.67822,-11.509245 1.59418,-0.129164 0.58427,10.648535 2.23338,10.648535 1.43962,0 0.48863,-15.133759 1.76267,-15.133759 1.27257,0 0.88776,14.621754 2.18605,14.498918 1.24994,0 0.0427,-17.636748 1.48411,-17.636748 1.84575,0 0.90097,17.505852 2.16527,17.500968 1.42477,-0.0058 0.26348,-19.218441 1.92208,-19.218441 1.71966,0 0.54745,19.405663 1.9814,19.354221 1.51059,-0.05415 -0.0748,-18.181557 1.58918,-18.181557 1.60254,0 0.5121,18.434909 1.91162,18.434909 1.47857,0 -0.10568,-18.196337 1.82936,-18.069494 1.87387,0.122837 0.64483,18.599674 1.98456,18.599674 1.27832,0 0.51505,-16.142144 2.03942,-16.055207 1.787,0.10196 0.74481,16.554671 1.97876,16.554671 1.14369,0 0.62466,-13.133731 2.13927,-13.133731 1.60092,0 0.39614,13.629892 1.86906,13.568474 1.47163,-0.06131 0.81489,-10.392977 2.24723,-10.392977 1.37099,0 0.23646,11.267729 1.78593,11.267729 1.61058,0 0.79594,-7.888854 2.21721,-7.888854 1.46449,0 0.54231,8.619235 1.66309,8.619235 1.09007,0 0.77174,-5.430332 1.8478,-5.430332 1.07705,0 0.57243,5.746453 1.47929,5.746453 0.93753,0 0.55404,-3.316543 1.54748,-3.316543 0.99472,0 0.6396,3.581523 1.40252,3.623635 0.67745,0.03741 0.59065,-2.258276 1.21495,-2.258276 0.63516,0 0.3676,2.552077 1.24198,2.550241 0.84367,-0.0023 0.58432,-1.412841 1.18515,-1.412841 0.58997,0 0.60821,1.658687 1.30512,1.658687 0.49672,-0.0092 1.02363,-0.758266 1.65497,-0.758266 0.83045,0 1.08488,0.92676 3.2117,0.92676 l 0.88288,0 L 48,19.191306 z"
       style="opacity:0.15;fill:#550000;fill-opacity:1;fill-rule:evenodd;stroke:none;display:inline"
       sodipodi:nodetypes="cccsczzczsczcsszszszzsszzzzzzzzzszzzzsccc" />
    <path
       sodipodi:type="inkscape:offset"
       inkscape:radius="2.9559546"
       inkscape:original="M 48 20.1875 L 14.75 77.8125 L 15.3125 77.8125 C 16.45094 77.78767 16.91019 75.90625 17.5 75.90625 C 17.88922 75.90625 18.45367 76.21875 18.84375 76.21875 C 19.58251 76.21875 19.78321 72.299475 20.40625 72.3125 C 21.02929 72.32555 20.9211 75.645621 22.09375 75.6875 C 23.30978 75.73092 22.49809 68.03125 23.6875 68.03125 C 24.72215 68.03125 24.21061 74.612823 25.625 74.65625 C 26.99595 74.69967 25.94376 63.267136 27.3125 63.15625 C 28.90668 63.027086 27.88214 73.78125 29.53125 73.78125 C 30.97087 73.78125 30.03846 58.65625 31.3125 58.65625 C 32.58507 58.65625 32.17046 73.279086 33.46875 73.15625 C 34.71869 73.15625 33.52734 55.53125 34.96875 55.53125 C 36.8145 55.53125 35.8607 73.036134 37.125 73.03125 C 38.54977 73.02545 37.4039 53.8125 39.0625 53.8125 C 40.78216 53.8125 39.5973 73.207692 41.03125 73.15625 C 42.54184 73.1021 40.96102 54.96875 42.625 54.96875 C 44.22754 54.96875 43.13173 73.40625 44.53125 73.40625 C 46.00982 73.40625 44.43996 55.216907 46.375 55.34375 C 48.24887 55.466587 47.00402 73.9375 48.34375 73.9375 C 49.62207 73.9375 48.88188 57.788063 50.40625 57.875 C 52.19325 57.97696 51.14105 74.4375 52.375 74.4375 C 53.51869 74.4375 52.98539 61.3125 54.5 61.3125 C 56.10092 61.3125 54.90208 74.936418 56.375 74.875 C 57.84663 74.81369 57.19266 64.46875 58.625 64.46875 C 59.99599 64.46875 58.85678 75.75 60.40625 75.75 C 62.01683 75.75 61.20373 67.875 62.625 67.875 C 64.08949 67.875 63.16047 76.46875 64.28125 76.46875 C 65.37132 76.46875 65.04894 71.0625 66.125 71.0625 C 67.20205 71.0625 66.71814 76.78125 67.625 76.78125 C 68.56253 76.78125 68.16281 73.46875 69.15625 73.46875 C 70.15097 73.46875 69.79958 77.051638 70.5625 77.09375 C 71.23995 77.13116 71.15695 74.84375 71.78125 74.84375 C 72.41641 74.84375 72.15687 77.408086 73.03125 77.40625 C 73.87492 77.40395 73.61792 75.96875 74.21875 75.96875 C 74.80872 75.96875 74.83434 77.625 75.53125 77.625 C 76.02797 77.6158 76.52491 76.875 77.15625 76.875 C 77.9867 76.875 78.24818 77.8125 80.375 77.8125 L 81.25 77.8125 L 48 20.1875 z "
       style="opacity:0.02999998;fill:#550000;fill-opacity:1;fill-rule:evenodd;stroke:none;display:inline"
       id="path4027"
       d="m 47.84375,17.25 a 2.9562501,2.9562501 0 0 0 -2.40625,1.46875 l -33.25,57.625 a 2.9562501,2.9562501 0 0 0 2.5625,4.4375 l 0.5625,0 a 2.9562501,2.9562501 0 0 0 0.0625,0 c 1.093881,-0.02386 2.039723,-0.561981 2.59375,-1.03125 0.281049,-0.238053 0.358353,-0.416203 0.53125,-0.625 0.159636,0.01711 0.132001,0.0625 0.34375,0.0625 1.025286,0 1.68599,-0.484841 2.15625,-0.9375 0.336734,0.134518 0.594672,0.391774 1,0.40625 0.851439,0.0304 1.746464,-0.398972 2.25,-0.84375 0.213347,-0.188452 0.246051,-0.325216 0.375,-0.5 0.30126,0.109012 0.56281,0.301955 0.90625,0.3125 1.108239,0.0351 2.150298,-0.656319 2.59375,-1.1875 0.01257,-0.01506 0.01915,-0.01638 0.03125,-0.03125 0.418699,0.190457 0.895145,0.34375 1.375,0.34375 1.093787,0 1.832312,-0.603462 2.3125,-1.125 0.440563,0.271601 1.010192,0.395013 1.625,0.40625 l 0,0.09375 c 0.06939,0 0.119096,-0.0572 0.1875,-0.0625 0.03653,-0.002 0.05679,0.03475 0.09375,0.03125 l 0,-0.03125 c 0.695791,-0.07775 1.291521,-0.391948 1.6875,-0.71875 0.456754,0.314869 0.981171,0.658979 1.6875,0.65625 0.735196,-0.003 1.324322,-0.385118 1.78125,-0.71875 0.0148,0.01347 0.01586,0.01767 0.03125,0.03125 0.454679,0.401349 1.313171,0.843866 2.1875,0.8125 0.577963,-0.02072 0.978454,-0.296984 1.375,-0.53125 0.443269,0.37798 1.202706,0.78125 2.03125,0.78125 0.591656,0 1.053011,-0.302939 1.5,-0.5625 0.07073,0.0809 0.06463,0.132183 0.15625,0.21875 0.428444,0.404815 1.265345,0.875 2.15625,0.875 0.749744,0 1.302465,-0.274744 1.75,-0.59375 0.08096,0.09255 0.07798,0.150405 0.1875,0.25 0.429421,0.390503 1.233698,0.84375 2.09375,0.84375 0.742461,0 1.328828,-0.270482 1.78125,-0.59375 0.525786,0.505697 1.333537,1.073374 2.34375,1.03125 0.507826,-0.02116 0.971346,-0.193846 1.375,-0.40625 0.05807,0.07166 0.05515,0.112651 0.125,0.1875 0.47038,0.504058 1.41268,1.09375 2.40625,1.09375 0.537704,0 0.99783,-0.24375 1.4375,-0.46875 0.02013,0.02404 0.0098,0.03796 0.03125,0.0625 0.43621,0.498121 1.391817,1.125 2.40625,1.125 0.546141,0 1.011445,-0.212952 1.4375,-0.4375 0.479098,0.3662 1.159597,0.75 1.90625,0.75 0.38802,0 0.759872,-0.16946 1.125,-0.3125 0.447106,0.31747 1.008781,0.558011 1.65625,0.59375 0.412526,0.02278 0.828908,-0.04929 1.21875,-0.1875 0.46529,0.230109 0.888475,0.532337 1.40625,0.53125 0.309138,-8.43e-4 0.619982,-0.176744 0.9375,-0.28125 0.454719,0.252258 0.971847,0.5 1.5625,0.5 a 2.9562501,2.9562501 0 0 0 0.0625,0 c 0.894513,-0.01657 1.419695,-0.250424 1.78125,-0.46875 0.742271,0.320918 1.756517,0.65625 3,0.65625 l 0.875,0 a 2.9562501,2.9562501 0 0 0 2.5625,-4.4375 l -33.25,-57.625 A 2.9562501,2.9562501 0 0 0 47.84375,17.25 z"
       transform="translate(0,-1)" />
    <path
       sodipodi:nodetypes="cccsczzczsczcsszszszzsszzzzzzzzzszzzzsccc"
       style="fill:url(#linearGradient3230);fill-opacity:1;fill-rule:evenodd;stroke:none;display:inline"
       d="m 48,18.191306 -33.265307,57.617388 0.575789,0 c 1.138435,-0.02483 1.590523,-1.888599 2.180326,-1.888599 0.389227,0 0.953432,0.291734 1.343509,0.291734 0.73876,0 0.953874,-3.909862 1.576912,-3.896837 0.62304,0.01305 0.50557,3.340585 1.678222,3.382464 1.216024,0.04342 0.415115,-7.669519 1.604534,-7.669519 1.034648,0 0.515222,6.580491 1.929611,6.623918 1.370959,0.04342 0.30948,-11.398359 1.678221,-11.509245 1.594179,-0.129164 0.584272,10.648535 2.233387,10.648535 1.439614,0 0.488626,-15.133759 1.76267,-15.133759 1.272563,0 0.887757,14.621754 2.186044,14.498918 1.249944,0 0.04274,-17.636748 1.48411,-17.636748 1.845756,0 0.900972,17.505852 2.165273,17.500968 1.424767,-0.0058 0.263476,-19.218441 1.922083,-19.218441 1.719659,0 0.547447,19.405663 1.981396,19.354221 1.510587,-0.05415 -0.07478,-18.181557 1.589179,-18.181557 1.602538,0 0.5121,18.434909 1.911624,18.434909 1.478564,0 -0.105678,-18.196337 1.829354,-18.069494 1.873876,0.122837 0.644834,18.599674 1.984561,18.599674 1.278321,0 0.51505,-16.142144 2.039423,-16.055207 1.787003,0.10196 0.744808,16.554671 1.978761,16.554671 1.143692,0 0.624657,-13.133731 2.139267,-13.133731 1.600925,0 0.396145,13.629892 1.869057,13.568474 1.471633,-0.06131 0.814896,-10.392977 2.247239,-10.392977 1.370983,0 0.236452,11.267729 1.785927,11.267729 1.610579,0 0.795941,-7.888854 2.217205,-7.888854 1.464495,0 0.542311,8.619235 1.663093,8.619235 1.090074,0 0.771735,-5.430332 1.847798,-5.430332 1.07705,0 0.572434,5.746453 1.479291,5.746453 0.937528,0 0.554041,-3.316543 1.547481,-3.316543 0.994717,0 0.639598,3.581523 1.402521,3.623635 0.677452,0.03741 0.590644,-2.258276 1.214952,-2.258276 0.635158,0 0.367597,2.552077 1.241977,2.550241 0.843671,-0.0023 0.584319,-1.412841 1.185149,-1.412841 0.589975,0 0.608211,1.658687 1.305124,1.658687 0.496713,-0.0092 1.023627,-0.758266 1.654963,-0.758266 0.830455,0 1.084885,0.92676 3.211703,0.92676 l 0.882878,0 L 48,18.191306 z"
       id="path1929"
       inkscape:export-filename="/mnt/first/logos/ardour/ardour_bw_scale.png"
       inkscape:export-xdpi="40.39333"
       inkscape:export-ydpi="40.39333"
       inkscape:connector-curvature="0" />
    <path
       style="fill:url(#linearGradient4219);fill-opacity:1;fill-rule:evenodd;stroke:none;display:inline"
       d="m 48,18.1875 -33.25,57.625 0.5625,0 0.03125,0 L 48,19.1875 l 32.6875,56.625 0.5625,0 L 48,18.1875 z"
       id="path4206"
       inkscape:connector-curvature="0" />
  </g>
</svg>
