<?xml version="1.0" encoding="UTF-8" standalone="no"?>
<!-- Created with Inkscape (http://www.inkscape.org/) -->

<svg
   xmlns:dc="http://purl.org/dc/elements/1.1/"
   xmlns:cc="http://creativecommons.org/ns#"
   xmlns:rdf="http://www.w3.org/1999/02/22-rdf-syntax-ns#"
   xmlns:svg="http://www.w3.org/2000/svg"
   xmlns="http://www.w3.org/2000/svg"
   xmlns:xlink="http://www.w3.org/1999/xlink"
   version="1.0"
   width="96"
   height="96"
   id="svg2408">
  <defs
     id="defs2410">
    <linearGradient
       x1="45.447727"
       y1="92.539597"
       x2="45.447727"
       y2="7.0165396"
       id="ButtonShadow"
       gradientUnits="userSpaceOnUse"
       gradientTransform="scale(1.0058652,0.994169)">
      <stop
         id="stop3750"
         style="stop-color:#000000;stop-opacity:1"
         offset="0" />
      <stop
         id="stop3752"
         style="stop-color:#000000;stop-opacity:0.58823532"
         offset="1" />
    </linearGradient>
    <linearGradient
       id="linearGradient3737">
      <stop
         id="stop3739"
         style="stop-color:#ffffff;stop-opacity:1"
         offset="0" />
      <stop
         id="stop3741"
         style="stop-color:#ffffff;stop-opacity:0"
         offset="1" />
    </linearGradient>
    <filter
       color-interpolation-filters="sRGB"
       id="filter3174">
      <feGaussianBlur
         stdDeviation="1.71"
         id="feGaussianBlur3176" />
    </filter>
    <filter
       x="-0.192"
       y="-0.192"
       width="1.3839999"
       height="1.3839999"
       color-interpolation-filters="sRGB"
       id="filter3794">
      <feGaussianBlur
         stdDeviation="5.28"
         id="feGaussianBlur3796" />
    </filter>
    <linearGradient
       x1="48"
       y1="20.220806"
       x2="48"
       y2="138.66119"
       id="linearGradient3613"
       xlink:href="#linearGradient3737"
       gradientUnits="userSpaceOnUse" />
    <clipPath
       id="clipPath3613">
      <rect
         width="84"
         height="84"
         rx="6"
         ry="6"
         x="6"
         y="6"
         id="rect3615"
         style="fill:#ffffff;fill-opacity:1;fill-rule:nonzero;stroke:none" />
    </clipPath>
    <linearGradient
       x1="10.31979"
       y1="21"
       x2="10.31979"
       y2="0.99929649"
       id="ButtonColor"
       gradientUnits="userSpaceOnUse">
      <stop
         id="stop3189"
         style="stop-color:#494949;stop-opacity:1"
         offset="0" />
      <stop
         id="stop3191"
         style="stop-color:#0d0d0d;stop-opacity:1"
         offset="1" />
    </linearGradient>
    <linearGradient
       x1="45.447727"
       y1="92.539597"
       x2="45.447727"
       y2="7.0165396"
       id="ButtonShadow-0"
       gradientUnits="userSpaceOnUse"
       gradientTransform="matrix(1.0058652,0,0,0.994169,100,0)">
      <stop
         id="stop3750-8"
         style="stop-color:#000000;stop-opacity:1"
         offset="0" />
      <stop
         id="stop3752-5"
         style="stop-color:#000000;stop-opacity:0.58823532"
         offset="1" />
    </linearGradient>
    <linearGradient
       x1="32.251034"
       y1="6.1317081"
       x2="32.251034"
       y2="90.238609"
       id="linearGradient3780"
       xlink:href="#ButtonShadow-0"
       gradientUnits="userSpaceOnUse"
       gradientTransform="matrix(1.0238095,0,0,1.0119048,-1.1428571,-98.071429)" />
    <linearGradient
       x1="32.251034"
       y1="6.1317081"
       x2="32.251034"
       y2="90.238609"
       id="linearGradient3772"
       xlink:href="#ButtonShadow-0"
       gradientUnits="userSpaceOnUse"
       gradientTransform="matrix(1.0238095,0,0,1.0119048,-1.1428571,-98.071429)" />
    <linearGradient
       x1="32.251034"
       y1="6.1317081"
       x2="32.251034"
       y2="90.238609"
       id="linearGradient3725"
       xlink:href="#ButtonShadow-0"
       gradientUnits="userSpaceOnUse"
       gradientTransform="matrix(1.0238095,0,0,1.0119048,-1.1428571,-98.071429)" />
    <linearGradient
       x1="32.251034"
       y1="6.1317081"
       x2="32.251034"
       y2="90.238609"
       id="linearGradient3721"
       xlink:href="#ButtonShadow-0"
       gradientUnits="userSpaceOnUse"
       gradientTransform="translate(0,-97)" />
    <linearGradient
       x1="32.251034"
       y1="6.1317081"
       x2="32.251034"
       y2="90.238609"
       id="linearGradient3059"
       xlink:href="#ButtonShadow-0"
       gradientUnits="userSpaceOnUse"
       gradientTransform="matrix(1.0238095,0,0,1.0119048,-1.1428571,-98.071429)" />
    <radialGradient
       cx="48"
       cy="90.171875"
       r="42"
       fx="48"
       fy="90.171875"
       id="radialGradient4713"
       xlink:href="#linearGradient3737"
       gradientUnits="userSpaceOnUse"
       gradientTransform="matrix(1.1573129,0,0,0.99590774,-7.551021,0.19713193)" />
    <linearGradient
       x1="36.357143"
       y1="6"
       x2="36.357143"
       y2="63.893143"
       id="linearGradient4716"
       xlink:href="#linearGradient3737"
       gradientUnits="userSpaceOnUse" />
    <linearGradient
       x1="23.826935"
       y1="5.9877172"
       x2="23.826935"
       y2="90.46244"
       id="linearGradient4719"
       xlink:href="#ButtonColor"
       gradientUnits="userSpaceOnUse" />
    <clipPath
       id="clipPath3613-3">
      <rect
         width="84"
         height="84"
         rx="6"
         ry="6"
         x="6"
         y="6"
         id="rect3615-8"
         style="fill:#ffffff;fill-opacity:1;fill-rule:nonzero;stroke:none" />
    </clipPath>
    <filter
       x="-0.192"
       y="-0.192"
       width="1.3839999"
       height="1.3839999"
       color-interpolation-filters="sRGB"
       id="filter3794-9">
      <feGaussianBlur
         stdDeviation="5.28"
         id="feGaussianBlur3796-6" />
    </filter>
    <filter
       color-interpolation-filters="sRGB"
       id="filter3174-7">
      <feGaussianBlur
         stdDeviation="1.71"
         id="feGaussianBlur3176-0" />
    </filter>
    <linearGradient
       id="linearGradient3737-1">
      <stop
         id="stop3739-7"
         style="stop-color:#ffffff;stop-opacity:1"
         offset="0" />
      <stop
         id="stop3741-9"
         style="stop-color:#ffffff;stop-opacity:0"
         offset="1" />
    </linearGradient>
    <linearGradient
       x1="45.447727"
       y1="92.539597"
       x2="45.447727"
       y2="7.0165396"
       id="ButtonShadow-7"
       gradientUnits="userSpaceOnUse"
       gradientTransform="scale(1.0058652,0.994169)">
      <stop
         id="stop3750-7"
         style="stop-color:#000000;stop-opacity:1"
         offset="0" />
      <stop
         id="stop3752-3"
         style="stop-color:#000000;stop-opacity:0.58823532"
         offset="1" />
    </linearGradient>
    <linearGradient
       id="linearGradient3775">
      <stop
         id="stop3777"
         style="stop-color:#a4a4a4;stop-opacity:1"
         offset="0" />
      <stop
         id="stop3779"
         style="stop-color:#a4a4a4;stop-opacity:0"
         offset="1" />
    </linearGradient>
    <linearGradient
       x1="48"
       y1="20.220806"
       x2="48"
       y2="138.66119"
       id="linearGradient12148"
       xlink:href="#linearGradient3737-1"
       gradientUnits="userSpaceOnUse" />
    <radialGradient
       cx="108.53934"
       cy="7.457119"
       r="56.542881"
       fx="108.53934"
       fy="7.457119"
       id="radialGradient12179"
       xlink:href="#linearGradient3775"
       gradientUnits="userSpaceOnUse"
       gradientTransform="matrix(-1.3703659,1.180354e-8,-1.2492802e-8,-1.4503877,228.44456,16.815712)" />
    <clipPath
       id="clipPath4355">
      <rect
         width="84"
         height="80"
         rx="6"
         ry="6"
         x="6"
         y="6"
         id="rect4357"
         style="fill:#ffffff;fill-opacity:1;fill-rule:nonzero;stroke:none" />
    </clipPath>
    <linearGradient
       x1="48"
       y1="20.220806"
       x2="48"
       y2="138.66119"
       id="linearGradient3613-6"
       xlink:href="#linearGradient3737-19"
       gradientUnits="userSpaceOnUse" />
    <filter
       x="-0.192"
       y="-0.192"
       width="1.3839999"
       height="1.3839999"
       color-interpolation-filters="sRGB"
       id="filter3794-99">
      <feGaussianBlur
         stdDeviation="5.28"
         id="feGaussianBlur3796-2" />
    </filter>
    <filter
       color-interpolation-filters="sRGB"
       id="filter3174-8">
      <feGaussianBlur
         stdDeviation="1.71"
         id="feGaussianBlur3176-3" />
    </filter>
    <linearGradient
       id="linearGradient3737-19">
      <stop
         id="stop3739-5"
         style="stop-color:#ffffff;stop-opacity:1"
         offset="0" />
      <stop
         id="stop3741-6"
         style="stop-color:#ffffff;stop-opacity:0"
         offset="1" />
    </linearGradient>
    <linearGradient
       x1="45.447727"
       y1="92.539597"
       x2="45.447727"
       y2="7.0165396"
       id="ButtonShadow-4"
       gradientUnits="userSpaceOnUse"
       gradientTransform="scale(1.0058652,0.994169)">
      <stop
         id="stop3750-0"
         style="stop-color:#000000;stop-opacity:1"
         offset="0" />
      <stop
         id="stop3752-8"
         style="stop-color:#000000;stop-opacity:0.58823532"
         offset="1" />
    </linearGradient>
  </defs>
  <metadata
     id="metadata2413">
    <rdf:RDF>
      <cc:Work
         rdf:about="">
        <dc:format>image/svg+xml</dc:format>
        <dc:type
           rdf:resource="http://purl.org/dc/dcmitype/StillImage" />
        <dc:title></dc:title>
      </cc:Work>
    </rdf:RDF>
  </metadata>
  <g
     id="layer6"
     style="display:inline">
    <path
       d="m 12,-95.03125 c -5.5110903,0 -10.03125,4.52016 -10.03125,10.03125 l 0,71 c 0,5.5110902 4.5201598,10.03125 10.03125,10.03125 l 72,0 c 5.51109,0 10.03125,-4.5201597 10.03125,-10.03125 l 0,-71 c 0,-5.51109 -4.52016,-10.03125 -10.03125,-10.03125 l -72,0 z"
       transform="scale(1,-1)"
       id="path3786"
       style="opacity:0.07999998;fill:url(#linearGradient3059);fill-opacity:1;fill-rule:nonzero;stroke:none;display:inline" />
    <path
       d="m 12,-94.03125 c -4.971633,0 -9.03125,4.059617 -9.03125,9.03125 l 0,71 c 0,4.9716329 4.0596171,9.03125 9.03125,9.03125 l 72,0 c 4.971633,0 9.03125,-4.059617 9.03125,-9.03125 l 0,-71 c 0,-4.971633 -4.059617,-9.03125 -9.03125,-9.03125 l -72,0 z"
       transform="scale(1,-1)"
       id="path3778"
       style="opacity:0.1;fill:url(#linearGradient3780);fill-opacity:1;fill-rule:nonzero;stroke:none;display:inline" />
    <path
       d="m 12,-93 c -4.4091333,0 -8,3.590867 -8,8 l 0,71 c 0,4.4091333 3.5908667,8 8,8 l 72,0 c 4.409133,0 8,-3.5908667 8,-8 l 0,-71 c 0,-4.409133 -3.590867,-8 -8,-8 l -72,0 z"
       transform="scale(1,-1)"
       id="path3770"
       style="opacity:0.2;fill:url(#linearGradient3772);fill-opacity:1;fill-rule:nonzero;stroke:none;display:inline" />
    <rect
       width="86"
       height="85"
       rx="7"
       ry="7"
       x="5"
       y="-92"
       transform="scale(1,-1)"
       id="rect3723"
       style="opacity:0.3;fill:url(#linearGradient3725);fill-opacity:1;fill-rule:nonzero;stroke:none;display:inline" />
    <rect
       width="84"
       height="84"
       rx="6"
       ry="6"
       x="6"
       y="-91"
       transform="scale(1,-1)"
       id="rect3716"
       style="opacity:0.45;fill:url(#linearGradient3721);fill-opacity:1;fill-rule:nonzero;stroke:none;display:inline" />
  </g>
  <rect
     width="84"
     height="84"
     rx="6"
     ry="6"
     x="6"
     y="6"
     id="rect2419"
     style="fill:url(#linearGradient4719);fill-opacity:1;fill-rule:nonzero;stroke:none" />
  <g
     transform="translate(-82.629274,-1.6003932)"
     id="g4618">
    <path
       d="m 107.27721,81.47417 c -1.46005,-0.13447 -2.23569,-0.62078 -2.23569,-1.40173 0,-0.42883 0.7673,-0.97559 1.36911,-0.97559 0.73722,0 5.64756,-2.61839 6.49679,-3.46435 l 0.48248,-0.48062 0.0233,-7.27957 c 0.0212,-6.6218 0.0583,-7.75893 0.29183,-8.92577 0.0952,-0.47558 4.33295,-4.16232 6.62045,-5.75958 0.96896,-0.67659 2.25398,-1.59738 2.85559,-2.04621 0.60161,-0.44882 1.38097,-0.89005 1.73191,-0.98051 0.35094,-0.0905 0.63807,-0.26833 0.63807,-0.39527 0,-0.12694 -0.73834,-0.5121 -1.64076,-0.8559 -4.35125,-1.65774 -5.48625,-2.16074 -7.43411,-3.29456 -0.61309,-0.35687 -0.67285,-0.62275 -0.67574,-3.00617 l -0.003,-2.30602 -3.05363,-0.0817 c -2.69128,-0.072 -3.312,-0.15012 -5.23084,-0.65849 -2.41677,-0.64029 -2.87275,-0.87184 -3.39117,-1.72207 -0.32145,-0.52719 -0.3553,-0.93699 -0.35591,-4.30891 -3.7e-4,-2.04947 0.0794,-4.182456 0.17719,-4.739967 0.0978,-0.557514 0.36008,-2.02193 0.58277,-3.254257 0.34061,-1.884866 0.37119,-2.366604 0.19262,-3.034261 -0.11675,-0.436517 -0.26751,-1.455984 -0.33502,-2.265486 l -0.12275,-1.471819 0.61632,-0.575723 0.61631,-0.575724 1.62972,0.09292 c 1.29857,0.07404 1.6793,0.160716 1.87369,0.426555 0.23103,0.315956 0.61812,0.329146 7.30519,0.248911 3.88368,-0.0466 14.03446,-0.08472 22.55729,-0.08472 13.65274,0 15.49606,0.03253 15.49606,0.27346 0,0.201673 -0.28715,0.299493 -1.09384,0.372629 -1.01308,0.09185 -1.04,0.105308 -0.36461,0.182307 l 0.72923,0.08314 0.0911,1.09384 c 0.0532,0.638789 0.23447,1.305253 0.43564,1.60203 0.32013,0.472258 0.32821,0.621796 0.1142,2.114836 -0.2306,1.60889 -0.16529,10.565362 0.10185,13.966872 0.0782,0.9954 0.042,1.6321 -0.11385,2.00537 -0.2617,0.62667 -0.24138,1.065057 0.11307,2.439167 0.13913,0.53939 0.20883,1.05213 0.15488,1.13941 -0.0539,0.0873 -1.29296,0.15871 -2.75336,0.15871 l -2.65528,0 -0.72213,0.82038 c -0.39717,0.45121 -0.83192,0.82038 -0.9661,0.82038 -0.13419,0 -0.48772,0.20509 -0.78563,0.45576 -0.29791,0.25067 -0.61964,0.45577 -0.71496,0.45577 -0.0953,0 -0.3218,0.16408 -0.50328,0.36461 -0.55119,0.60906 -1.16719,0.44986 -2.55229,-0.6596 -0.70188,-0.56219 -1.71854,-1.30654 -2.25924,-1.65409 -0.91574,-0.58863 -2.76715,-1.51475 -3.02813,-1.51475 -0.0633,0 -0.37615,-0.19509 -0.69534,-0.43353 -2.02302,-1.511277 -4.64213,-2.421337 -7.91817,-2.751317 -0.92317,-0.093 -1.13942,-0.065 -1.13942,0.14767 0,0.36181 1.74272,1.879917 5.37004,4.677937 4.11008,3.17042 4.49258,3.50836 5.02854,4.44282 0.4578,0.7982 0.53665,1.12918 0.53811,2.25894 0.002,1.55651 -0.3541,2.45083 -1.46697,3.68414 -0.72129,0.79933 -0.73293,0.83394 -0.61347,1.82307 0.067,0.55454 0.18441,1.0903 0.26097,1.19057 0.0766,0.10027 0.19764,0.55147 0.26906,1.00268 0.0714,0.45121 0.32826,1.47669 0.57073,2.27884 0.24248,0.80214 0.57375,1.90966 0.73616,2.46113 0.545,1.85062 0.68205,2.18768 0.88954,2.18768 0.11355,0 0.25485,-0.0484 0.31399,-0.10754 0.0591,-0.0591 0.83167,-0.13019 1.71672,-0.15787 1.40093,-0.0438 1.79793,0.0188 3.06764,0.48367 0.80215,0.2937 1.66354,0.65419 1.91422,0.80108 1.14781,0.67262 2.50928,1.30646 3.01198,1.40223 0.30296,0.0577 1.52507,0.56976 2.7158,1.13786 1.4367,0.68545 2.56991,1.09665 3.36875,1.22239 1.95814,0.30822 1.93976,0.26622 1.87805,4.29169 -0.0515,3.35945 -0.0596,3.42184 -0.50497,3.87026 -0.43334,0.43633 -0.54498,0.4554 -2.61781,0.44709 -2.47833,-0.01 -2.74722,-0.1252 -2.74722,-1.17767 0,-0.52896 0.10344,-0.75371 0.45197,-0.98208 0.24859,-0.16288 0.5832,-0.54991 0.74359,-0.86007 0.24016,-0.46442 0.25295,-0.65728 0.0725,-1.09296 -0.2654,-0.64076 -1.30452,-1.58606 -1.86388,-1.69561 -1.34473,-0.26338 -4.44524,-0.68211 -6.96988,-0.94131 -1.6043,-0.16471 -3.45016,-0.42126 -4.1019,-0.5701 -0.65175,-0.14884 -1.51315,-0.30555 -1.91422,-0.34823 -2.22772,-0.23709 -3.2462,-0.75824 -3.98652,-2.0399 -0.11359,-0.19665 -0.57337,-0.83913 -1.02172,-1.42774 -1.68783,-2.21583 -5.1354,-7.80454 -5.35554,-8.68165 l -0.11875,-0.47312 -1.32177,0.36044 c -2.57059,0.70097 -3.8835,1.10779 -4.69445,1.45463 l -0.82038,0.35088 -0.009,2.86816 c -0.009,2.81509 -0.0222,2.90695 -0.69841,4.96469 -0.37893,1.15308 -0.81388,2.58875 -0.96655,3.19036 -0.15267,0.60161 -0.49104,1.70912 -0.75193,2.46114 -0.46506,1.34055 -0.48904,1.61149 -0.37969,4.29145 0.0433,1.06046 -0.001,1.24218 -0.40303,1.64393 -0.40325,0.40324 -0.68549,0.47144 -2.63206,0.63602 -1.1992,0.1014 -2.88325,0.26405 -3.74232,0.36145 -1.66532,0.18882 -1.74051,0.18887 -3.76808,0.002 z m 3.14236,-1.37248 c 1.40376,-0.15084 3.29063,-0.3361 4.19305,-0.41167 l 1.64076,-0.1374 -0.0639,-1.73191 c -0.0711,-1.9273 -0.0474,-2.02798 1.93802,-8.2038 1.20806,-3.75785 1.43316,-5.01526 1.15032,-6.42573 -0.10562,-0.52672 -0.21404,-1.40596 -0.24093,-1.95385 -0.0478,-0.97443 -0.035,-1.00308 0.58919,-1.31351 0.75523,-0.37561 1.81602,-0.76661 2.82575,-1.04154 2.65406,-0.72266 3.50104,-0.97499 3.78039,-1.12622 0.17411,-0.0943 0.4635,-0.17138 0.64308,-0.17138 0.17959,0 0.48835,-0.10958 0.68613,-0.24351 0.38296,-0.25933 2.07866,-0.83525 5.19072,-1.76298 1.05282,-0.31385 2.28162,-0.75267 2.73067,-0.97515 1.02792,-0.50929 1.7663,-1.54852 2.04345,-2.876 0.1868,-0.89479 0.17105,-1.14044 -0.12277,-1.91422 -0.29571,-0.77875 -1.38995,-2.0727 -1.75279,-2.0727 -0.22393,0 -2.56766,-1.51097 -3.99673,-2.57664 -2.35782,-1.75825 -5.82948,-5.41453 -5.82948,-6.13949 0,-0.66153 0.37073,-0.7642 2.10861,-0.58392 0.89577,0.0929 2.03887,0.20746 2.54021,0.25453 1.72124,0.16159 3.2823,0.48472 3.91959,0.81134 1.09566,0.56152 3.11524,1.6747 5.05866,2.78829 1.02756,0.58879 2.02108,1.07053 2.20782,1.07053 0.37825,0 1.52539,0.72758 2.19275,1.39075 0.59872,0.59497 0.86323,0.5474 1.6893,-0.30381 0.7796,-0.80332 0.78295,-0.99485 0.02,-1.14206 -1.52309,-0.29389 -3.58099,-1.05761 -4.10712,-1.52422 -0.90018,-0.79835 -5.94201,-3.98183 -7.23304,-4.56705 -0.75788,-0.34354 -1.62407,-0.7474 -1.92487,-0.89746 -0.30081,-0.15007 -1.60816,-0.68443 -2.90522,-1.18747 -2.52432,-0.97902 -3.17646,-1.0476 -4.70608,-0.49489 -0.5994,0.21658 -0.68365,0.32016 -0.68365,0.84049 0,0.40598 0.0864,0.59346 0.27346,0.59346 0.15787,0 0.27346,0.16488 0.27346,0.39009 0,0.21455 0.13559,0.48924 0.30131,0.61042 0.38797,0.28369 0.14136,0.70319 -0.33947,0.57745 -0.63254,-0.16541 -0.904,0.0553 -0.77735,0.63192 0.0996,0.45345 0.0464,0.54907 -0.40078,0.72009 -0.35895,0.13728 -0.6086,0.13956 -0.82163,0.008 -0.25441,-0.15771 -0.32593,-0.099 -0.42421,0.34854 -0.065,0.29603 -0.19394,0.58504 -0.2865,0.64224 -0.32452,0.20056 -0.16385,0.4471 0.2914,0.4471 0.31193,0 0.52562,0.14474 0.66487,0.45036 0.31231,0.68545 -0.0608,1.00809 -1.16585,1.00809 -0.86555,0 -0.95649,-0.0494 -1.93747,-1.0521 -0.90275,-0.92276 -1.0681,-1.20852 -1.34499,-2.32441 -0.17364,-0.69977 -0.36736,-1.57995 -0.43048,-1.95596 -0.0631,-0.37601 -0.1753,-0.68365 -0.24928,-0.68365 -0.15493,0 -0.44346,8.85196 -0.29629,9.09008 0.0536,0.0867 0.77635,0.4216 1.60613,0.74418 0.82978,0.32259 2.20601,0.85833 3.05829,1.19054 5.416,2.11108 5.01493,2.00172 7.13747,1.94616 1.32677,-0.0347 1.98316,0.0162 2.07252,0.16079 0.23147,0.37452 -0.3383,0.69653 -1.55311,0.87774 -1.33422,0.19903 -2.56916,0.61727 -3.26728,1.10655 -0.2585,0.18117 -0.79816,0.43533 -1.19923,0.56478 -0.90239,0.29126 -2.64684,1.3761 -4.53403,2.81963 -0.78915,0.60363 -1.65418,1.26158 -1.92228,1.46212 -1.36342,1.01981 -3.44754,2.8856 -3.62126,3.24191 -0.12618,0.2588 -0.23859,3.25718 -0.31245,8.33456 -0.11515,7.91556 -0.11616,7.93155 -0.54209,8.58339 -0.3528,0.5399 -0.97467,0.9253 -3.58918,2.22436 -1.73935,0.86422 -3.32652,1.62513 -3.52706,1.69092 -0.36462,0.11962 -0.36462,0.11962 0,0.26954 0.5057,0.20794 0.43671,0.20996 3.28152,-0.0958 z m 44.5776,-2.55633 c 0.75832,-0.39214 0.86329,-0.68904 1.00048,-2.8297 0.15135,-2.36152 0.0622,-2.52496 -1.47689,-2.70643 -0.75899,-0.0895 -1.28551,-0.2756 -1.72299,-0.60902 -0.43763,-0.33355 -0.82482,-0.47036 -1.26807,-0.44808 -0.48335,0.0243 -0.63307,-0.0385 -0.61744,-0.25881 0.0245,-0.3457 -0.86896,-0.82094 -3.06712,-1.63139 -0.87341,-0.32202 -1.72384,-0.73556 -1.88982,-0.91898 -0.33629,-0.37158 -2.02973,-0.97846 -3.50203,-1.255 -0.67166,-0.12616 -1.37488,-0.11711 -2.32023,0.0299 -1.21286,0.18856 -1.39329,0.17755 -1.70433,-0.10393 -0.19133,-0.17315 -0.4003,-0.57725 -0.46438,-0.898 -0.13288,-0.66507 -1.35247,-4.65081 -2.0472,-6.69044 -0.25615,-0.75202 -0.50742,-1.67495 -0.55838,-2.05095 -0.051,-0.37601 -0.10454,-0.68116 -0.11908,-0.67811 -0.81649,0.17131 -6.23242,2.02253 -6.27296,2.14416 -0.0323,0.097 0.33684,0.86379 0.82036,1.70407 0.48352,0.84029 0.9912,1.81413 1.12819,2.1641 0.13698,0.34998 0.48326,0.93915 0.76949,1.30928 0.28624,0.37013 0.52043,0.72936 0.52043,0.7983 0,0.19035 1.78756,2.77316 2.70388,3.90678 1.0824,1.3391 1.60394,1.58413 3.66065,1.71983 0.93883,0.0619 1.75852,0.14449 1.82154,0.18344 0.15656,0.0967 2.81688,0.48409 3.93732,0.57326 0.50134,0.0399 1.15765,0.12186 1.45845,0.18213 0.30081,0.0603 1.49036,0.17742 2.64345,0.26034 2.71304,0.1951 3.16135,0.31229 4.42242,1.15604 1.60499,1.07386 1.776,1.36901 1.776,3.06523 0,1.11145 -0.0623,1.4635 -0.27346,1.54452 -0.30929,0.11869 -0.37549,0.61285 -0.0821,0.61285 0.10525,0 0.43097,-0.12391 0.72382,-0.27535 z m -5.65515,-36.18597 c 0,-0.66556 -0.0418,-0.72922 -0.47855,-0.72922 -0.43876,0 -0.46908,0.0474 -0.36462,0.5697 0.0627,0.31334 0.11394,0.64149 0.11394,0.72923 0,0.0877 0.16408,0.15952 0.36462,0.15952 0.30384,0 0.36461,-0.12154 0.36461,-0.72923 z m -2.00537,0.17697 c 0.22961,-0.10927 -1.7479,-0.27902 -2.25507,-0.19357 -0.56783,0.0957 -0.56704,0.0967 0.15854,0.19725 0.68471,0.0949 1.89377,0.0928 2.09653,-0.004 z m -3.78382,-0.63273 c 0.0842,-0.44032 0.054,-0.45577 -0.89028,-0.45577 -0.53757,0 -0.97741,0.0444 -0.97741,0.0986 0,0.0926 1.41413,0.77204 1.66509,0.80002 0.0635,0.007 0.15468,-0.19221 0.2026,-0.44288 z m 2.78113,-1.81677 c 3.30887,-0.0683 6.17087,-0.16823 6.36,-0.22212 0.33171,-0.0945 0.33916,-0.31731 0.21029,-6.29005 -0.0735,-3.405632 -0.21247,-6.657564 -0.30886,-7.226512 -0.0964,-0.568948 -0.21823,-1.322035 -0.27076,-1.673525 l -0.0955,-0.639074 -6.86718,-0.02765 c -3.77694,-0.01521 -8.34385,-0.02144 -10.14869,-0.01386 -1.80483,0.0076 -4.44093,1.22e-4 -5.858,-0.01659 l -2.57648,-0.03038 -0.0997,1.321385 c -0.0548,0.726762 -0.1091,3.011846 -0.1206,5.077961 l -0.0209,3.756576 1.1189,0.31395 c 1.13371,0.3181 3.83843,1.43681 6.82756,2.82398 1.44601,0.67105 2.41148,1.24425 4.82007,2.86166 0.37521,0.25197 0.70467,0.35827 0.82038,0.26472 0.10635,-0.086 2.90062,-0.2122 6.20948,-0.28047 z m -30.39069,-1.44531 0.0545,-1.2567 -1.14276,0.10363 c -0.89997,0.0816 -1.30658,0.029 -1.91388,-0.24767 -0.61171,-0.27867 -1.26144,-0.361 -3.14303,-0.3983 -1.61468,-0.032 -2.44557,-0.12068 -2.60265,-0.27775 -0.53124,-0.53124 -0.72037,-9.275476 -0.24335,-11.251034 0.14526,-0.601611 0.26704,-1.480482 0.27061,-1.953046 0.004,-0.472564 0.17057,-1.275472 0.3711,-1.784238 0.20054,-0.508767 0.36462,-1.014766 0.36462,-1.124442 0,-0.332405 -1.29059,-0.02266 -1.68946,0.405483 -0.31937,0.342811 -0.3472,0.535418 -0.23154,1.602562 0.0723,0.667107 0.13498,1.418017 0.1393,1.668689 0.0104,0.603633 -0.73616,5.385879 -0.96762,6.198423 -0.24864,0.872899 -0.42031,6.486763 -0.22524,7.366083 0.15283,0.68893 0.19307,0.72007 1.2472,0.96513 0.59911,0.13927 1.54049,0.38824 2.09197,0.55326 1.8148,0.54305 3.34343,0.74274 5.4692,0.71449 l 2.09652,-0.0279 0.0545,-1.2567 z m 3.14154,-5.03287 -0.36132,-1.3673 0.08,1.23311 c 0.044,0.67821 0.18558,1.7447 0.31455,2.36998 l 0.23451,1.13688 0.0468,-1.00269 c 0.0266,-0.5694 -0.10936,-1.59352 -0.31455,-2.36998 z m -5.59556,1.73191 c -0.37717,-0.45121 -0.71312,-0.82038 -0.74656,-0.82038 -0.0335,0 -0.004,0.30764 0.0649,0.68365 0.13966,0.75954 0.32908,0.95019 0.94814,0.95432 0.39752,0.003 0.3837,-0.0398 -0.26648,-0.81759 z m 3.58451,-0.11066 c 0,-0.26654 0.0837,-0.352 0.27346,-0.27918 0.21352,0.0819 0.27346,-0.047 0.27346,-0.58819 0,-0.38121 -0.0615,-0.75464 -0.13673,-0.82985 -0.0752,-0.0752 -0.13673,-0.52335 -0.13673,-0.99589 0,-0.731656 -0.14206,-1.073384 -0.95711,-2.302429 -0.52641,-0.79379 -0.95711,-1.601345 -0.95711,-1.794562 0,-0.456312 -0.50876,-0.834159 -1.13301,-0.841473 -0.57114,-0.0067 -0.80605,0.335688 -0.98101,1.429823 -0.0661,0.413632 -0.18976,0.752059 -0.27471,0.752059 -0.13984,0 -0.10484,0.449263 0.12376,1.588747 0.0566,0.281968 0.16933,0.369863 0.37382,0.291393 0.24039,-0.09225 0.2593,-0.04976 0.10566,0.237316 -0.13525,0.252736 -0.11765,0.475196 0.0635,0.802446 0.13784,0.24902 0.25353,0.60601 0.25708,0.79332 0.008,0.43513 1.02167,1.60007 1.63364,1.8779 0.25814,0.11719 0.69495,0.21974 0.97069,0.22788 0.39298,0.0116 0.50135,-0.0682 0.50135,-0.36931 z m -6.04219,0.0395 c 0.43865,-0.27793 0.0706,-0.85619 -0.65984,-1.03663 -0.63495,-0.15686 -0.68912,-0.22424 -0.79481,-0.98871 -0.0624,-0.45121 -0.2077,-1.271544 -0.32294,-1.82297 -0.22741,-1.088164 -0.11843,-2.918189 0.21713,-3.646225 0.29575,-0.641644 1.00735,-1.496195 1.53981,-1.849123 0.25191,-0.166976 1.05865,-0.356376 1.82308,-0.42801 1.26618,-0.11865 3.35465,-0.668921 3.78399,-0.997009 0.10027,-0.07662 0.56661,-0.189358 1.03632,-0.250526 1.13011,-0.147169 2.41244,0.250985 3.16852,0.9838 l 0.59622,0.577884 -0.046,-0.901488 c -0.0253,-0.495819 -0.10381,-0.994934 -0.1744,-1.109148 -0.0935,-0.151268 -1.62394,-0.182556 -5.63599,-0.115217 -6.80472,0.114209 -6.83874,0.118479 -6.95127,0.872302 -0.29814,1.997225 -0.40276,3.333078 -0.27388,3.49718 0.0818,0.104221 0.18482,1.416828 0.22882,2.916905 0.10448,3.560945 0.20385,4.067155 0.82515,4.203395 0.26467,0.058 0.56325,0.13288 0.66352,0.16633 0.34017,0.11347 0.72837,0.0846 0.97662,-0.0727 z m 11.31737,-1.29628 c -0.25271,-2.107085 -0.50357,-3.67509 -0.60405,-3.77557 -0.14116,-0.141162 0.0781,1.97862 0.26611,2.57237 0.092,0.29071 0.16734,0.87877 0.16734,1.30682 0,0.71857 0.15463,1.44345 0.28096,1.31712 0.0295,-0.0295 -0.0202,-0.66882 -0.11036,-1.42074 z m 2.36771,0.28086 0.51483,-0.26623 0.0779,-5.376364 c 0.0686,-4.733785 0.1149,-5.417276 0.38765,-5.718667 0.20686,-0.228578 0.30978,-0.653383 0.30978,-1.278642 0,-1.22554 -0.28036,-1.386952 -2.11106,-1.215402 l -1.35277,0.126766 0,0.86779 c 0,0.559564 -0.0999,0.950679 -0.28118,1.101155 -0.19508,0.161903 -0.223,0.291558 -0.0912,0.423398 0.10452,0.104518 0.19603,0.809419 0.20335,1.566448 0.0154,1.596495 0.15989,2.601886 0.68237,4.749086 0.40962,1.68341 0.76277,3.879512 0.76277,4.743352 0,0.61177 0.15698,0.66027 0.89755,0.27731 z m -4.53695,-4.343428 c -0.34762,-1.02746 -0.91826,-2.073261 -0.91826,-1.682894 0,0.08683 0.19557,0.738302 0.43461,1.447721 0.23904,0.709418 0.50109,1.535965 0.58234,1.836771 l 0.14772,0.54692 0.0685,-0.507759 c 0.0377,-0.279268 -0.10403,-1.017609 -0.31487,-1.640759 z m -7.74969,-7.193686 c -1.85684,-0.08097 -2.17424,-0.320302 -2.05605,-1.550344 l 0.0832,-0.866226 -0.70247,0 -0.70246,0 0,1.257149 0,1.25715 2.41556,-0.01717 c 1.50149,-0.01068 1.86559,-0.04116 0.96218,-0.08055 z m 8.15315,0.0071 c -0.22561,-0.04345 -0.59478,-0.04345 -0.82038,0 -0.22561,0.04345 -0.041,0.07901 0.41019,0.07901 0.45121,0 0.63579,-0.03555 0.41019,-0.07901 z m -2.2324,-0.225591 -0.81951,-0.101516 -0.1515,-0.95711 -0.1515,-0.957109 -1.07993,0 -1.07994,0 0,0.902474 c 0,0.591526 -0.0895,0.952705 -0.25988,1.048263 -0.14293,0.08018 0.77999,0.150452 2.05095,0.156151 1.27096,0.0057 1.94205,-0.03532 1.49131,-0.09115 z m 16.69012,-0.181707 c -0.23922,-0.264334 -0.30391,-0.586661 -0.25614,-1.276259 l 0.0639,-0.922601 -1.73191,-0.0024 c -0.95256,-0.0013 -1.90255,-0.04819 -2.11111,-0.104196 -0.35736,-0.09596 -0.37198,-0.05121 -0.25384,0.777292 0.18947,1.32878 0.3045,1.488464 1.15052,1.597155 0.41726,0.05361 0.96375,0.128409 1.21443,0.166229 0.25067,0.03782 0.85816,0.07993 1.34997,0.09359 0.87396,0.02426 0.88697,0.01681 0.57417,-0.328825 z m 8.50379,-0.04742 c -0.12032,-0.120323 -0.21877,-0.402614 -0.21877,-0.627314 0,-0.2247 -0.082,-0.459248 -0.1823,-0.521218 -0.32053,-0.198098 -0.19568,-0.644448 0.22788,-0.814699 0.28109,-0.112982 -0.2645,-0.168513 -1.73346,-0.176431 -1.9852,-0.0107 -2.13138,0.01203 -1.9777,0.30748 0.0913,0.175471 0.23553,0.647189 0.32058,1.048263 l 0.15464,0.729227 1.09384,0.106082 c 2.05764,0.199555 2.55519,0.18851 2.31529,-0.05139 z m 6.02575,-0.0091 c -0.3128,-0.394132 -0.45171,-1.599567 -0.21693,-1.882461 0.18225,-0.219594 0.0518,-0.259641 -0.84599,-0.259641 -0.82558,0 -1.01285,0.04862 -0.8427,0.218768 0.12032,0.120322 0.21877,0.653569 0.21877,1.184993 l 0,0.966225 0.93385,0 c 0.72201,0 0.89283,-0.0517 0.753,-0.227884 z M 114.06905,20.57102 c 0.0851,-0.137755 -2.48327,-0.359817 -2.64152,-0.228383 -0.0472,0.03923 0.0318,0.144017 0.17551,0.232864 0.31262,0.19321 2.34611,0.189515 2.46601,-0.0045 z m 7.56237,-0.05976 c 0,-0.168904 -0.35583,-0.284681 -1.12058,-0.364613 -1.71764,-0.179529 -2.16094,-0.150059 -2.16094,0.143655 0,0.316255 0.43843,0.411087 2.05095,0.44362 0.9271,0.0187 1.23057,-0.03621 1.23057,-0.222662 z m 7.6113,0.132582 c 0.28669,-0.07683 0.41019,-0.247155 0.41019,-0.565692 0,-0.388918 -0.0602,-0.437051 -0.41019,-0.328161 -0.2256,0.07018 -0.84089,0.171948 -1.3673,0.226144 -0.7795,0.08025 -0.95711,0.162011 -0.95711,0.440577 0,0.291395 0.14171,0.34167 0.95711,0.339548 0.52641,-0.0013 1.1417,-0.05196 1.3673,-0.112416 z m 9.11533,0 c 0.25154,-0.06741 0.41019,-0.250566 0.41019,-0.473565 0,-0.310645 -0.0863,-0.348065 -0.5925,-0.25677 -0.32587,0.05878 -0.91009,0.03328 -1.29826,-0.05665 -0.84622,-0.196067 -1.20845,-0.08696 -1.20845,0.363997 0,0.331584 0.0977,0.357279 1.91422,0.503558 0.20053,0.01615 0.5492,-0.02011 0.7748,-0.08057 z m 8.43168,-0.432014 c 0,-0.104175 -0.54692,-0.182306 -1.27615,-0.182306 -0.72922,0 -1.27614,0.07813 -1.27614,0.182306 0,0.104176 0.54692,0.182307 1.27614,0.182307 0.72923,0 1.27615,-0.07813 1.27615,-0.182307 z m 5.83381,-0.02521 c 0,-0.0864 -0.49707,-0.157093 -1.1046,-0.157093 -0.60753,0 -1.06499,0.06408 -1.01659,0.142398 0.12111,0.195957 2.12119,0.209813 2.12119,0.01469 z m -5.28689,26.019092 c 0,-0.15876 0.12989,-0.28865 0.28865,-0.28865 0.15876,0 0.25618,0.0974 0.21649,0.21649 -0.11268,0.33803 -0.50514,0.3941 -0.50514,0.0722 z"
       id="path4608"
       style="opacity:0.15;color:#000000;fill:#000000;fill-opacity:1;fill-rule:nonzero;stroke-width:0.18230657;stroke-linecap:butt;stroke-linejoin:miter;stroke-miterlimit:4;stroke-opacity:1;stroke-dasharray:none;stroke-dashoffset:0;marker:none;visibility:visible;display:inline;overflow:visible;enable-background:new" />
    <path
       d="m 105.40625,15.59375 a 2.022986,2.022986 0 0 0 -1.25,0.53125 l -0.625,0.5625 -0.625,0.5625 a 2.022986,2.022986 0 0 0 -0.6875,1.65625 l 0.125,1.5 c 0.0779,0.934404 0.20828,1.88481 0.40625,2.625 0.0519,0.194072 0.0788,0.137656 0.0625,0.40625 -0.0163,0.268594 -0.11471,0.797128 -0.28125,1.71875 -0.22092,1.222526 -0.48901,2.684174 -0.59375,3.28125 -0.11317,0.645179 -0.0972,1.203853 -0.125,2.09375 -0.0278,0.889897 -0.0627,1.955783 -0.0625,3 3.1e-4,1.690282 0.005,2.631317 0.0625,3.375 0.0575,0.743683 0.32121,1.553022 0.59375,2 0.34969,0.573511 1.00994,1.293844 1.78125,1.6875 0.77131,0.393656 1.54471,0.609897 2.78125,0.9375 1.97829,0.524119 2.99806,0.645963 5.71875,0.71875 l 1.09375,0.03125 0,0.3125 c 0.001,1.203002 -0.0134,1.878328 0.15625,2.6875 0.16965,0.809172 1.00353,1.804764 1.5,2.09375 1.54316,0.898248 3.51582,1.646344 5.90625,2.59375 -0.64055,0.458432 -1.42974,1.033385 -2.1875,1.5625 -1.26345,0.88221 -2.88841,2.222249 -4.28125,3.4375 -0.69642,0.607625 -1.32168,1.173549 -1.8125,1.65625 -0.24541,0.24135 -0.46575,0.466722 -0.65625,0.6875 -0.0952,0.110389 -0.1775,0.192376 -0.28125,0.34375 -0.10375,0.151374 -0.25283,0.264684 -0.375,0.875 -0.27107,1.354425 -0.35376,2.710934 -0.375,9.34375 l -0.0312,6.40625 c -0.0391,0.01768 -0.31571,0.244139 -0.78125,0.53125 -0.54247,0.334558 -1.22479,0.730049 -1.90625,1.09375 -0.68146,0.363701 -1.36099,0.675664 -1.875,0.90625 -0.25701,0.115293 -0.46872,0.205593 -0.59375,0.25 -0.12503,0.04441 -0.2888,0 0.21875,0 -0.90583,0 -1.50104,0.293188 -2.0625,0.6875 -0.56151,0.394312 -1.3438,0.882377 -1.3438,2.3125 0,1.072507 0.72937,2.155837 1.53125,2.65625 0.80188,0.500413 1.64184,0.665207 2.5625,0.75 2.02975,0.187071 2.48424,0.189579 4.15625,0 0.78691,-0.08922 2.49042,-0.242529 3.6875,-0.34375 0.99562,-0.08418 1.61921,-0.119281 2.25,-0.28125 0.63079,-0.161969 1.34422,-0.625483 1.65625,-0.9375 0.26946,-0.269269 0.74274,-0.855808 0.90625,-1.5 0.16351,-0.644192 0.1168,-1.091666 0.0937,-1.65625 -0.0544,-1.332149 -0.0634,-2.030308 -0.0312,-2.40625 0.0322,-0.375942 0.0608,-0.520758 0.28125,-1.15625 0.27094,-0.781002 0.6472,-1.850486 0.84375,-2.625 0.13076,-0.515273 0.51747,-1.974555 0.875,-3.0625 0.67394,-2.050835 0.8347,-2.731443 0.84375,-5.5625 l 0,-1.46875 c 0.6165,-0.241375 1.74293,-0.625527 3.65625,-1.15625 0.0822,0.136959 0.12035,0.292519 0.21875,0.46875 0.40154,0.719113 0.90847,1.561299 1.46875,2.46875 1.12057,1.814901 2.40627,3.769249 3.34375,5 0.42418,0.556884 0.99946,1.434219 0.875,1.21875 0.5092,0.881533 1.28315,1.723844 2.25,2.21875 0.96685,0.494906 2.01532,0.681096 3.25,0.8125 0.10572,0.01125 1.10257,0.203033 1.71875,0.34375 0.97907,0.223593 2.65832,0.423919 4.3125,0.59375 2.38316,0.244675 5.30561,0.673178 6.5625,0.90625 0.0638,0.03075 0.20523,0.09125 0.3125,0.1875 0.0214,0.01925 0.0105,0.0096 0.0312,0.03125 -0.31478,0.248311 -0.66887,0.569165 -0.875,1.03125 C 149.52806,77.161312 149.5,77.622111 149.5,78 c 0,0.35014 0.009,0.774352 0.25,1.375 0.24116,0.600648 0.85255,1.228237 1.40625,1.46875 1.10741,0.481027 1.85212,0.369864 3.125,0.375 1.04982,0.0042 1.58838,0.0037 2.28125,-0.125 0.69287,-0.128654 1.52161,-0.67607 1.78125,-0.9375 0.24002,-0.241668 0.87195,-1.253544 0.96875,-2 0.0968,-0.746456 0.0992,-1.569757 0.125,-3.25 0.0308,-2.009092 0.26867,-2.957147 -0.34375,-4.375 -0.30621,-0.708927 -1.10944,-1.391792 -1.71875,-1.625 -0.60931,-0.233208 -1.04467,-0.26716 -1.53125,-0.34375 -0.42749,-0.06729 -1.4697,-0.390601 -2.8125,-1.03125 -0.63087,-0.300988 -1.28039,-0.593356 -1.8125,-0.8125 -0.53211,-0.219144 -0.69382,-0.364315 -1.40625,-0.5 0.23277,0.04435 -0.30046,-0.08655 -0.78125,-0.3125 -0.48079,-0.225953 -1.0463,-0.541253 -1.5625,-0.84375 -0.37838,-0.221718 -0.61552,-0.307393 -1,-0.46875 -0.38448,-0.161357 -0.84677,-0.340919 -1.28125,-0.5 -1.35395,-0.495713 -2.35396,-0.639351 -3.8125,-0.59375 -0.27939,0.0087 -0.5021,0.0471 -0.75,0.0625 -0.0681,-0.222337 -0.0667,-0.227025 -0.15625,-0.53125 -0.17302,-0.587511 -0.51109,-1.709675 -0.75,-2.5 -0.21901,-0.724548 -0.47003,-1.779376 -0.5,-1.96875 -0.0488,-0.308095 -0.11342,-0.604922 -0.1875,-0.875 -0.037,-0.135039 -0.0714,-0.260875 -0.125,-0.40625 -0.0129,-0.03504 -0.0833,-0.121011 -0.0937,-0.15625 0.005,0.01522 -0.0169,-0.05565 -0.0312,-0.125 -0.0287,-0.138705 -0.0663,-0.366544 -0.0937,-0.59375 -0.0114,-0.09449 0.004,-0.0722 0,-0.125 0.008,5.24e-4 -0.0848,0.138784 0.125,-0.09375 1.29542,-1.435621 2.0024,-3.163683 2,-5.03125 -0.002,-1.252494 -0.33443,-2.361965 -0.84375,-3.25 -0.3205,-0.558805 -0.82076,-1.2255 -1.59375,-1.90625 -0.34521,-0.304017 -1.21232,-0.979109 -1.75,-1.40625 0.0577,0.02819 0.11609,0.05554 0.21875,0.09375 0.0387,0.01442 0.19926,0.04217 0.25,0.0625 2.9e-4,1e-4 0.073,0.02638 0.15625,0.0625 0.1665,0.07224 0.40733,0.20189 0.6875,0.34375 0.56033,0.283719 1.24521,0.650964 1.59375,0.875 0.39378,0.253112 1.44706,1.044512 2.09375,1.5625 0.77257,0.618826 1.36551,1.094611 2.34375,1.34375 0.92149,0.234684 2.17296,-0.247314 2.8125,-0.84375 0.006,-0.0054 0.0256,0.0054 0.0312,0 0.39895,0.129493 0.81056,0.373228 1.125,0.3125 1.02894,-0.198722 1.55096,-0.871667 1.8125,-1.65625 0.0696,-0.208808 0.0406,-0.445726 0.0312,-0.6875 0.052,-0.05595 0.10431,-0.09724 0.15625,-0.15625 a 2.022986,2.022986 0 0 0 0,-0.03125 l 0.0937,-0.125 1.75,0 c 0.76203,0 1.47688,-0.03118 2.03125,-0.0625 0.27718,-0.01566 0.48714,-0.03282 0.71875,-0.0625 0.1158,-0.01484 0.23286,-0.02002 0.40625,-0.0625 0.0867,-0.02124 0.19649,-0.04849 0.375,-0.125 0.17851,-0.07651 0.496,-0.09742 0.9375,-0.8125 0.57056,-0.923056 0.31618,-1.051543 0.3125,-1.25 -0.004,-0.198457 -0.01,-0.346189 -0.0312,-0.5 -0.0431,-0.307623 -0.10111,-0.602582 -0.1875,-0.9375 -0.16799,-0.651237 -0.24504,-1.034414 -0.25,-1.125 -0.005,-0.09059 -0.0238,0.100637 0.0312,-0.03125 0.41217,-0.987174 0.36967,-1.811966 0.28125,-2.9375 -0.1236,-1.573811 -0.23132,-4.662692 -0.25,-7.5 -0.0187,-2.837308 0.0878,-5.771995 0.125,-6.03125 0.10963,-0.764817 0.19635,-1.207039 0.15625,-1.84375 -0.0401,-0.636711 -0.38463,-1.379 -0.59375,-1.6875 0.25829,0.38105 -0.0629,-0.254297 -0.0937,-0.625 a 2.022986,2.022986 0 0 0 -0.0312,-0.03125 c 0.36583,-0.360084 0.65625,-1.032212 0.65625,-1.5625 0,-0.661271 -0.46816,-1.353388 -0.8125,-1.625 -0.34434,-0.271612 -0.57516,-0.35345 -0.75,-0.40625 -0.34969,-0.105599 -0.52704,-0.102157 -0.78125,-0.125 -0.50842,-0.04569 -1.17976,-0.0773 -2.28125,-0.09375 -2.20298,-0.0329 -6.07943,-0.03125 -12.90625,-0.03125 -8.52535,0 -18.64217,0.01546 -22.5625,0.0625 -3.34162,0.0401 -5.11326,0.06059 -5.96875,0.03125 -0.42775,-0.01467 -0.62731,-0.06383 -0.5,-0.03125 0.12731,0.03258 0.71269,0.457245 0.8125,0.59375 -0.42253,-0.577837 -1.19964,-0.953799 -1.71875,-1.0625 -0.51911,-0.108701 -0.98393,-0.149166 -1.65625,-0.1875 l -1.625,-0.09375 a 2.022986,2.022986 0 0 0 -0.21875,0 z m 43.6875,2.3125 c 0.0617,0.06172 0.14437,0.15306 0.28125,0.40625 0.009,0.01695 -0.009,0.0745 0,0.09375 -0.073,-0.151634 -0.0383,-0.256992 -0.28125,-0.5 z m -1.3125,0.1875 c -0.32155,0.38744 -0.25574,0.559406 -0.3125,0.8125 0.0863,-0.568242 0.27741,-0.770217 0.3125,-0.8125 z m 3.84375,0.375 c 0.16199,0.09987 0.32666,0.224095 0.59375,0.65625 0.20997,0.339767 0.34796,0.933726 0.25,1.4375 -0.098,0.503774 -0.34781,0.813419 -0.53125,1 -0.2298,0.233739 -0.29428,0.23166 -0.40625,0.28125 -0.006,0.0026 -0.0256,-0.0024 -0.0312,0 -0.0307,-0.01956 -0.0267,-0.0061 -0.0625,-0.03125 -0.25076,-0.17625 -0.84375,-0.687191 -0.84375,-1.625 0,-0.0265 0.0302,-0.03658 0.0312,-0.0625 0.0321,-0.808977 0.52461,-1.344931 0.78125,-1.53125 0.11919,-0.08653 0.14492,-0.08919 0.21875,-0.125 z m -6.09375,0.1875 c 0.25089,0.196176 0.75,0.732857 0.75,1.5625 0,0.829643 -0.49911,1.366324 -0.75,1.5625 -0.008,-0.0062 -0.0227,-0.0244 -0.0312,-0.03125 -0.26535,-0.212485 -0.75,-0.704346 -0.75,-1.53125 0,-0.826887 0.48465,-1.318762 0.75,-1.53125 0.009,-0.0068 0.0232,-0.02502 0.0312,-0.03125 z M 112.8125,19 c 0.0789,0.055 0.1301,0.06472 0.28125,0.28125 0.10938,0.156702 0.25792,0.426298 0.3125,0.875 0.004,0.03354 0.0284,0.02655 0.0312,0.0625 0.0406,0.516953 -0.27467,1.318402 -0.71875,1.6875 -0.0256,0.02129 -0.007,0.0122 -0.0312,0.03125 -0.13535,-0.110624 -0.24518,-0.131675 -0.40625,-0.4375 -0.0164,-0.03113 0.0142,-0.09025 0,-0.125 -0.17393,-0.426168 -0.0989,-1.040391 0.0625,-1.53125 0.0751,-0.02199 0.1208,-0.05556 0.15625,-0.0625 0.0964,-0.01886 0.14305,-0.0299 0.15625,-0.03125 0.0278,-0.0028 -0.25642,-0.0017 -0.3125,0 0.0297,-0.076 -0.0387,-0.187423 0,-0.25 0.20397,-0.33006 0.32705,-0.37706 0.46875,-0.5 z m 15.34375,0.09375 c 0.19784,0.137298 0.38952,0.228067 0.53125,0.46875 0.24422,0.414737 0.25,0.73918 0.25,0.84375 0,0.159396 -0.0537,0.5427 -0.28125,0.90625 -0.0201,0.03217 -0.0408,0.03262 -0.0625,0.0625 -0.1313,-0.06528 -0.22359,-0.01914 -0.34375,-0.125 -0.38534,-0.339486 -0.44767,-0.631241 -0.5,-0.84375 -0.0112,-0.04535 -0.0883,-0.157675 -0.0937,-0.1875 -0.0309,-0.169594 -0.0312,-0.173461 -0.0312,-0.125 0,-0.09381 0.0192,-0.448866 0.28125,-0.8125 0.0814,-0.112912 0.15362,-0.108922 0.25,-0.1875 z m 9.03125,0 c 0.0558,0.05553 0.0691,0.02203 0.125,0.09375 0.36028,0.462449 0.34284,0.877098 0.34375,0.96875 6e-5,0.0062 0.0312,0.05996 0.0312,0.0625 0,0.23462 -0.34509,0.453193 -0.5625,0.75 -0.081,-0.116997 -0.24637,-0.214832 -0.28125,-0.3125 -0.11131,-0.311688 -0.0978,-0.39773 -0.0937,-0.4375 5.6e-4,-0.0055 0,-0.0604 0,-0.0625 0,-0.509956 0.19286,-0.826301 0.4375,-1.0625 z m -17.125,0.53125 c 0.0328,0.07219 0.0684,0.115616 0.0937,0.1875 0.18386,-0.04512 0.0521,-0.0044 0.0312,0 0.036,0.0068 0.1474,0.07057 0.21875,0.09375 0.0713,0.02318 0.0702,0.01306 0.21875,0.09375 0.12453,0.06764 0.34703,0.2524 0.5625,0.5 0.0572,0.06578 0.0948,0.03412 0.15625,0.125 0.0731,0.108244 0.18776,0.406914 0.1875,0.40625 -2.6e-4,-6.64e-4 0.12508,0.500668 0.125,0.5 -1.2e-4,-0.0011 -0.086,0.589535 -0.125,0.84375 -0.29959,-0.215738 -0.60981,-0.414214 -0.9375,-0.5625 -0.14296,-0.06469 -0.25893,-0.197919 -0.40625,-0.25 -0.0298,-0.01054 -0.0638,-0.02123 -0.0937,-0.03125 -0.089,-0.116239 -0.11313,-0.253603 -0.1875,-0.40625 -0.0655,0.112707 -0.11101,0.183182 -0.1875,0.28125 -0.3141,-0.08052 -0.64258,-0.03478 -0.96875,-0.0625 0.008,-0.09312 0.0314,-0.25032 0.0312,-0.25 -2.4e-4,6.59e-4 0.11685,-0.294359 0.1875,-0.40625 0.0707,-0.111891 0.14977,-0.205407 0.21875,-0.28125 0.13796,-0.151687 0.27511,-0.244993 0.375,-0.3125 0.21243,-0.143566 0.22029,-0.126259 0.3125,-0.15625 0.0503,-0.125184 0.11902,-0.195323 0.1875,-0.3125 z m 8.65625,5.375 0.59375,0 c 1.42578,0.01682 4.07653,0.03896 5.90625,0.03125 1.79619,-0.0075 6.38861,-0.01517 10.15625,0 l 5.125,0.03125 c 0.0392,0.224948 0.0592,0.421265 0.0937,0.625 -0.0301,-0.177829 0.10018,0.992185 0.15625,2.28125 0.0561,1.289065 0.0886,2.936547 0.125,4.625 0.0537,2.486719 0.0695,3.545833 0.0625,4.375 -0.12057,0.0044 -0.18079,-0.0045 -0.3125,0 -1.13512,0.03895 -2.66577,0.05976 -4.3125,0.09375 -1.66851,0.03442 -3.22298,0.104125 -4.375,0.15625 -0.57601,0.02606 -1.03937,0.03459 -1.40625,0.0625 -0.0917,0.007 -0.16969,0.02372 -0.25,0.03125 -2.29386,-1.532879 -3.50217,-2.225652 -4.96875,-2.90625 -2.86656,-1.330288 -5.19068,-2.304033 -6.75,-2.78125 l 0.0312,-2.25 a 2.022986,2.022986 0 0 0 0,-0.03125 c 0.01,-1.802768 0.0853,-3.534196 0.125,-4.34375 z M 113.75,33.125 c -0.12151,-8.11e-4 0.39078,0.01751 0.78125,0.40625 0.2675,0.266319 0.19682,0.220572 0.1875,0.21875 -3.6e-4,0.02514 0.005,0.08177 0,0.125 -0.007,0.05583 -0.004,0.04795 -0.0312,0.15625 -0.0326,0.129258 -0.0591,0.331769 -0.28125,0.65625 -0.0555,0.08112 -0.21919,0.250448 -0.21875,0.25 4.4e-4,-4.48e-4 -0.34421,0.28155 -0.34375,0.28125 9.3e-4,-6.01e-4 -1.0948,0.34375 -1.09375,0.34375 5.2e-4,0 -0.37705,-0.03036 -0.5,-0.0625 -0.0697,-0.01821 -0.1062,-0.04426 -0.15625,-0.0625 -0.065,-0.291693 -0.1471,-0.723831 0.125,-1.25 0.30648,-0.592662 0.85971,-0.88069 1.125,-0.96875 0.53058,-0.17612 0.47363,-0.09324 0.40625,-0.09375 z m 1.90625,0.125 c 0.0166,0.109702 0.0973,0.260558 0.25,0.46875 0.0803,0.109508 -0.0276,0.09736 0.125,0.25 -0.16221,-0.162166 -0.0966,-0.127656 -0.15625,-0.21875 -0.11203,-0.171017 -0.23284,-0.387595 -0.25,-0.4375 -0.006,0.02018 0.038,-0.07165 0.0312,-0.0625 z m 11,3.125 c 0.0462,0.0074 0.19424,0.082 0.25,0.09375 -0.0678,-0.0016 -0.15017,-0.0016 -0.21875,0 -0.014,-0.03166 -0.0163,-0.06286 -0.0312,-0.09375 z m -4.5625,2.03125 c 0.0794,0 0.35642,0.04487 0.6875,0.25 -0.23422,-0.08222 -0.45527,-0.25 -0.6875,-0.25 z m 21.25,0.96875 c 0.018,0.02481 0.0112,0.0323 0.0312,0.0625 0.0449,0.06781 0.10443,0.168003 0.15625,0.28125 0.0158,0.03447 0.0155,0.05335 0.0312,0.09375 0.0337,0.08657 0.0679,0.191552 0.0937,0.3125 0.0259,0.120948 0.0625,0.406973 0.0625,0.40625 0,0.594932 -0.3007,1.01609 -0.53125,1.28125 -0.0957,-0.04993 -0.1805,-0.110738 -0.28125,-0.15625 -0.2176,-0.0983 -0.55078,-0.196269 -0.9375,-0.25 -0.008,-0.01416 -0.0236,-0.01715 -0.0312,-0.03125 -0.002,0.01638 0.24801,0.04337 0.21875,0.03125 -0.0454,-0.01881 -0.17806,-0.04469 -0.28125,-0.09375 -0.0826,-0.16625 -0.26801,-0.319435 -0.28125,-0.4375 -0.0441,-0.393593 -0.0174,-0.41639 -0.0312,-0.34375 0.0103,-0.05379 0.0195,-0.106192 0.0937,-0.25 0.0371,-0.0719 0.0716,-0.153044 0.25,-0.34375 0.16156,-0.172721 0.58782,-0.566351 1.4375,-0.5625 z m 2.71875,0.65625 c 0.0694,0.06444 0.0709,-0.0048 0.15625,0.09375 0.11311,0.130648 0.34404,0.531948 0.34375,0.53125 -2.9e-4,-6.98e-4 0.15623,0.844449 0.15625,0.84375 2e-5,-6.99e-4 -0.21909,0.813202 -0.21875,0.8125 3.4e-4,-7.02e-4 -0.20601,0.352775 -0.3125,0.46875 -0.14478,0.157673 -0.15329,0.117709 -0.25,0.1875 -0.17946,-0.173266 -0.38445,-0.399051 -0.53125,-0.9375 -0.17533,-0.643105 0.10955,-1.463612 0.40625,-1.8125 0.11238,-0.132147 0.16006,-0.11691 0.25,-0.1875 z m 2.90625,0.03125 c 0.13021,0 0.28098,0.01186 0.59375,0.15625 0.16832,0.0777 0.44681,0.272254 0.6875,0.59375 0.0581,0.07759 0.0764,0.218978 0.125,0.3125 -0.0138,0.20435 0.0274,0.361848 -0.21875,0.71875 -0.36289,0.526137 -0.95295,0.743286 -1.15625,0.78125 -0.2033,0.03796 -0.2038,0.03125 -0.125,0.03125 0.044,0 3.8e-4,0.01757 -0.28125,-0.0625 -0.28163,-0.08007 -0.83819,-0.438709 -1.0625,-0.8125 -0.44863,-0.747582 -0.21875,-0.706612 -0.21875,-0.40625 0,0.22489 -0.13318,0.221428 0.1875,-0.375 0.16034,-0.298214 0.56772,-0.676076 0.90625,-0.8125 0.33853,-0.136424 0.51523,-0.125 0.5625,-0.125 z m -27.53125,0.65625 c 0.17308,0.106891 0.37441,0.09681 0.5625,0.15625 -0.0324,-0.0042 -0.0978,0.03775 -0.125,0.03125 -0.36745,-0.08793 -0.43022,-0.182985 -0.4375,-0.1875 z m 3.40625,0.65625 c 0.4224,0.538929 0.94253,1.102445 1.53125,1.71875 1.23457,1.292409 2.73004,2.693869 4.0625,3.6875 0.0385,0.02867 0.0856,0.06467 0.125,0.09375 -0.43113,-0.0227 -0.89262,-0.04713 -1.5,-0.03125 -1.09224,0.02859 -1.10279,0.07897 -1.71875,-0.09375 -0.61596,-0.172725 -1.87826,-0.660289 -4.59375,-1.71875 -0.85917,-0.334894 -2.26919,-0.86694 -3.09375,-1.1875 -0.13761,-0.0535 -0.21681,-0.103259 -0.34375,-0.15625 3.4e-4,-0.08436 -7.8e-4,-0.127366 0,-0.21875 5.8e-4,-0.06821 -8.2e-4,-0.178228 0,-0.25 0.13134,0.09616 0.20682,0.21945 0.375,0.3125 0.67169,0.371626 1.42689,0.40625 1.90625,0.40625 0.74445,0 1.51376,0.04901 2.4375,-0.75 0.46187,-0.399507 0.80829,-1.117765 0.84375,-1.71875 0.002,-0.04109 -0.0319,-0.05411 -0.0312,-0.09375 z m 8.3125,7.28125 c 0.34781,0.223781 0.69266,0.432536 0.96875,0.59375 0.16018,0.09353 0.30936,0.170905 0.46875,0.25 0.069,0.03425 0.15132,0.05409 0.25,0.09375 0.0153,0.0061 0.0145,0.02482 0.0312,0.03125 0.0522,0.05252 0.0563,0.106644 0.125,0.1875 0.24478,0.28827 0.51439,0.756647 0.5,0.71875 0.25474,0.670868 0.22935,-0.01798 0.0625,0.78125 -0.16959,0.812289 -0.5978,1.269477 -1,1.46875 -0.14824,0.07344 -1.43594,0.595062 -2.375,0.875 -1.56717,0.467185 -2.78593,0.853155 -3.6875,1.15625 -0.90157,0.303095 -1.28814,0.319378 -2.0625,0.84375 -0.36685,0.02453 -0.66646,0.0303 -1.1875,0.3125 0.20156,-0.109119 -0.0496,0.02575 -0.59375,0.1875 -0.54413,0.161755 -1.42759,0.421179 -2.75,0.78125 -0.87819,0.239115 -1.65352,0.576555 -2.40625,0.90625 0.14336,-0.113271 0.31142,-0.280698 0.4375,-0.375 0.20327,-0.152048 1.11411,-0.838932 1.9375,-1.46875 1.80725,-1.382382 3.73938,-2.436055 3.9375,-2.5 0.6372,-0.205665 1.12186,-0.425417 1.71875,-0.84375 0.1997,-0.139959 1.31757,-0.582937 2.4375,-0.75 0.73246,-0.10926 1.31288,-0.210586 2,-0.59375 0.34356,-0.191582 0.77521,-0.48807 1.09375,-1.15625 0.21192,-0.444517 0.20218,-0.996365 0.0937,-1.5 z m 0.625,10.40625 c 0.0848,0.267077 0.1232,0.531979 0.21875,0.8125 0.33574,0.985687 0.81125,2.493821 1.21875,3.8125 0.4075,1.318679 0.79869,2.712279 0.78125,2.625 0.0381,0.190604 0.0842,0.31219 0.125,0.46875 -0.38391,-0.503917 -0.83028,-1.076698 -1.25,-1.6875 -0.26795,-0.389934 -0.49984,-0.751497 -0.65625,-1 -0.0612,-0.09729 -0.0984,-0.172865 -0.125,-0.21875 -0.026,-0.05831 -0.0397,-0.07785 -0.0312,-0.0625 -0.0502,-0.121238 -0.0584,-0.184911 -0.0937,-0.25 -0.0708,-0.130177 -0.15081,-0.239959 -0.21875,-0.34375 -0.13587,-0.207582 -0.2951,-0.431705 -0.46875,-0.65625 -0.14666,-0.189651 -0.51669,-0.855131 -0.5,-0.8125 -0.2414,-0.616715 -0.62481,-1.285967 -1.03125,-2 0.25312,-0.08739 0.45047,-0.159309 0.71875,-0.25 0.45893,-0.155143 0.87551,-0.295028 1.3125,-0.4375 z m -16.5625,0.71875 c -0.21565,0.657989 -0.23955,1.138422 -0.21875,1.5625 0.0359,0.732166 0.18,1.589249 0.3125,2.25 0.0975,0.486457 0.11008,0.777374 -0.0312,1.5625 -0.0588,0.32636 -0.33817,1.106688 -0.46875,1.59375 0.0344,-2.112014 0.0792,-3.995772 0.125,-5.21875 0.026,-0.695663 0.0676,-1.240387 0.0937,-1.59375 0.0457,-0.04514 0.13391,-0.104834 0.1875,-0.15625 z m 21.8125,3.9375 c 0.0723,-0.01312 0.12999,0.01622 0.1875,0.03125 -0.13256,0.01923 -0.24664,-0.190857 -0.9375,0.5 0.39448,-0.394481 0.60635,-0.505193 0.75,-0.53125 z m 16.84375,14.6875 c -0.16645,0.293309 -0.42013,0.536927 -0.8125,0.6875 0.34715,-0.133198 0.57525,-0.419137 0.8125,-0.6875 z"
       id="path4616"
       style="opacity:0.05;color:#000000;fill:#000000;fill-opacity:1;fill-rule:nonzero;stroke-width:0.18230657;stroke-linecap:butt;stroke-linejoin:miter;stroke-miterlimit:4;stroke-opacity:1;stroke-dasharray:none;stroke-dashoffset:0;marker:none;visibility:visible;display:inline;overflow:visible;enable-background:new" />
    <path
       d="M 105.46875,16.59375 A 1.0248081,1.0248081 0 0 0 104.8125,16.875 l -0.625,0.5625 -0.625,0.5625 a 1.0248081,1.0248081 0 0 0 -0.34375,0.84375 l 0.125,1.5 c 0.0728,0.872775 0.21711,1.815898 0.375,2.40625 0.0704,0.26303 0.0839,0.39745 0.0625,0.75 -0.0214,0.35255 -0.0816,0.91186 -0.25,1.84375 -0.22179,1.227362 -0.49243,2.672445 -0.59375,3.25 -0.0815,0.464379 -0.0977,1.092802 -0.125,1.96875 -0.0273,0.875948 -0.0627,1.934146 -0.0625,2.96875 3.1e-4,1.68815 0.0108,2.644284 0.0625,3.3125 0.0517,0.668216 0.22013,1.174756 0.4375,1.53125 0.30505,0.50029 0.74898,0.992996 1.375,1.3125 0.62602,0.319504 1.40235,0.551077 2.625,0.875 1.94895,0.516348 2.76257,0.615101 5.46875,0.6875 l 2.0625,0.0625 0,1.28125 c 0.001,1.197431 -0.004,1.885183 0.125,2.5 0.1289,0.614817 0.65974,1.171812 1.0625,1.40625 1.94667,1.133126 3.25873,1.729772 7.40625,3.3125 -0.26753,0.167531 -0.56036,0.343143 -0.8125,0.53125 -0.56224,0.419456 -1.87284,1.322052 -2.84375,2 -1.20439,0.84097 -2.8155,2.177935 -4.1875,3.375 -0.686,0.598533 -1.31357,1.165061 -1.78125,1.625 -0.23384,0.229969 -0.43373,0.408299 -0.59375,0.59375 -0.08,0.09273 -0.14812,0.178195 -0.21875,0.28125 -0.0706,0.103055 -0.15392,0.207409 -0.21875,0.53125 -0.25255,1.261867 -0.32253,2.49762 -0.34375,9.125 l -0.0312,6.875 -0.15625,0.15625 c -0.0498,0.04965 -0.52704,0.400495 -1.09375,0.75 -0.56671,0.349505 -1.27156,0.752901 -1.96875,1.125 -0.69719,0.372099 -1.39212,0.724092 -1.9375,0.96875 -0.27269,0.122329 -0.49099,0.191303 -0.65625,0.25 -0.16526,0.0587 -0.33665,0.0625 -0.125,0.0625 -0.60735,0 -1.08308,0.238448 -1.5,0.53125 C 104.48933,78.886552 104,79.232229 104,80.0625 c 0,0.73598 0.46879,1.441993 1.0625,1.8125 0.59371,0.370507 1.2984,0.548871 2.125,0.625 2.02867,0.186972 2.30004,0.189204 3.96875,0 0.82252,-0.09326 2.52062,-0.242441 3.71875,-0.34375 0.9846,-0.08325 1.56408,-0.15327 2.0625,-0.28125 0.49842,-0.12798 0.92995,-0.429955 1.1875,-0.6875 0.23569,-0.235522 0.54543,-0.594648 0.65625,-1.03125 0.11082,-0.436602 0.0849,-0.796117 0.0625,-1.34375 -0.0545,-1.336013 -0.0719,-2.056812 -0.0312,-2.53125 0.0406,-0.474438 0.11733,-0.753595 0.34375,-1.40625 0.26598,-0.766702 0.6376,-1.8733 0.8125,-2.5625 0.14157,-0.557873 0.53816,-2.004916 0.90625,-3.125 0.67506,-2.054242 0.77222,-2.426821 0.78125,-5.25 l 0,-2.1875 0.1875,-0.09375 c 0.7121,-0.30456 2.0366,-0.708944 4.59375,-1.40625 l 0.40625,-0.125 c 0.14882,0.35231 0.25983,0.67017 0.53125,1.15625 0.39063,0.69958 0.91417,1.57054 1.46875,2.46875 1.10916,1.79642 2.38994,3.736108 3.28125,4.90625 0.43611,0.572538 0.97575,1.324622 0.96875,1.3125 0.44059,0.762766 1.04746,1.404898 1.84375,1.8125 0.79629,0.407602 1.73118,0.624941 2.90625,0.75 0.25145,0.02676 1.17877,0.199025 1.8125,0.34375 0.81756,0.186709 2.58918,0.426446 4.21875,0.59375 2.49888,0.256555 5.62251,0.660937 6.875,0.90625 -0.14248,-0.02791 0.2734,0.14685 0.5625,0.40625 0.2891,0.2594 0.54508,0.645433 0.5625,0.6875 0.061,0.147206 0.0255,0.08876 0.0312,0.03125 0.006,-0.05751 0.009,-0.01064 -0.0937,0.1875 -0.0541,0.104612 -0.44475,0.525226 -0.40625,0.5 -0.26208,0.171726 -0.55802,0.452194 -0.71875,0.8125 -0.16073,0.360306 -0.1875,0.678069 -0.1875,1 0,0.307201 0.002,0.616834 0.15625,1 0.15384,0.383166 0.53257,0.775184 0.90625,0.9375 0.74736,0.324633 1.4625,0.276181 2.71875,0.28125 1.0432,0.0042 1.60477,0.0028 2.125,-0.09375 0.52023,-0.0966 0.98031,-0.447418 1.21875,-0.6875 0.23147,-0.233054 0.60743,-0.788824 0.6875,-1.40625 0.0801,-0.617426 0.0993,-1.445013 0.125,-3.125 0.0308,-2.01089 0.14331,-3.017065 -0.28125,-4 -0.21228,-0.491468 -0.68193,-0.89292 -1.125,-1.0625 -0.44307,-0.16958 -0.85571,-0.204431 -1.34375,-0.28125 -0.61072,-0.09613 -1.70462,-0.493495 -3.09375,-1.15625 -0.61335,-0.292631 -1.2372,-0.53881 -1.75,-0.75 -0.5128,-0.21119 -0.7831,-0.35453 -1.21875,-0.4375 -0.006,-0.0012 -0.48818,-0.165711 -1,-0.40625 -0.51182,-0.240539 -1.11158,-0.555819 -1.65625,-0.875 -0.25353,-0.148558 -0.53742,-0.251458 -0.90625,-0.40625 -0.36883,-0.154792 -0.80075,-0.346954 -1.21875,-0.5 -1.31238,-0.480494 -2.00739,-0.575962 -3.4375,-0.53125 -0.45996,0.01439 -0.87834,0.03168 -1.21875,0.0625 -0.0907,0.0082 -0.17113,0.02189 -0.25,0.03125 -0.0994,-0.293387 -0.23095,-0.579876 -0.4375,-1.28125 -0.16779,-0.569728 -0.50933,-1.672595 -0.75,-2.46875 -0.23059,-0.762838 -0.48084,-1.806432 -0.53125,-2.125 -0.0423,-0.267393 -0.0932,-0.519988 -0.15625,-0.75 -0.0316,-0.115006 -0.0546,-0.237476 -0.0937,-0.34375 -0.0214,-0.05801 -0.092,-0.14947 -0.125,-0.21875 0.001,0.0038 -0.002,-0.03432 0,-0.03125 -0.009,-0.03465 -0.0159,-0.08237 -0.0312,-0.15625 -0.0365,-0.176362 -0.0633,-0.435592 -0.0937,-0.6875 -0.0587,-0.485755 -0.0436,-0.553567 -0.0625,-0.5 -0.0189,0.05357 0.0454,-0.100077 0.40625,-0.5 1.20535,-1.335797 1.7522,-2.660914 1.75,-4.375 -0.002,-1.191935 -0.23485,-1.906291 -0.71875,-2.75 -0.29459,-0.51362 -0.64934,-1.017186 -1.375,-1.65625 -0.72566,-0.639064 -1.84975,-1.507411 -3.90625,-3.09375 -1.49052,-1.149746 -2.44155,-1.943975 -3.28125,-2.65625 2.29437,0.425111 4.24042,1.083127 5.71875,2.1875 0.18828,0.140649 0.39646,0.274819 0.5625,0.375 0.083,0.05009 0.13241,0.08244 0.21875,0.125 0.0432,0.02128 0.09,0.03785 0.15625,0.0625 0.0409,0.01523 0.16399,0.04606 0.25,0.0625 0.0384,0.01333 0.1211,0.05138 0.21875,0.09375 0.1953,0.08474 0.4574,0.226846 0.75,0.375 0.5852,0.296309 1.25377,0.678787 1.65625,0.9375 0.46627,0.29971 1.51358,1.053952 2.1875,1.59375 0.73309,0.5872 1.27652,0.979953 1.96875,1.15625 0.69223,0.176297 1.53443,-0.145079 1.96875,-0.625 0.0436,-0.04821 0.0942,-0.09969 0.125,-0.125 0.0484,-0.02597 0.18005,-0.04185 0.21875,-0.0625 0.0669,-0.03568 0.10236,-0.08952 0.15625,-0.125 0.0348,0.04002 0.0207,0.08905 0.0625,0.125 0.30985,0.266202 0.71201,0.336869 1,0.28125 0.57597,-0.111239 0.90221,-0.519149 1.0625,-1 0.0741,-0.222418 -0.0787,-0.442365 -0.15625,-0.6875 0.1694,-0.154945 0.36092,-0.306493 0.53125,-0.5 a 1.0248081,1.0248081 0 0 0 0,-0.03125 l 0.40625,-0.46875 2.1875,0 c 0.74633,0 1.44209,-0.03274 1.96875,-0.0625 0.26333,-0.01488 0.46676,-0.03822 0.65625,-0.0625 0.0947,-0.01214 0.17279,-0.0047 0.28125,-0.03125 0.0542,-0.01329 0.12222,-0.02113 0.21875,-0.0625 0.0965,-0.04137 0.27468,-0.07256 0.5,-0.4375 0.29569,-0.47837 0.15873,-0.553699 0.15625,-0.6875 -0.002,-0.133801 -0.0133,-0.247021 -0.0312,-0.375 -0.0358,-0.255959 -0.0782,-0.541014 -0.15625,-0.84375 -0.17254,-0.66891 -0.26904,-1.089337 -0.28125,-1.3125 -0.0122,-0.223163 0.001,-0.247333 0.0937,-0.46875 0.2857,-0.684263 0.30213,-1.438676 0.21875,-2.5 -0.12852,-1.636447 -0.23123,-4.711091 -0.25,-7.5625 -0.0188,-2.851409 0.0493,-5.627988 0.125,-6.15625 0.10833,-0.755789 0.18544,-1.19279 0.15625,-1.65625 -0.0292,-0.46346 -0.25258,-0.914709 -0.4375,-1.1875 0.0316,0.0466 -0.20811,-0.622019 -0.25,-1.125 L 154.6875,19.625 c 0.1052,-0.05422 0.19927,-0.07605 0.3125,-0.1875 0.20482,-0.201604 0.375,-0.581489 0.375,-0.875 0,-0.342418 -0.22349,-0.699594 -0.40625,-0.84375 -0.18276,-0.144156 -0.32989,-0.186253 -0.4375,-0.21875 -0.21523,-0.06499 -0.36962,-0.07361 -0.59375,-0.09375 -0.44826,-0.04028 -1.12579,-0.07743 -2.21875,-0.09375 -2.18592,-0.03264 -6.0484,-0.03125 -12.875,-0.03125 -8.5241,0 -18.629,0.01568 -22.53125,0.0625 -3.34256,0.04011 -5.12253,0.06241 -6.03125,0.03125 -0.45436,-0.01558 -0.69742,-0.05704 -0.71875,-0.0625 -0.0213,-0.0055 0.22793,0.188574 0.25,0.21875 -0.26201,-0.358307 -0.72282,-0.603284 -1.125,-0.6875 -0.40218,-0.08422 -0.83904,-0.118565 -1.5,-0.15625 l -1.625,-0.09375 a 1.0248081,1.0248081 0 0 0 -0.0937,0 z M 143,18.375 c -0.19146,0.07696 -0.25295,0.30158 -0.40625,0.4375 0.0155,-0.03259 -0.017,-0.10023 0,-0.125 0.25696,-0.375265 0.3704,-0.298089 0.40625,-0.3125 z m -2.4375,0.59375 c -0.003,-0.0063 0.0344,0.0099 0.0625,0.125 0.003,0.01126 -0.002,0.04853 0,0.0625 -0.0292,-0.06662 -0.0256,-0.116649 -0.0625,-0.1875 z m -8.71875,1.125 c 0.38561,0.02191 0.82553,0.06188 1.28125,0.0625 l 0.625,0 c -0.007,0.151594 0.0249,0.294894 0.0312,0.4375 -0.17626,-0.01374 -0.4495,-0.02363 -0.5,-0.03125 -0.21651,-0.03267 -0.79232,-0.159947 -1.25,-0.21875 -0.1031,-0.01325 -0.11007,-0.02137 -0.15625,-0.03125 0.004,-0.003 -0.0169,-0.164024 -0.0312,-0.21875 z m 9.09375,0.0625 c 0.26129,-0.0049 0.26978,-0.0023 0.6875,0 0.2238,0.0012 0.2582,-0.0042 0.4375,0 0.0185,0.06612 0.004,0.123695 0.0312,0.1875 -0.29104,-0.02337 -0.36228,-0.02187 -0.78125,-0.0625 L 140.96875,20.25 c -0.007,-0.0324 -0.0248,-0.06204 -0.0312,-0.09375 z m -16,0.21875 c 0.008,0.07705 0.0312,0.09528 0.0312,0.25 0,0.50984 -0.13436,0.707689 -0.0312,0.59375 -0.19046,0.210464 -0.3391,0.527965 -0.40625,0.8125 -0.0671,0.284535 -0.0978,0.574028 -0.125,1 -0.054,0.846154 -0.091,2.223707 -0.125,4.5625 -2.3e-4,0.01601 2.3e-4,0.01515 0,0.03125 l -0.0312,1.5625 c -0.0911,-0.450053 -0.0834,-0.790826 -0.1875,-1.21875 -0.51572,-2.119403 -0.64143,-2.963365 -0.65625,-4.5 -0.004,-0.423687 -0.045,-0.817393 -0.0937,-1.15625 -0.0244,-0.169428 -0.0524,-0.346364 -0.0937,-0.5 0.25786,-0.426386 0.34527,-0.86396 0.34375,-1.34375 L 124,20.4375 c 0.73418,-0.0688 0.91962,-0.0341 0.9375,-0.0625 z m -8.84375,0.125 0.0625,0 0.21875,0 0,0.0625 c -0.11696,-0.0027 -0.20785,-0.02745 -0.3125,-0.03125 2.5e-4,-0.01194 0.0311,-0.01922 0.0312,-0.03125 z m 3.78125,0.65625 c 0.12548,0.01028 0.16157,-0.01448 0.3125,0 0.10686,0.01025 0.0995,0.01878 0.21875,0.03125 0.05,0.0052 0.0482,-0.0055 0.0937,0 0.0368,0.05451 0.12526,0.188164 0.125,0.1875 -2.6e-4,-6.64e-4 0.0626,0.281918 0.0625,0.28125 -1.5e-4,-0.0013 -0.0944,0.501353 -0.0937,0.5 3e-4,-6.77e-4 -0.0578,0.137659 -0.0937,0.1875 -0.009,0.01246 -0.0224,0.01999 -0.0312,0.03125 -0.0267,0.03378 -0.0691,0.06908 -0.0937,0.09375 -0.0657,0.0658 -0.11138,0.09617 -0.15625,0.125 -0.004,-6.32e-4 -0.0268,8.3e-4 -0.0312,0 -0.0756,-0.014 -0.14292,0.03091 -0.34375,-0.25 -0.0343,-0.04802 -0.0631,-0.088 -0.0937,-0.15625 -0.0307,-0.06825 -0.0626,-0.250668 -0.0625,-0.25 2.4e-4,0.0013 0.0317,-0.532567 0.0312,-0.53125 -2.4e-4,6.59e-4 0.0582,-0.13114 0.0937,-0.1875 0.0156,-0.02474 0.0467,-0.04155 0.0625,-0.0625 z m 22.75,0.375 c 0.0771,0.148185 0.0181,0.299385 0.1875,0.46875 -0.0311,-0.03113 -0.14119,-0.08637 -0.21875,-0.40625 -0.005,-0.02009 0.0335,-0.04056 0.0312,-0.0625 z m -26.8125,0.0625 c 9e-5,-6.15e-4 -0.0111,0.1292 -0.0312,0.1875 -0.0202,0.0583 -0.0682,0.109894 -0.0937,0.15625 -0.051,0.09271 -0.10697,0.167404 -0.15625,0.21875 -0.0986,0.102693 -0.1643,0.156957 -0.21875,0.1875 0.38192,-0.214201 0.41834,-0.498334 0.5,-0.75 z m -4.78125,2.28125 c -0.18505,0.05586 -0.37102,0.07112 -0.59375,0.21875 -0.43019,0.285141 -0.66825,0.773944 -1,1.1875 0.0475,-0.421694 0.0756,-0.821069 0.15625,-1.375 0.0347,-0.01047 -0.0568,0.02304 0.125,0 0.16239,-0.02059 1.04201,-0.01507 1.3125,-0.03125 z M 127.75,23.96875 129.34375,24 c 1.42148,0.01676 4.05756,0.0389 5.875,0.03125 1.80046,-0.0076 6.38402,-0.01519 10.15625,0 l 5.96875,0.03125 c 0.0659,0.409498 0.16757,0.951005 0.25,1.4375 0.009,0.05028 0.0998,1.139159 0.15625,2.4375 0.0565,1.298341 0.0884,2.96071 0.125,4.65625 0.0644,2.985158 0.0893,4.531288 0.0625,5.28125 -8.9e-4,0.02489 0.001,0.0081 0,0.03125 -0.32942,0.01625 -0.74919,0.04424 -1.28125,0.0625 -1.14181,0.03918 -2.69322,0.05968 -4.34375,0.09375 -1.66156,0.03428 -3.17244,0.104666 -4.3125,0.15625 -0.57003,0.02579 -1.05782,0.03599 -1.40625,0.0625 -0.17421,0.01325 -0.31305,0.01546 -0.4375,0.03125 -0.042,0.0053 -0.0814,0.0237 -0.125,0.03125 -0.0516,-0.02676 -0.0775,-0.04087 -0.15625,-0.09375 -2.42627,-1.629282 -3.4888,-2.2507 -4.96875,-2.9375 -3.00784,-1.395855 -5.62862,-2.530232 -6.96875,-2.90625 l -0.375,-0.09375 0.0312,-2.96875 c 0.0114,-2.050884 0.0781,-4.37803 0.125,-5 l 0.0312,-0.375 z m -13.28125,3.6875 c 0.0292,0.142483 0.0521,0.302068 0.0937,0.40625 0.0644,0.161009 0.12421,0.346323 0.21875,0.53125 0.18908,0.369854 0.46427,0.787895 0.75,1.21875 0.40124,0.605052 0.59985,0.953074 0.6875,1.15625 0.0876,0.203176 0.0937,0.268426 0.0937,0.5625 0,0.272267 0.0338,0.543082 0.0625,0.78125 0.0143,0.119084 0.0303,0.216211 0.0625,0.34375 0.0235,0.09296 0.10017,0.262058 0.21875,0.4375 -0.013,-0.03359 -0.0917,-0.119151 -0.0937,-0.125 -0.004,-0.01267 -0.008,0.02081 0,0.0625 0.006,0.03007 -0.005,0.08367 0,0.125 -0.0479,0.03339 -0.11615,0.02283 -0.15625,0.0625 -0.10919,0.108031 -0.039,0.179864 -0.0937,0.28125 -0.12801,-0.02875 -0.25607,-0.05107 -0.28125,-0.0625 -0.009,-0.0039 -0.42103,-0.317293 -0.6875,-0.625 -0.13323,-0.153853 -0.2497,-0.301802 -0.3125,-0.40625 -0.0628,-0.104448 -0.0363,-0.214601 -0.0312,0.0625 -0.0103,-0.544702 -0.1461,-0.833281 -0.375,-1.25 0.026,-0.05589 0.0686,-0.07856 0.0937,-0.15625 0.0483,-0.149409 0.19274,-0.429116 -0.0625,-0.90625 -0.12062,-0.225475 -0.39054,-0.389335 -0.59375,-0.46875 -0.0274,-0.162842 -0.0517,-0.375668 -0.0625,-0.46875 0.0634,-0.107267 0.0901,-0.189123 0.125,-0.28125 0.0856,-0.226059 0.14474,-0.482399 0.1875,-0.75 0.0606,-0.378809 0.12919,-0.458171 0.15625,-0.53125 z m -8.5625,6.875 c 0.0275,0.22006 0.0593,0.473189 0.0937,0.65625 0.0327,0.173962 0.0728,0.33958 0.125,0.5 0.0522,0.16042 0.0677,0.31767 0.34375,0.59375 0.33183,0.331806 0.51817,0.325797 0.71875,0.375 0.20058,0.0492 0.41168,0.09874 0.65625,0.125 0.48914,0.05251 1.11425,0.07744 1.9375,0.09375 1.85338,0.03674 2.27326,0.109551 2.71875,0.3125 0.70583,0.321559 1.45576,0.425768 2.40625,0.34375 l 0,0.0625 0,0.28125 -1.125,0.03125 c -2.05372,0.02729 -3.45655,-0.138291 -5.1875,-0.65625 -0.57764,-0.172846 -1.51609,-0.444937 -2.15625,-0.59375 -0.4035,-0.0938 -0.43169,-0.107752 -0.4375,-0.09375 -0.0103,-0.03988 -0.0173,-0.03101 -0.0312,-0.09375 0.009,0.04109 -0.0575,-0.543952 -0.0625,-1.1875 -0.002,-0.214475 -0.002,-0.50624 0,-0.75 z m 20.65625,0.8125 c 0.50271,0.05286 1.23498,0.2715 2.46875,0.75 1.28038,0.496571 2.64764,1.058341 2.78125,1.125 0.34273,0.170977 1.20114,0.589549 1.96875,0.9375 0.0713,0.03231 0.44085,0.248026 0.5625,0.3125 -0.98726,-0.393726 -2.2124,-0.665216 -3.78125,-0.8125 -0.49657,-0.04662 -1.64118,-0.157691 -2.53125,-0.25 -0.89847,-0.0932 -1.45697,-0.147774 -2.09375,0.03125 0.001,-0.380113 -0.1077,-0.702873 -0.34375,-0.96875 0,-0.299731 -0.0906,-0.598261 -0.28125,-0.875 -0.0113,-0.01645 -0.0498,-0.0148 -0.0625,-0.03125 0.51486,-0.170741 0.87812,-0.264429 1.3125,-0.21875 z M 124.875,38.625 c -0.0235,0.13508 -0.0937,0.292304 -0.0937,0.40625 0,0.501223 0.17617,0.67105 0.3125,0.90625 0.13633,0.2352 0.3007,0.491958 0.5,0.75 0.39859,0.516084 0.89958,1.0902 1.5,1.71875 1.20084,1.2571 2.6808,2.625368 3.9375,3.5625 0.74188,0.553228 1.7199,1.223101 2.53125,1.75 0.40567,0.263449 0.76509,0.482583 1.0625,0.65625 0.14871,0.08683 0.28189,0.157038 0.40625,0.21875 0.0622,0.03086 0.1095,0.06381 0.1875,0.09375 0.078,0.02994 0.13215,0.09375 0.4375,0.09375 -0.51354,0 -0.37298,-0.1082 -0.28125,-0.03125 0.0917,0.07695 0.25662,0.23004 0.40625,0.40625 0.29926,0.35242 0.59059,0.858324 0.65625,1.03125 0.27402,0.721647 0.27044,0.46612 0.0937,1.3125 -0.22266,1.066494 -0.82031,1.835259 -1.53125,2.1875 -0.29666,0.146981 -1.53606,0.640829 -2.53125,0.9375 -1.56167,0.465547 -2.77519,0.828802 -3.65625,1.125 -0.88106,0.296198 -1.32575,0.420384 -1.8125,0.75 -0.0136,0.0092 -0.38693,0.0625 -0.125,0.0625 -0.41524,0 -0.71026,0.0397 -1.15625,0.28125 0.0332,-0.01797 -0.2201,0.114433 -0.78125,0.28125 -0.56115,0.166817 -1.45656,0.389308 -2.78125,0.75 -1.08675,0.295901 -2.17398,0.745432 -3,1.15625 -0.15978,0.07946 -0.28616,0.123398 -0.46875,0.25 -0.18259,0.126602 -0.40772,0.354102 -0.53125,0.625 -0.24706,0.541796 -0.18047,0.912498 -0.15625,1.40625 0.0315,0.641241 0.16201,1.467883 0.28125,2.0625 0.1192,0.594406 0.12591,1.095692 -0.0312,1.96875 -0.15716,0.873058 -0.49418,2.103705 -1.09375,3.96875 -0.83135,2.585996 -1.20789,3.733796 -1.5,4.8125 0.0609,-1.156689 0.10174,-2.940163 0.15625,-6.6875 0.0369,-2.534069 0.0724,-4.532561 0.125,-5.9375 0.0263,-0.70247 0.066,-1.249767 0.0937,-1.625 0.0119,-0.16095 0.0211,-0.288117 0.0312,-0.375 0.0527,-0.0576 0.13424,-0.1029 0.21875,-0.1875 0.2208,-0.221028 0.5279,-0.532435 0.875,-0.84375 0.6942,-0.622629 1.54595,-1.332636 2.1875,-1.8125 0.23526,-0.175975 1.13101,-0.820603 1.9375,-1.4375 1.84669,-1.412553 3.67313,-2.511394 4.21875,-2.6875 0.52069,-0.168059 1.03883,-0.386187 1.46875,-0.6875 0.44563,-0.31232 1.61809,-0.754664 2.84375,-0.9375 0.67076,-0.100055 1.17608,-0.200987 1.65625,-0.46875 0.24009,-0.133882 0.50604,-0.306859 0.6875,-0.6875 0.18146,-0.380641 0.13007,-0.938422 -0.0625,-1.25 -0.31395,-0.507986 -0.61723,-0.513822 -0.8125,-0.5625 -0.19527,-0.04868 -0.35631,-0.04743 -0.5625,-0.0625 -0.41239,-0.03015 -0.94513,-0.04903 -1.625,-0.03125 -1.07696,0.02819 -1.30527,0.07857 -2.03125,-0.125 -0.72598,-0.203574 -1.9757,-0.72423 -4.6875,-1.78125 -0.85577,-0.33357 -2.23536,-0.865938 -3.0625,-1.1875 -0.36867,-0.143321 -0.71329,-0.255891 -0.96875,-0.375 -0.004,-0.23778 -0.003,-0.533472 0,-0.90625 0.007,-0.771295 0.0328,-1.802207 0.0625,-2.8125 0.20306,0.276241 0.22789,0.596168 0.53125,0.90625 0.49444,0.505389 0.78463,0.83627 1.25,1.09375 0.46537,0.25748 0.94988,0.28125 1.40625,0.28125 0.64975,0 1.21956,-0.01416 1.78125,-0.5 0.28084,-0.242922 0.47837,-0.66469 0.5,-1.03125 0.0216,-0.36656 -0.0661,-0.670979 -0.1875,-0.9375 -0.0891,-0.195563 -0.28104,-0.359798 -0.46875,-0.53125 0.16964,-0.02667 0.34878,0.08908 0.5,0.03125 0.27574,-0.105455 0.68165,-0.264343 0.9375,-0.78125 0.12084,-0.244139 0.0351,-0.350532 0.0312,-0.53125 0.0636,-0.0011 0.1237,-0.0226 0.1875,-0.03125 z m -2.90625,1.25 c 0.038,0.02345 0.0856,-0.01977 0.125,0 0.0296,0.01482 0.0635,-0.01282 0.0937,0 -0.0261,-0.0019 -0.0743,0.03592 -0.0937,0.03125 -0.16526,-0.03954 -0.15269,-0.04842 -0.125,-0.03125 z m 20.6875,0.75 c -0.0115,0.07884 -0.0365,0.120359 -0.0625,0.1875 -0.005,-0.01727 -0.0296,-0.04816 -0.0312,-0.0625 -0.0175,0.03391 -0.007,0.0033 0,-0.03125 0.01,-0.01973 0.026,-0.02135 0.0937,-0.09375 z m 6.3125,0.4375 c 0.006,0 0.0486,0.03033 0.0625,0.03125 0.0258,0.0017 0.0415,-0.0073 0.125,0.03125 0.0303,0.01399 0.0758,0.151618 0.125,0.1875 -0.11269,0.13826 -0.2073,0.174741 -0.3125,0.21875 -0.0431,0.01804 -0.10022,0.08752 -0.125,0.09375 -0.0885,-0.02516 -0.22627,-0.155532 -0.34375,-0.28125 0.0873,-0.09399 0.18283,-0.179089 0.28125,-0.21875 0.14712,-0.05929 0.20103,-0.0625 0.1875,-0.0625 z m -14.5,16.75 c 0.11791,0.538932 0.25865,1.133171 0.46875,1.75 0.34148,1.002526 0.80894,2.486366 1.21875,3.8125 0.40981,1.326134 0.78855,2.598885 0.8125,2.71875 0.11663,0.583767 0.27078,1.006785 0.78125,1.46875 0.22142,0.200379 0.73514,0.478484 1.15625,0.5 0.42111,0.02152 0.76143,-0.06086 1.375,-0.15625 0.87381,-0.135885 1.47018,-0.130767 2,-0.03125 0.66668,0.125221 1.40693,0.343801 2,0.5625 0.29653,0.10935 0.57147,0.222067 0.75,0.3125 0.17853,0.09043 0.29305,0.210373 0.1875,0.09375 0.20393,0.225359 0.3157,0.284227 0.46875,0.375 0.15305,0.09077 0.31194,0.159315 0.5,0.25 0.37613,0.181369 0.84584,0.390447 1.3125,0.5625 0.42722,0.157513 0.55188,0.244392 0.875,0.375 -0.52814,-0.03869 -1.06363,-0.08465 -1.5,-0.125 -0.4725,-0.04369 -0.89953,-0.0924 -0.90625,-0.09375 -0.38638,-0.07742 -0.98029,-0.174901 -1.53125,-0.21875 -0.51043,-0.04062 -1.47104,-0.134678 -2.28125,-0.25 -0.4051,-0.05766 -0.79077,-0.140196 -1.0625,-0.1875 -0.12241,-0.02131 -0.21496,-0.01724 -0.28125,-0.03125 -0.0984,-0.03857 -0.20811,-0.08532 -0.25,-0.09375 -0.0638,-0.01284 -0.12476,-0.02233 -0.1875,-0.03125 -0.12548,-0.01784 -0.29258,-0.01327 -0.46875,-0.03125 -0.35235,-0.03597 -0.80058,-0.09331 -1.28125,-0.125 -0.99373,-0.06557 -1.49238,-0.161949 -1.8125,-0.3125 -0.32012,-0.150551 -0.58358,-0.400089 -1.09375,-1.03125 -0.42195,-0.522008 -1.10978,-1.423488 -1.65625,-2.21875 -0.27324,-0.397631 -0.51927,-0.763964 -0.6875,-1.03125 -0.0841,-0.133643 -0.15414,-0.252022 -0.1875,-0.3125 -0.0167,-0.03024 -0.007,-0.04616 0,-0.03125 -0.008,-0.01638 -0.0249,-0.07837 -0.0312,-0.09375 -0.029,-0.07007 -0.0691,-0.110822 -0.0937,-0.15625 -0.0494,-0.09086 -0.0979,-0.160849 -0.15625,-0.25 -0.11671,-0.178302 -0.24766,-0.388685 -0.40625,-0.59375 -0.21553,-0.278703 -0.56586,-0.91141 -0.625,-1.0625 -0.21496,-0.549152 -0.71959,-1.413771 -1.21875,-2.28125 -0.14068,-0.244479 -0.23379,-0.442215 -0.34375,-0.65625 0.50418,-0.181965 1.1624,-0.394667 1.84375,-0.625 0.72632,-0.245533 1.47863,-0.492558 2.09375,-0.6875 0.10972,-0.03477 0.11617,-0.031 0.21875,-0.0625 z m 20.4375,15.28125 c 0.0223,0.005 0.0778,0.02698 0.0937,0.03125 -0.001,-9.33e-4 9.8e-4,0.06149 0,0.0625 -0.024,-0.03365 -0.0685,-0.06135 -0.0937,-0.09375 z m -39.625,3.0625 c -0.0545,0.539936 -0.14667,1.100202 -0.125,1.6875 l 0.0312,0.75 -0.65625,0.0625 c -0.6473,0.0542 -1.88645,0.17043 -3,0.28125 0.99892,-0.502633 1.80858,-0.901002 2.3125,-1.21875 0.59287,-0.373833 0.98682,-0.753493 1.25,-1.15625 0.0553,-0.08465 0.11718,-0.268326 0.1875,-0.40625 z"
       id="path4612"
       style="opacity:0.1;color:#000000;fill:#000000;fill-opacity:1;fill-rule:nonzero;stroke-width:0.18230657;stroke-linecap:butt;stroke-linejoin:miter;stroke-miterlimit:4;stroke-opacity:1;stroke-dasharray:none;stroke-dashoffset:0;marker:none;visibility:visible;display:inline;overflow:visible;enable-background:new" />
    <path
       d="m 107.27721,80.47417 c -1.46005,-0.13447 -2.23569,-0.62078 -2.23569,-1.40173 0,-0.42883 0.7673,-0.97559 1.36911,-0.97559 0.73722,0 5.64756,-2.61839 6.49679,-3.46435 l 0.48248,-0.48062 0.0233,-7.27957 c 0.0212,-6.6218 0.0583,-7.75893 0.29183,-8.92577 0.0952,-0.47558 4.33295,-4.16232 6.62045,-5.75958 0.96896,-0.67659 2.25398,-1.59738 2.85559,-2.04621 0.60161,-0.44882 1.38097,-0.89005 1.73191,-0.98051 0.35094,-0.0905 0.63807,-0.26833 0.63807,-0.39527 0,-0.12694 -0.73834,-0.5121 -1.64076,-0.8559 -4.35125,-1.65774 -5.48625,-2.16074 -7.43411,-3.29456 -0.61309,-0.35687 -0.67285,-0.62275 -0.67574,-3.00617 l -0.003,-2.30602 -3.05363,-0.0817 c -2.69128,-0.072 -3.312,-0.15012 -5.23084,-0.65849 -2.41677,-0.64029 -2.87275,-0.87184 -3.39117,-1.72207 -0.32145,-0.52719 -0.3553,-0.93699 -0.35591,-4.30891 -3.7e-4,-2.04947 0.0794,-4.182456 0.17719,-4.739967 0.0978,-0.557514 0.36008,-2.02193 0.58277,-3.254257 0.34061,-1.884866 0.37119,-2.366604 0.19262,-3.034261 -0.11675,-0.436517 -0.26751,-1.455984 -0.33502,-2.265486 l -0.12275,-1.471819 0.61632,-0.575723 0.61631,-0.575724 1.62972,0.09292 c 1.29857,0.07404 1.6793,0.160716 1.87369,0.426555 0.23103,0.315956 0.61812,0.329146 7.30519,0.248911 3.88368,-0.0466 14.03446,-0.08472 22.55729,-0.08472 13.65274,0 15.49606,0.03253 15.49606,0.27346 0,0.201673 -0.28715,0.299493 -1.09384,0.372629 -1.01308,0.09185 -1.04,0.105308 -0.36461,0.182307 l 0.72923,0.08314 0.0911,1.09384 c 0.0532,0.638789 0.23447,1.305253 0.43564,1.60203 0.32013,0.472258 0.32821,0.621796 0.1142,2.114836 -0.2306,1.60889 -0.16529,10.565362 0.10185,13.966872 0.0782,0.9954 0.042,1.6321 -0.11385,2.00537 -0.2617,0.62667 -0.24138,1.065057 0.11307,2.439167 0.13913,0.53939 0.20883,1.05213 0.15488,1.13941 -0.0539,0.0873 -1.29296,0.15871 -2.75336,0.15871 l -2.65528,0 -0.72213,0.82038 c -0.39717,0.45121 -0.83192,0.82038 -0.9661,0.82038 -0.13419,0 -0.48772,0.20509 -0.78563,0.45576 -0.29791,0.25067 -0.61964,0.45577 -0.71496,0.45577 -0.0953,0 -0.3218,0.16408 -0.50328,0.36461 -0.55119,0.60906 -1.16719,0.44986 -2.55229,-0.6596 -0.70188,-0.56219 -1.71854,-1.30654 -2.25924,-1.65409 -0.91574,-0.58863 -2.76715,-1.51475 -3.02813,-1.51475 -0.0633,0 -0.37615,-0.19509 -0.69534,-0.43353 -2.02302,-1.511277 -4.64213,-2.421337 -7.91817,-2.751317 -0.92317,-0.093 -1.13942,-0.065 -1.13942,0.14767 0,0.36181 1.74272,1.879917 5.37004,4.677937 4.11008,3.17042 4.49258,3.50836 5.02854,4.44282 0.4578,0.7982 0.53665,1.12918 0.53811,2.25894 0.002,1.55651 -0.3541,2.45083 -1.46697,3.68414 -0.72129,0.79933 -0.73293,0.83394 -0.61347,1.82307 0.067,0.55454 0.18441,1.0903 0.26097,1.19057 0.0766,0.10027 0.19764,0.55147 0.26906,1.00268 0.0714,0.45121 0.32826,1.47669 0.57073,2.27884 0.24248,0.80214 0.57375,1.90966 0.73616,2.46113 0.545,1.85062 0.68205,2.18768 0.88954,2.18768 0.11355,0 0.25485,-0.0484 0.31399,-0.10754 0.0591,-0.0591 0.83167,-0.13019 1.71672,-0.15787 1.40093,-0.0438 1.79793,0.0188 3.06764,0.48367 0.80215,0.2937 1.66354,0.65419 1.91422,0.80108 1.14781,0.67262 2.50928,1.30646 3.01198,1.40223 0.30296,0.0577 1.52507,0.56976 2.7158,1.13786 1.4367,0.68545 2.56991,1.09665 3.36875,1.22239 1.95814,0.30822 1.93976,0.26622 1.87805,4.29169 -0.0515,3.35945 -0.0596,3.42184 -0.50497,3.87026 -0.43334,0.43633 -0.54498,0.4554 -2.61781,0.44709 -2.47833,-0.01 -2.74722,-0.1252 -2.74722,-1.17767 0,-0.52896 0.10344,-0.75371 0.45197,-0.98208 0.24859,-0.16288 0.5832,-0.54991 0.74359,-0.86007 0.24016,-0.46442 0.25295,-0.65728 0.0725,-1.09296 -0.2654,-0.64076 -1.30452,-1.58606 -1.86388,-1.69561 -1.34473,-0.26338 -4.44524,-0.68211 -6.96988,-0.94131 -1.6043,-0.16471 -3.45016,-0.42126 -4.1019,-0.5701 -0.65175,-0.14884 -1.51315,-0.30555 -1.91422,-0.34823 -2.22772,-0.23709 -3.2462,-0.75824 -3.98652,-2.0399 -0.11359,-0.19665 -0.57337,-0.83913 -1.02172,-1.42774 -1.68783,-2.21583 -5.1354,-7.80454 -5.35554,-8.68165 l -0.11875,-0.47312 -1.32177,0.36044 c -2.57059,0.70097 -3.8835,1.10779 -4.69445,1.45463 l -0.82038,0.35088 -0.009,2.86816 c -0.009,2.81509 -0.0222,2.90695 -0.69841,4.96469 -0.37893,1.15308 -0.81388,2.58875 -0.96655,3.19036 -0.15267,0.60161 -0.49104,1.70912 -0.75193,2.46114 -0.46506,1.34055 -0.48904,1.61149 -0.37969,4.29145 0.0433,1.06046 -0.001,1.24218 -0.40303,1.64393 -0.40325,0.40324 -0.68549,0.47144 -2.63206,0.63602 -1.1992,0.1014 -2.88325,0.26405 -3.74232,0.36145 -1.66532,0.18882 -1.74051,0.18887 -3.76808,0.002 z m 3.14236,-1.37248 c 1.40376,-0.15084 3.29063,-0.3361 4.19305,-0.41167 l 1.64076,-0.1374 -0.0639,-1.73191 c -0.0711,-1.9273 -0.0474,-2.02798 1.93802,-8.2038 1.20806,-3.75785 1.43316,-5.01526 1.15032,-6.42573 -0.10562,-0.52672 -0.21404,-1.40596 -0.24093,-1.95385 -0.0478,-0.97443 -0.035,-1.00308 0.58919,-1.31351 0.75523,-0.37561 1.81602,-0.76661 2.82575,-1.04154 2.65406,-0.72266 3.50104,-0.97499 3.78039,-1.12622 0.17411,-0.0943 0.4635,-0.17138 0.64308,-0.17138 0.17959,0 0.48835,-0.10958 0.68613,-0.24351 0.38296,-0.25933 2.07866,-0.83525 5.19072,-1.76298 1.05282,-0.31385 2.28162,-0.75267 2.73067,-0.97515 1.02792,-0.50929 1.7663,-1.54852 2.04345,-2.876 0.1868,-0.89479 0.17105,-1.14044 -0.12277,-1.91422 -0.29571,-0.77875 -1.38995,-2.0727 -1.75279,-2.0727 -0.22393,0 -2.56766,-1.51097 -3.99673,-2.57664 -2.35782,-1.75825 -5.82948,-5.41453 -5.82948,-6.13949 0,-0.66153 0.37073,-0.7642 2.10861,-0.58392 0.89577,0.0929 2.03887,0.20746 2.54021,0.25453 1.72124,0.16159 3.2823,0.48472 3.91959,0.81134 1.09566,0.56152 3.11524,1.6747 5.05866,2.78829 1.02756,0.58879 2.02108,1.07053 2.20782,1.07053 0.37825,0 1.52539,0.72758 2.19275,1.39075 0.59872,0.59497 0.86323,0.5474 1.6893,-0.30381 0.7796,-0.80332 0.78295,-0.99485 0.02,-1.14206 -1.52309,-0.29389 -3.58099,-1.05761 -4.10712,-1.52422 -0.90018,-0.79835 -5.94201,-3.98183 -7.23304,-4.56705 -0.75788,-0.34354 -1.62407,-0.7474 -1.92487,-0.89746 -0.30081,-0.15007 -1.60816,-0.68443 -2.90522,-1.18747 -2.52432,-0.97902 -3.17646,-1.0476 -4.70608,-0.49489 -0.5994,0.21658 -0.68365,0.32016 -0.68365,0.84049 0,0.40598 0.0864,0.59346 0.27346,0.59346 0.15787,0 0.27346,0.16488 0.27346,0.39009 0,0.21455 0.13559,0.48924 0.30131,0.61042 0.38797,0.28369 0.14136,0.70319 -0.33947,0.57745 -0.63254,-0.16541 -0.904,0.0553 -0.77735,0.63192 0.0996,0.45345 0.0464,0.54907 -0.40078,0.72009 -0.35895,0.13728 -0.6086,0.13956 -0.82163,0.008 -0.25441,-0.15771 -0.32593,-0.099 -0.42421,0.34854 -0.065,0.29603 -0.19394,0.58504 -0.2865,0.64224 -0.32452,0.20056 -0.16385,0.4471 0.2914,0.4471 0.31193,0 0.52562,0.14474 0.66487,0.45036 0.31231,0.68545 -0.0608,1.00809 -1.16585,1.00809 -0.86555,0 -0.95649,-0.0494 -1.93747,-1.0521 -0.90275,-0.92276 -1.0681,-1.20852 -1.34499,-2.32441 -0.17364,-0.69977 -0.36736,-1.57995 -0.43048,-1.95596 -0.0631,-0.37601 -0.1753,-0.68365 -0.24928,-0.68365 -0.15493,0 -0.44346,8.85196 -0.29629,9.09008 0.0536,0.0867 0.77635,0.4216 1.60613,0.74418 0.82978,0.32259 2.20601,0.85833 3.05829,1.19054 5.416,2.11108 5.01493,2.00172 7.13747,1.94616 1.32677,-0.0347 1.98316,0.0162 2.07252,0.16079 0.23147,0.37452 -0.3383,0.69653 -1.55311,0.87774 -1.33422,0.19903 -2.56916,0.61727 -3.26728,1.10655 -0.2585,0.18117 -0.79816,0.43533 -1.19923,0.56478 -0.90239,0.29126 -2.64684,1.3761 -4.53403,2.81963 -0.78915,0.60363 -1.65418,1.26158 -1.92228,1.46212 -1.36342,1.01981 -3.44754,2.8856 -3.62126,3.24191 -0.12618,0.2588 -0.23859,3.25718 -0.31245,8.33456 -0.11515,7.91556 -0.11616,7.93155 -0.54209,8.58339 -0.3528,0.5399 -0.97467,0.9253 -3.58918,2.22436 -1.73935,0.86422 -3.32652,1.62513 -3.52706,1.69092 -0.36462,0.11962 -0.36462,0.11962 0,0.26954 0.5057,0.20794 0.43671,0.20996 3.28152,-0.0958 z m 44.5776,-2.55633 c 0.75832,-0.39214 0.86329,-0.68904 1.00048,-2.8297 0.15135,-2.36152 0.0622,-2.52496 -1.47689,-2.70643 -0.75899,-0.0895 -1.28551,-0.2756 -1.72299,-0.60902 -0.43763,-0.33355 -0.82482,-0.47036 -1.26807,-0.44808 -0.48335,0.0243 -0.63307,-0.0385 -0.61744,-0.25881 0.0245,-0.3457 -0.86896,-0.82094 -3.06712,-1.63139 -0.87341,-0.32202 -1.72384,-0.73556 -1.88982,-0.91898 -0.33629,-0.37158 -2.02973,-0.97846 -3.50203,-1.255 -0.67166,-0.12616 -1.37488,-0.11711 -2.32023,0.0299 -1.21286,0.18856 -1.39329,0.17755 -1.70433,-0.10393 -0.19133,-0.17315 -0.4003,-0.57725 -0.46438,-0.898 -0.13288,-0.66507 -1.35247,-4.65081 -2.0472,-6.69044 -0.25615,-0.75202 -0.50742,-1.67495 -0.55838,-2.05095 -0.051,-0.37601 -0.10454,-0.68116 -0.11908,-0.67811 -0.81649,0.17131 -6.23242,2.02253 -6.27296,2.14416 -0.0323,0.097 0.33684,0.86379 0.82036,1.70407 0.48352,0.84029 0.9912,1.81413 1.12819,2.1641 0.13698,0.34998 0.48326,0.93915 0.76949,1.30928 0.28624,0.37013 0.52043,0.72936 0.52043,0.7983 0,0.19035 1.78756,2.77316 2.70388,3.90678 1.0824,1.3391 1.60394,1.58413 3.66065,1.71983 0.93883,0.0619 1.75852,0.14449 1.82154,0.18344 0.15656,0.0967 2.81688,0.48409 3.93732,0.57326 0.50134,0.0399 1.15765,0.12186 1.45845,0.18213 0.30081,0.0603 1.49036,0.17742 2.64345,0.26034 2.71304,0.1951 3.16135,0.31229 4.42242,1.15604 1.60499,1.07386 1.776,1.36901 1.776,3.06523 0,1.11145 -0.0623,1.4635 -0.27346,1.54452 -0.30929,0.11869 -0.37549,0.61285 -0.0821,0.61285 0.10525,0 0.43097,-0.12391 0.72382,-0.27535 z m -5.65515,-36.18597 c 0,-0.66556 -0.0418,-0.72922 -0.47855,-0.72922 -0.43876,0 -0.46908,0.0474 -0.36462,0.5697 0.0627,0.31334 0.11394,0.64149 0.11394,0.72923 0,0.0877 0.16408,0.15952 0.36462,0.15952 0.30384,0 0.36461,-0.12154 0.36461,-0.72923 z m -2.00537,0.17697 c 0.22961,-0.10927 -1.7479,-0.27902 -2.25507,-0.19357 -0.56783,0.0957 -0.56704,0.0967 0.15854,0.19725 0.68471,0.0949 1.89377,0.0928 2.09653,-0.004 z m -3.78382,-0.63273 c 0.0842,-0.44032 0.054,-0.45577 -0.89028,-0.45577 -0.53757,0 -0.97741,0.0444 -0.97741,0.0986 0,0.0926 1.41413,0.77204 1.66509,0.80002 0.0635,0.007 0.15468,-0.19221 0.2026,-0.44288 z m 2.78113,-1.81677 c 3.30887,-0.0683 6.17087,-0.16823 6.36,-0.22212 0.33171,-0.0945 0.33916,-0.31731 0.21029,-6.29005 -0.0735,-3.405632 -0.21247,-6.657564 -0.30886,-7.226512 -0.0964,-0.568948 -0.21823,-1.322035 -0.27076,-1.673525 l -0.0955,-0.639074 -6.86718,-0.02765 c -3.77694,-0.01521 -8.34385,-0.02144 -10.14869,-0.01386 -1.80483,0.0076 -4.44093,1.22e-4 -5.858,-0.01659 l -2.57648,-0.03038 -0.0997,1.321385 c -0.0548,0.726762 -0.1091,3.011846 -0.1206,5.077961 l -0.0209,3.756576 1.1189,0.31395 c 1.13371,0.3181 3.83843,1.43681 6.82756,2.82398 1.44601,0.67105 2.41148,1.24425 4.82007,2.86166 0.37521,0.25197 0.70467,0.35827 0.82038,0.26472 0.10635,-0.086 2.90062,-0.2122 6.20948,-0.28047 z m -30.39069,-1.44531 0.0545,-1.2567 -1.14276,0.10363 c -0.89997,0.0816 -1.30658,0.029 -1.91388,-0.24767 -0.61171,-0.27867 -1.26144,-0.361 -3.14303,-0.3983 -1.61468,-0.032 -2.44557,-0.12068 -2.60265,-0.27775 -0.53124,-0.53124 -0.72037,-9.275476 -0.24335,-11.251034 0.14526,-0.601611 0.26704,-1.480482 0.27061,-1.953046 0.004,-0.472564 0.17057,-1.275472 0.3711,-1.784238 0.20054,-0.508767 0.36462,-1.014766 0.36462,-1.124442 0,-0.332405 -1.29059,-0.02266 -1.68946,0.405483 -0.31937,0.342811 -0.3472,0.535418 -0.23154,1.602562 0.0723,0.667107 0.13498,1.418017 0.1393,1.668689 0.0104,0.603633 -0.73616,5.385879 -0.96762,6.198423 -0.24864,0.872899 -0.42031,6.486763 -0.22524,7.366083 0.15283,0.68893 0.19307,0.72007 1.2472,0.96513 0.59911,0.13927 1.54049,0.38824 2.09197,0.55326 1.8148,0.54305 3.34343,0.74274 5.4692,0.71449 l 2.09652,-0.0279 0.0545,-1.2567 z m 3.14154,-5.03287 -0.36132,-1.3673 0.08,1.23311 c 0.044,0.67821 0.18558,1.7447 0.31455,2.36998 l 0.23451,1.13688 0.0468,-1.00269 c 0.0266,-0.5694 -0.10936,-1.59352 -0.31455,-2.36998 z m -5.59556,1.73191 c -0.37717,-0.45121 -0.71312,-0.82038 -0.74656,-0.82038 -0.0335,0 -0.004,0.30764 0.0649,0.68365 0.13966,0.75954 0.32908,0.95019 0.94814,0.95432 0.39752,0.003 0.3837,-0.0398 -0.26648,-0.81759 z m 3.58451,-0.11066 c 0,-0.26654 0.0837,-0.352 0.27346,-0.27918 0.21352,0.0819 0.27346,-0.047 0.27346,-0.58819 0,-0.38121 -0.0615,-0.75464 -0.13673,-0.82985 -0.0752,-0.0752 -0.13673,-0.52335 -0.13673,-0.99589 0,-0.731656 -0.14206,-1.073384 -0.95711,-2.302429 -0.52641,-0.79379 -0.95711,-1.601345 -0.95711,-1.794562 0,-0.456312 -0.50876,-0.834159 -1.13301,-0.841473 -0.57114,-0.0067 -0.80605,0.335688 -0.98101,1.429823 -0.0661,0.413632 -0.18976,0.752059 -0.27471,0.752059 -0.13984,0 -0.10484,0.449263 0.12376,1.588747 0.0566,0.281968 0.16933,0.369863 0.37382,0.291393 0.24039,-0.09225 0.2593,-0.04976 0.10566,0.237316 -0.13525,0.252736 -0.11765,0.475196 0.0635,0.802446 0.13784,0.24902 0.25353,0.60601 0.25708,0.79332 0.008,0.43513 1.02167,1.60007 1.63364,1.8779 0.25814,0.11719 0.69495,0.21974 0.97069,0.22788 0.39298,0.0116 0.50135,-0.0682 0.50135,-0.36931 z m -6.04219,0.0395 c 0.43865,-0.27793 0.0706,-0.85619 -0.65984,-1.03663 -0.63495,-0.15686 -0.68912,-0.22424 -0.79481,-0.98871 -0.0624,-0.45121 -0.2077,-1.271544 -0.32294,-1.82297 -0.22741,-1.088164 -0.11843,-2.918189 0.21713,-3.646225 0.29575,-0.641644 1.00735,-1.496195 1.53981,-1.849123 0.25191,-0.166976 1.05865,-0.356376 1.82308,-0.42801 1.26618,-0.11865 3.35465,-0.668921 3.78399,-0.997009 0.10027,-0.07662 0.56661,-0.189358 1.03632,-0.250526 1.13011,-0.147169 2.41244,0.250985 3.16852,0.9838 l 0.59622,0.577884 -0.046,-0.901488 c -0.0253,-0.495819 -0.10381,-0.994934 -0.1744,-1.109148 -0.0935,-0.151268 -1.62394,-0.182556 -5.63599,-0.115217 -6.80472,0.114209 -6.83874,0.118479 -6.95127,0.872302 -0.29814,1.997225 -0.40276,3.333078 -0.27388,3.49718 0.0818,0.104221 0.18482,1.416828 0.22882,2.916905 0.10448,3.560945 0.20385,4.067155 0.82515,4.203395 0.26467,0.058 0.56325,0.13288 0.66352,0.16633 0.34017,0.11347 0.72837,0.0846 0.97662,-0.0727 z m 11.31737,-1.29628 c -0.25271,-2.107085 -0.50357,-3.67509 -0.60405,-3.77557 -0.14116,-0.141162 0.0781,1.97862 0.26611,2.57237 0.092,0.29071 0.16734,0.87877 0.16734,1.30682 0,0.71857 0.15463,1.44345 0.28096,1.31712 0.0295,-0.0295 -0.0202,-0.66882 -0.11036,-1.42074 z m 2.36771,0.28086 0.51483,-0.26623 0.0779,-5.376364 c 0.0686,-4.733785 0.1149,-5.417276 0.38765,-5.718667 0.20686,-0.228578 0.30978,-0.653383 0.30978,-1.278642 0,-1.22554 -0.28036,-1.386952 -2.11106,-1.215402 l -1.35277,0.126766 0,0.86779 c 0,0.559564 -0.0999,0.950679 -0.28118,1.101155 -0.19508,0.161903 -0.223,0.291558 -0.0912,0.423398 0.10452,0.104518 0.19603,0.809419 0.20335,1.566448 0.0154,1.596495 0.15989,2.601886 0.68237,4.749086 0.40962,1.68341 0.76277,3.879512 0.76277,4.743352 0,0.61177 0.15698,0.66027 0.89755,0.27731 z m -4.53695,-4.343428 c -0.34762,-1.02746 -0.91826,-2.073261 -0.91826,-1.682894 0,0.08683 0.19557,0.738302 0.43461,1.447721 0.23904,0.709418 0.50109,1.535965 0.58234,1.836771 l 0.14772,0.54692 0.0685,-0.507759 c 0.0377,-0.279268 -0.10403,-1.017609 -0.31487,-1.640759 z m -7.74969,-7.193686 c -1.85684,-0.08097 -2.17424,-0.320302 -2.05605,-1.550344 l 0.0832,-0.866226 -0.70247,0 -0.70246,0 0,1.257149 0,1.25715 2.41556,-0.01717 c 1.50149,-0.01068 1.86559,-0.04116 0.96218,-0.08055 z m 8.15315,0.0071 c -0.22561,-0.04345 -0.59478,-0.04345 -0.82038,0 -0.22561,0.04345 -0.041,0.07901 0.41019,0.07901 0.45121,0 0.63579,-0.03555 0.41019,-0.07901 z m -2.2324,-0.225591 -0.81951,-0.101516 -0.1515,-0.95711 -0.1515,-0.957109 -1.07993,0 -1.07994,0 0,0.902474 c 0,0.591526 -0.0895,0.952705 -0.25988,1.048263 -0.14293,0.08018 0.77999,0.150452 2.05095,0.156151 1.27096,0.0057 1.94205,-0.03532 1.49131,-0.09115 z m 16.69012,-0.181707 c -0.23922,-0.264334 -0.30391,-0.586661 -0.25614,-1.276259 l 0.0639,-0.922601 -1.73191,-0.0024 c -0.95256,-0.0013 -1.90255,-0.04819 -2.11111,-0.104196 -0.35736,-0.09596 -0.37198,-0.05121 -0.25384,0.777292 0.18947,1.32878 0.3045,1.488464 1.15052,1.597155 0.41726,0.05361 0.96375,0.128409 1.21443,0.166229 0.25067,0.03782 0.85816,0.07993 1.34997,0.09359 0.87396,0.02426 0.88697,0.01681 0.57417,-0.328825 z m 8.50379,-0.04742 c -0.12032,-0.120323 -0.21877,-0.402614 -0.21877,-0.627314 0,-0.2247 -0.082,-0.459248 -0.1823,-0.521218 -0.32053,-0.198098 -0.19568,-0.644448 0.22788,-0.814699 0.28109,-0.112982 -0.2645,-0.168513 -1.73346,-0.176431 -1.9852,-0.0107 -2.13138,0.01203 -1.9777,0.30748 0.0913,0.175471 0.23553,0.647189 0.32058,1.048263 l 0.15464,0.729227 1.09384,0.106082 c 2.05764,0.199555 2.55519,0.18851 2.31529,-0.05139 z m 6.02575,-0.0091 c -0.3128,-0.394132 -0.45171,-1.599567 -0.21693,-1.882461 0.18225,-0.219594 0.0518,-0.259641 -0.84599,-0.259641 -0.82558,0 -1.01285,0.04862 -0.8427,0.218768 0.12032,0.120322 0.21877,0.653569 0.21877,1.184993 l 0,0.966225 0.93385,0 c 0.72201,0 0.89283,-0.0517 0.753,-0.227884 z M 114.06905,19.57102 c 0.0851,-0.137755 -2.48327,-0.359817 -2.64152,-0.228383 -0.0472,0.03923 0.0318,0.144017 0.17551,0.232864 0.31262,0.19321 2.34611,0.189515 2.46601,-0.0045 z m 7.56237,-0.05976 c 0,-0.168904 -0.35583,-0.284681 -1.12058,-0.364613 -1.71764,-0.179529 -2.16094,-0.150059 -2.16094,0.143655 0,0.316255 0.43843,0.411087 2.05095,0.44362 0.9271,0.0187 1.23057,-0.03621 1.23057,-0.222662 z m 7.6113,0.132582 c 0.28669,-0.07683 0.41019,-0.247155 0.41019,-0.565692 0,-0.388918 -0.0602,-0.437051 -0.41019,-0.328161 -0.2256,0.07018 -0.84089,0.171948 -1.3673,0.226144 -0.7795,0.08025 -0.95711,0.162011 -0.95711,0.440577 0,0.291395 0.14171,0.34167 0.95711,0.339548 0.52641,-0.0013 1.1417,-0.05196 1.3673,-0.112416 z m 9.11533,0 c 0.25154,-0.06741 0.41019,-0.250566 0.41019,-0.473565 0,-0.310645 -0.0863,-0.348065 -0.5925,-0.25677 -0.32587,0.05878 -0.91009,0.03328 -1.29826,-0.05665 -0.84622,-0.196067 -1.20845,-0.08696 -1.20845,0.363997 0,0.331584 0.0977,0.357279 1.91422,0.503558 0.20053,0.01615 0.5492,-0.02011 0.7748,-0.08057 z m 8.43168,-0.432014 c 0,-0.104175 -0.54692,-0.182306 -1.27615,-0.182306 -0.72922,0 -1.27614,0.07813 -1.27614,0.182306 0,0.104176 0.54692,0.182307 1.27614,0.182307 0.72923,0 1.27615,-0.07813 1.27615,-0.182307 z m 5.83381,-0.02521 c 0,-0.0864 -0.49707,-0.157093 -1.1046,-0.157093 -0.60753,0 -1.06499,0.06408 -1.01659,0.142398 0.12111,0.195957 2.12119,0.209813 2.12119,0.01469 z m -5.28689,26.019092 c 0,-0.15876 0.12989,-0.28865 0.28865,-0.28865 0.15876,0 0.25618,0.0974 0.21649,0.21649 -0.11268,0.33803 -0.50514,0.3941 -0.50514,0.0722 z"
       id="path4505"
       style="color:#000000;fill:#b0b0b0;fill-opacity:1;fill-rule:nonzero;stroke-width:0.18230657;stroke-linecap:butt;stroke-linejoin:miter;stroke-miterlimit:4;stroke-opacity:1;stroke-dasharray:none;stroke-dashoffset:0;marker:none;visibility:visible;display:inline;overflow:visible;enable-background:new" />
  </g>
  <g
     id="layer2"
     style="display:none">
    <rect
       width="86"
       height="85"
       rx="6"
       ry="6"
       x="5"
       y="7"
       id="rect3745"
       style="opacity:0.9;fill:url(#ButtonShadow);fill-opacity:1;fill-rule:nonzero;stroke:none;filter:url(#filter3174)" />
  </g>
  <path
     d="M 12,6 C 8.676,6 6,8.676 6,12 l 0,2 0,68 0,2 c 0,0.334721 0.04135,0.6507 0.09375,0.96875 0.0487,0.295596 0.09704,0.596915 0.1875,0.875 0.0099,0.03038 0.02089,0.0636 0.03125,0.09375 0.09886,0.287771 0.23488,0.547452 0.375,0.8125 0.144592,0.273507 0.315616,0.535615 0.5,0.78125 0.184384,0.245635 0.373776,0.473472 0.59375,0.6875 0.439947,0.428056 0.94291,0.814526 1.5,1.09375 0.278545,0.139612 0.573473,0.246947 0.875,0.34375 -0.256202,-0.100222 -0.486711,-0.236272 -0.71875,-0.375 -0.0074,-0.0044 -0.02387,0.0045 -0.03125,0 -0.03193,-0.0193 -0.06229,-0.04251 -0.09375,-0.0625 -0.120395,-0.0767 -0.231023,-0.163513 -0.34375,-0.25 -0.106173,-0.0808 -0.213281,-0.161112 -0.3125,-0.25 C 8.47832,88.557317 8.30879,88.373362 8.15625,88.1875 8.048671,88.057245 7.937856,87.922215 7.84375,87.78125 7.81866,87.74287 7.8053,87.69538 7.78125,87.65625 7.71649,87.553218 7.651022,87.451733 7.59375,87.34375 7.492742,87.149044 7.388075,86.928049 7.3125,86.71875 7.3045,86.69694 7.28891,86.6782 7.28125,86.65625 7.24942,86.5643 7.24545,86.469419 7.21875,86.375 7.188418,86.268382 7.148361,86.171969 7.125,86.0625 7.052121,85.720988 7,85.364295 7,85 L 7,83 7,15 7,13 C 7,10.218152 9.218152,8 12,8 l 2,0 68,0 2,0 c 2.78185,0 5,2.218152 5,5 l 0,2 0,68 0,2 c 0,0.364295 -0.0521,0.720988 -0.125,1.0625 -0.0442,0.206893 -0.0884,0.397658 -0.15625,0.59375 -0.008,0.02195 -0.0233,0.04069 -0.0312,0.0625 -0.0627,0.173739 -0.13838,0.367449 -0.21875,0.53125 -0.0416,0.0828 -0.079,0.169954 -0.125,0.25 -0.0546,0.09721 -0.12677,0.18835 -0.1875,0.28125 -0.0941,0.140965 -0.20492,0.275995 -0.3125,0.40625 -0.14317,0.17445 -0.30314,0.346998 -0.46875,0.5 -0.0112,0.0102 -0.02,0.02115 -0.0312,0.03125 -0.13839,0.125556 -0.28509,0.234436 -0.4375,0.34375 -0.10257,0.07315 -0.20432,0.153364 -0.3125,0.21875 -0.007,0.0045 -0.0238,-0.0044 -0.0312,0 -0.23204,0.138728 -0.46255,0.274778 -0.71875,0.375 0.30153,-0.0968 0.59646,-0.204138 0.875,-0.34375 0.55709,-0.279224 1.06005,-0.665694 1.5,-1.09375 0.21997,-0.214028 0.40937,-0.441865 0.59375,-0.6875 0.18438,-0.245635 0.35541,-0.507743 0.5,-0.78125 0.14012,-0.265048 0.27613,-0.524729 0.375,-0.8125 0.0104,-0.03078 0.0213,-0.06274 0.0312,-0.09375 0.0905,-0.278085 0.1388,-0.579404 0.1875,-0.875 C 89.95865,84.6507 90,84.334721 90,84 l 0,-2 0,-68 0,-2 C 90,8.676 87.324,6 84,6 L 12,6 z"
     id="rect3728"
     style="opacity:0.4;fill:url(#linearGradient4716);fill-opacity:1;fill-rule:nonzero;stroke:none" />
  <path
     d="M 12,90 C 8.676,90 6,87.324 6,84 L 6,82 6,14 6,12 c 0,-0.334721 0.04135,-0.6507 0.09375,-0.96875 0.0487,-0.295596 0.09704,-0.596915 0.1875,-0.875 C 6.29115,10.12587 6.30214,10.09265 6.3125,10.0625 6.41136,9.774729 6.54738,9.515048 6.6875,9.25 6.832092,8.976493 7.003116,8.714385 7.1875,8.46875 7.371884,8.223115 7.561276,7.995278 7.78125,7.78125 8.221197,7.353194 8.72416,6.966724 9.28125,6.6875 9.559795,6.547888 9.854723,6.440553 10.15625,6.34375 9.900048,6.443972 9.669539,6.580022 9.4375,6.71875 c -0.0074,0.0044 -0.02387,-0.0045 -0.03125,0 -0.03193,0.0193 -0.06229,0.04251 -0.09375,0.0625 -0.120395,0.0767 -0.231023,0.163513 -0.34375,0.25 -0.106173,0.0808 -0.213281,0.161112 -0.3125,0.25 C 8.47832,7.442683 8.30879,7.626638 8.15625,7.8125 8.048671,7.942755 7.937856,8.077785 7.84375,8.21875 7.81866,8.25713 7.8053,8.30462 7.78125,8.34375 7.71649,8.446782 7.651022,8.548267 7.59375,8.65625 7.492742,8.850956 7.388075,9.071951 7.3125,9.28125 7.3045,9.30306 7.28891,9.3218 7.28125,9.34375 7.24943,9.4357 7.24545,9.530581 7.21875,9.625 7.18842,9.731618 7.14836,9.828031 7.125,9.9375 7.052121,10.279012 7,10.635705 7,11 l 0,2 0,68 0,2 c 0,2.781848 2.218152,5 5,5 l 2,0 68,0 2,0 c 2.781848,0 5,-2.218152 5,-5 l 0,-2 0,-68 0,-2 C 89,10.635705 88.94788,10.279012 88.875,9.9375 88.83085,9.730607 88.78662,9.539842 88.71875,9.34375 88.71105,9.3218 88.69545,9.30306 88.6875,9.28125 88.62476,9.107511 88.549117,8.913801 88.46875,8.75 88.42717,8.6672 88.38971,8.580046 88.34375,8.5 88.28915,8.40279 88.216976,8.31165 88.15625,8.21875 88.06214,8.077785 87.951329,7.942755 87.84375,7.8125 87.700576,7.63805 87.540609,7.465502 87.375,7.3125 87.36383,7.3023 87.35502,7.29135 87.34375,7.28125 87.205364,7.155694 87.058659,7.046814 86.90625,6.9375 86.803679,6.86435 86.701932,6.784136 86.59375,6.71875 c -0.0074,-0.0045 -0.02384,0.0044 -0.03125,0 -0.232039,-0.138728 -0.462548,-0.274778 -0.71875,-0.375 0.301527,0.0968 0.596455,0.204138 0.875,0.34375 0.55709,0.279224 1.060053,0.665694 1.5,1.09375 0.219973,0.214028 0.409366,0.441865 0.59375,0.6875 0.184384,0.245635 0.355408,0.507743 0.5,0.78125 0.14012,0.265048 0.276135,0.524729 0.375,0.8125 0.01041,0.03078 0.02133,0.06274 0.03125,0.09375 0.09046,0.278085 0.1388,0.579404 0.1875,0.875 C 89.95865,11.3493 90,11.665279 90,12 l 0,2 0,68 0,2 c 0,3.324 -2.676,6 -6,6 l -72,0 z"
     id="path3615"
     style="opacity:0.2;fill:url(#radialGradient4713);fill-opacity:1;fill-rule:nonzero;stroke:none" />
  <g
     transform="translate(40,0)"
     id="layer5"
     style="display:inline">
    <rect
       width="66"
       height="66"
       rx="12"
       ry="12"
       x="15"
       y="15"
       transform="translate(-40,0)"
       clip-path="url(#clipPath3613)"
       id="rect3171"
       style="opacity:0.1;fill:url(#linearGradient3613);fill-opacity:1;fill-rule:nonzero;stroke:#ffffff;stroke-width:0.5;stroke-linecap:round;stroke-linejoin:miter;stroke-miterlimit:4;stroke-opacity:1;stroke-dasharray:none;stroke-dashoffset:0;filter:url(#filter3794)" />
  </g>
  <path
     d="M 12.51801,6 C 8.90746,6 6,8.907457 6,12.518008 L 6,83.48199 c 0,3.610554 2.90746,6.518014 6.51801,6.518014 l 2.625,0 C 34.37514,80.05287 32.41623,41.238272 47.37712,35.253177 64.63597,28.348783 87.19979,33.261436 86.48517,6.73411 85.58652,6.268175 84.5679,6 83.48199,6 L 12.51801,6 z"
     id="path2491"
     style="opacity:0.4;fill:url(#radialGradient12179);fill-opacity:1;stroke:none;display:inline" />
  <g
     transform="translate(-179.33233,26.08867)"
     id="layer2-1"
     style="display:none">
    <rect
       width="86"
       height="85"
       rx="6"
       ry="6"
       x="5"
       y="7"
       id="rect3745-5"
       style="opacity:0.9;fill:url(#ButtonShadow-7);fill-opacity:1;fill-rule:nonzero;stroke:none;filter:url(#filter3174-7)" />
  </g>
  <rect
     width="66"
     height="66"
     rx="12"
     ry="12"
     x="15"
     y="15"
     transform="translate(-259.33233,26.08867)"
     clip-path="url(#clipPath3613-3)"
     id="rect3171-6"
     style="opacity:0.1;fill:url(#linearGradient12148);fill-opacity:1;fill-rule:nonzero;stroke:#ffffff;stroke-width:0.5;stroke-linecap:round;stroke-linejoin:miter;stroke-miterlimit:4;stroke-opacity:1;stroke-dasharray:none;stroke-dashoffset:0;filter:url(#filter3794-9)" />
  <g
     transform="translate(103.67706,-13.450722)"
     id="layer2-6"
     style="display:none">
    <rect
       width="86"
       height="85"
       rx="6"
       ry="6"
       x="5"
       y="7"
       id="rect3745-6"
       style="opacity:0.9;fill:url(#ButtonShadow-4);fill-opacity:1;fill-rule:nonzero;stroke:none;filter:url(#filter3174-8)" />
  </g>
  <g
     transform="translate(103.67706,-13.450722)"
     id="layer5-5"
     style="display:none">
    <rect
       width="66"
       height="62"
       rx="12"
       ry="12"
       x="15"
       y="15"
       clip-path="url(#clipPath4355)"
       id="rect3171-4"
       style="opacity:0.1;fill:url(#linearGradient3613-6);fill-opacity:1;fill-rule:nonzero;stroke:#ffffff;stroke-width:0.5;stroke-linecap:round;stroke-linejoin:miter;stroke-miterlimit:4;stroke-opacity:1;stroke-dasharray:none;stroke-dashoffset:0;filter:url(#filter3794-99)" />
  </g>
</svg>
