<?xml version="1.0" encoding="UTF-8" standalone="no"?>
<!-- Created with Inkscape (http://www.inkscape.org/) -->

<svg
   xmlns:dc="http://purl.org/dc/elements/1.1/"
   xmlns:cc="http://creativecommons.org/ns#"
   xmlns:rdf="http://www.w3.org/1999/02/22-rdf-syntax-ns#"
   xmlns:svg="http://www.w3.org/2000/svg"
   xmlns="http://www.w3.org/2000/svg"
   xmlns:xlink="http://www.w3.org/1999/xlink"
   version="1.0"
   width="96"
   height="96"
   id="svg2408">
  <defs
     id="defs2410">
    <linearGradient
       id="linearGradient5321">
      <stop
         id="stop5323"
         style="stop-color:#3a6f8f;stop-opacity:1"
         offset="0" />
      <stop
         id="stop5329"
         style="stop-color:#4b83a6;stop-opacity:1"
         offset="0.40000001" />
      <stop
         id="stop5325"
         style="stop-color:#76b6de;stop-opacity:1"
         offset="1" />
    </linearGradient>
    <linearGradient
       id="linearGradient3805">
      <stop
         id="stop3807"
         style="stop-color:#d2d2d2;stop-opacity:1"
         offset="0" />
      <stop
         id="stop3809"
         style="stop-color:#f5f5f5;stop-opacity:1"
         offset="1" />
    </linearGradient>
    <linearGradient
       x1="45.447727"
       y1="92.539597"
       x2="45.447727"
       y2="7.0165396"
       id="ButtonShadow"
       gradientUnits="userSpaceOnUse"
       gradientTransform="scale(1.0058652,0.994169)">
      <stop
         id="stop3750"
         style="stop-color:#000000;stop-opacity:1"
         offset="0" />
      <stop
         id="stop3752"
         style="stop-color:#000000;stop-opacity:0.58823532"
         offset="1" />
    </linearGradient>
    <linearGradient
       id="linearGradient3737">
      <stop
         id="stop3739"
         style="stop-color:#ffffff;stop-opacity:1"
         offset="0" />
      <stop
         id="stop3741"
         style="stop-color:#ffffff;stop-opacity:0"
         offset="1" />
    </linearGradient>
    <filter
       color-interpolation-filters="sRGB"
       id="filter3174">
      <feGaussianBlur
         id="feGaussianBlur3176"
         stdDeviation="1.71" />
    </filter>
    <linearGradient
       x1="36.357143"
       y1="6"
       x2="36.357143"
       y2="63.893143"
       id="linearGradient3188"
       xlink:href="#linearGradient3737"
       gradientUnits="userSpaceOnUse" />
    <filter
       x="-0.192"
       y="-0.192"
       width="1.3839999"
       height="1.3839999"
       color-interpolation-filters="sRGB"
       id="filter3794">
      <feGaussianBlur
         id="feGaussianBlur3796"
         stdDeviation="5.28" />
    </filter>
    <linearGradient
       x1="48"
       y1="20.220806"
       x2="48"
       y2="138.66119"
       id="linearGradient3613"
       xlink:href="#linearGradient3737"
       gradientUnits="userSpaceOnUse" />
    <radialGradient
       cx="48"
       cy="90.171875"
       r="42"
       fx="48"
       fy="90.171875"
       id="radialGradient3619"
       xlink:href="#linearGradient3737"
       gradientUnits="userSpaceOnUse"
       gradientTransform="matrix(1.1573129,0,0,0.99590774,-7.551021,0.197132)" />
    <clipPath
       id="clipPath3613">
      <rect
         width="84"
         height="84"
         rx="6"
         ry="6"
         x="6"
         y="6"
         id="rect3615"
         style="fill:#ffffff;fill-opacity:1;fill-rule:nonzero;stroke:none" />
    </clipPath>
    <linearGradient
       x1="48"
       y1="90"
       x2="48"
       y2="5.9877172"
       id="linearGradient3617"
       xlink:href="#linearGradient3805"
       gradientUnits="userSpaceOnUse" />
    <linearGradient
       x1="45.447727"
       y1="92.539597"
       x2="45.447727"
       y2="7.0165396"
       id="ButtonShadow-0"
       gradientUnits="userSpaceOnUse"
       gradientTransform="matrix(1.0058652,0,0,0.994169,100,0)">
      <stop
         id="stop3750-8"
         style="stop-color:#000000;stop-opacity:1"
         offset="0" />
      <stop
         id="stop3752-5"
         style="stop-color:#000000;stop-opacity:0.58823532"
         offset="1" />
    </linearGradient>
    <linearGradient
       x1="32.251034"
       y1="6.1317081"
       x2="32.251034"
       y2="90.238609"
       id="linearGradient3780"
       xlink:href="#ButtonShadow-0"
       gradientUnits="userSpaceOnUse"
       gradientTransform="matrix(1.0238095,0,0,1.0119048,-1.1428571,-98.071429)" />
    <linearGradient
       x1="32.251034"
       y1="6.1317081"
       x2="32.251034"
       y2="90.238609"
       id="linearGradient3772"
       xlink:href="#ButtonShadow-0"
       gradientUnits="userSpaceOnUse"
       gradientTransform="matrix(1.0238095,0,0,1.0119048,-1.1428571,-98.071429)" />
    <linearGradient
       x1="32.251034"
       y1="6.1317081"
       x2="32.251034"
       y2="90.238609"
       id="linearGradient3725"
       xlink:href="#ButtonShadow-0"
       gradientUnits="userSpaceOnUse"
       gradientTransform="matrix(1.0238095,0,0,1.0119048,-1.1428571,-98.071429)" />
    <linearGradient
       x1="32.251034"
       y1="6.1317081"
       x2="32.251034"
       y2="90.238609"
       id="linearGradient3721"
       xlink:href="#ButtonShadow-0"
       gradientUnits="userSpaceOnUse"
       gradientTransform="translate(0,-97)" />
    <linearGradient
       x1="32.251034"
       y1="6.1317081"
       x2="32.251034"
       y2="90.238609"
       id="linearGradient3026"
       xlink:href="#ButtonShadow-0"
       gradientUnits="userSpaceOnUse"
       gradientTransform="matrix(1.0238095,0,0,1.0119048,-1.1428571,-98.071429)" />
    <linearGradient
       x1="43.098053"
       y1="81.987076"
       x2="43.098053"
       y2="12.929833"
       id="linearGradient5327"
       xlink:href="#linearGradient5321"
       gradientUnits="userSpaceOnUse" />
  </defs>
  <metadata
     id="metadata2413">
    <rdf:RDF>
      <cc:Work
         rdf:about="">
        <dc:format>image/svg+xml</dc:format>
        <dc:type
           rdf:resource="http://purl.org/dc/dcmitype/StillImage" />
        <dc:title></dc:title>
      </cc:Work>
    </rdf:RDF>
  </metadata>
  <g
     id="layer2"
     style="display:none">
    <rect
       width="86"
       height="85"
       rx="6"
       ry="6"
       x="5"
       y="7"
       id="rect3745"
       style="opacity:0.9;fill:url(#ButtonShadow);fill-opacity:1;fill-rule:nonzero;stroke:none;filter:url(#filter3174)" />
  </g>
  <g
     id="layer3">
    <path
       d="m 12,-95.03125 c -5.5110903,0 -10.03125,4.52016 -10.03125,10.03125 l 0,71 c 0,5.5110902 4.5201598,10.03125 10.03125,10.03125 l 72,0 c 5.51109,0 10.03125,-4.5201597 10.03125,-10.03125 l 0,-71 c 0,-5.51109 -4.52016,-10.03125 -10.03125,-10.03125 l -72,0 z"
       transform="scale(1,-1)"
       id="path3786"
       style="opacity:0.07999998;fill:url(#linearGradient3026);fill-opacity:1;fill-rule:nonzero;stroke:none;display:inline" />
    <path
       d="m 12,-94.03125 c -4.971633,0 -9.03125,4.059617 -9.03125,9.03125 l 0,71 c 0,4.9716329 4.0596171,9.03125 9.03125,9.03125 l 72,0 c 4.971633,0 9.03125,-4.059617 9.03125,-9.03125 l 0,-71 c 0,-4.971633 -4.059617,-9.03125 -9.03125,-9.03125 l -72,0 z"
       transform="scale(1,-1)"
       id="path3778"
       style="opacity:0.1;fill:url(#linearGradient3780);fill-opacity:1;fill-rule:nonzero;stroke:none;display:inline" />
    <path
       d="m 12,-93 c -4.4091333,0 -8,3.590867 -8,8 l 0,71 c 0,4.4091333 3.5908667,8 8,8 l 72,0 c 4.409133,0 8,-3.5908667 8,-8 l 0,-71 c 0,-4.409133 -3.590867,-8 -8,-8 l -72,0 z"
       transform="scale(1,-1)"
       id="path3770"
       style="opacity:0.2;fill:url(#linearGradient3772);fill-opacity:1;fill-rule:nonzero;stroke:none;display:inline" />
    <rect
       width="86"
       height="85"
       rx="7"
       ry="7"
       x="5"
       y="-92"
       transform="scale(1,-1)"
       id="rect3723"
       style="opacity:0.3;fill:url(#linearGradient3725);fill-opacity:1;fill-rule:nonzero;stroke:none;display:inline" />
    <rect
       width="84"
       height="84"
       rx="6"
       ry="6"
       x="6"
       y="-91"
       transform="scale(1,-1)"
       id="rect3716"
       style="opacity:0.45;fill:url(#linearGradient3721);fill-opacity:1;fill-rule:nonzero;stroke:none;display:inline" />
  </g>
  <g
     id="layer1">
    <rect
       width="84"
       height="84"
       rx="6"
       ry="6"
       x="6"
       y="6"
       id="rect2419"
       style="fill:url(#linearGradient3617);fill-opacity:1;fill-rule:nonzero;stroke:none" />
    <path
       d="M 12,6 C 8.676,6 6,8.676 6,12 l 0,2 0,68 0,2 c 0,0.334721 0.04135,0.6507 0.09375,0.96875 0.0487,0.295596 0.09704,0.596915 0.1875,0.875 0.00988,0.03038 0.020892,0.0636 0.03125,0.09375 0.098865,0.287771 0.2348802,0.547452 0.375,0.8125 0.1445918,0.273507 0.3156161,0.535615 0.5,0.78125 0.1843839,0.245635 0.3737765,0.473472 0.59375,0.6875 0.439947,0.428056 0.94291,0.814526 1.5,1.09375 0.278545,0.139612 0.5734731,0.246947 0.875,0.34375 -0.2562018,-0.100222 -0.4867109,-0.236272 -0.71875,-0.375 -0.00741,-0.0044 -0.023866,0.0045 -0.03125,0 -0.031933,-0.0193 -0.062293,-0.04251 -0.09375,-0.0625 -0.120395,-0.0767 -0.2310226,-0.163513 -0.34375,-0.25 -0.1061728,-0.0808 -0.2132809,-0.161112 -0.3125,-0.25 C 8.4783201,88.557317 8.3087904,88.373362 8.15625,88.1875 8.0486711,88.057245 7.9378561,87.922215 7.84375,87.78125 7.818661,87.74287 7.805304,87.69538 7.78125,87.65625 7.716487,87.553218 7.6510225,87.451733 7.59375,87.34375 7.4927417,87.149044 7.3880752,86.928049 7.3125,86.71875 7.30454,86.69694 7.288911,86.6782 7.28125,86.65625 7.2494249,86.5643 7.2454455,86.469419 7.21875,86.375 7.1884177,86.268382 7.1483606,86.171969 7.125,86.0625 7.0521214,85.720988 7,85.364295 7,85 L 7,83 7,15 7,13 C 7,10.218152 9.2181517,8 12,8 l 2,0 68,0 2,0 c 2.781848,0 5,2.218152 5,5 l 0,2 0,68 0,2 c 0,0.364295 -0.05212,0.720988 -0.125,1.0625 -0.04415,0.206893 -0.08838,0.397658 -0.15625,0.59375 -0.0077,0.02195 -0.0233,0.04069 -0.03125,0.0625 -0.06274,0.173739 -0.138383,0.367449 -0.21875,0.53125 -0.04158,0.0828 -0.07904,0.169954 -0.125,0.25 -0.0546,0.09721 -0.126774,0.18835 -0.1875,0.28125 -0.09411,0.140965 -0.204921,0.275995 -0.3125,0.40625 -0.143174,0.17445 -0.303141,0.346998 -0.46875,0.5 -0.01117,0.0102 -0.01998,0.02115 -0.03125,0.03125 -0.138386,0.125556 -0.285091,0.234436 -0.4375,0.34375 -0.102571,0.07315 -0.204318,0.153364 -0.3125,0.21875 -0.0074,0.0045 -0.02384,-0.0044 -0.03125,0 -0.232039,0.138728 -0.462548,0.274778 -0.71875,0.375 0.301527,-0.0968 0.596455,-0.204138 0.875,-0.34375 0.55709,-0.279224 1.060053,-0.665694 1.5,-1.09375 0.219973,-0.214028 0.409366,-0.441865 0.59375,-0.6875 0.184384,-0.245635 0.355408,-0.507743 0.5,-0.78125 0.14012,-0.265048 0.276135,-0.524729 0.375,-0.8125 0.01041,-0.03078 0.02133,-0.06274 0.03125,-0.09375 0.09046,-0.278085 0.1388,-0.579404 0.1875,-0.875 C 89.95865,84.6507 90,84.334721 90,84 l 0,-2 0,-68 0,-2 C 90,8.676 87.324,6 84,6 L 12,6 z"
       id="rect3728"
       style="opacity:0.6;fill:url(#linearGradient3188);fill-opacity:1;fill-rule:nonzero;stroke:none" />
    <path
       d="M 12,90 C 8.676,90 6,87.324 6,84 L 6,82 6,14 6,12 c 0,-0.334721 0.04135,-0.6507 0.09375,-0.96875 0.0487,-0.295596 0.09704,-0.596915 0.1875,-0.875 C 6.29115,10.12587 6.30214,10.09265 6.3125,10.0625 6.41136,9.774729 6.54738,9.515048 6.6875,9.25 6.832092,8.976493 7.003116,8.714385 7.1875,8.46875 7.371884,8.223115 7.561276,7.995278 7.78125,7.78125 8.221197,7.353194 8.72416,6.966724 9.28125,6.6875 9.559795,6.547888 9.854723,6.440553 10.15625,6.34375 9.900048,6.443972 9.669539,6.580022 9.4375,6.71875 c -0.0074,0.0044 -0.02387,-0.0045 -0.03125,0 -0.03193,0.0193 -0.06229,0.04251 -0.09375,0.0625 -0.120395,0.0767 -0.231023,0.163513 -0.34375,0.25 -0.106173,0.0808 -0.213281,0.161112 -0.3125,0.25 C 8.47832,7.442683 8.30879,7.626638 8.15625,7.8125 8.048671,7.942755 7.937856,8.077785 7.84375,8.21875 7.81866,8.25713 7.8053,8.30462 7.78125,8.34375 7.71649,8.446782 7.651022,8.548267 7.59375,8.65625 7.492742,8.850956 7.388075,9.071951 7.3125,9.28125 7.3045,9.30306 7.28891,9.3218 7.28125,9.34375 7.24942,9.4357 7.24545,9.530581 7.21875,9.625 7.188418,9.731618 7.148361,9.828031 7.125,9.9375 7.052121,10.279012 7,10.635705 7,11 l 0,2 0,68 0,2 c 0,2.781848 2.218152,5 5,5 l 2,0 68,0 2,0 c 2.78185,0 5,-2.218152 5,-5 l 0,-2 0,-68 0,-2 C 89,10.635705 88.9479,10.279012 88.875,9.9375 88.8308,9.730607 88.7866,9.539842 88.71875,9.34375 88.71075,9.3218 88.69545,9.30306 88.68755,9.28125 88.62485,9.107511 88.54917,8.913801 88.4688,8.75 88.4272,8.6672 88.3898,8.580046 88.3438,8.5 88.2892,8.40279 88.21703,8.31165 88.1563,8.21875 88.0622,8.077785 87.95138,7.942755 87.8438,7.8125 87.70063,7.63805 87.54066,7.465502 87.37505,7.3125 87.36385,7.3023 87.35505,7.29135 87.34385,7.28125 87.20546,7.155694 87.05876,7.046814 86.90635,6.9375 86.80378,6.86435 86.70203,6.784136 86.59385,6.71875 c -0.007,-0.0045 -0.0238,0.0044 -0.0312,0 -0.23204,-0.138728 -0.46255,-0.274778 -0.71875,-0.375 0.30153,0.0968 0.59646,0.204138 0.875,0.34375 0.55709,0.279224 1.06005,0.665694 1.5,1.09375 0.21997,0.214028 0.40937,0.441865 0.59375,0.6875 0.18438,0.245635 0.35541,0.507743 0.5,0.78125 0.14012,0.265048 0.27613,0.524729 0.375,0.8125 0.0104,0.03078 0.0213,0.06274 0.0312,0.09375 0.0905,0.278085 0.1388,0.579404 0.1875,0.875 C 89.95865,11.3493 90,11.665279 90,12 l 0,2 0,68 0,2 c 0,3.324 -2.676,6 -6,6 l -72,0 z"
       id="path3615"
       style="opacity:0.3;fill:url(#radialGradient3619);fill-opacity:1;fill-rule:nonzero;stroke:none" />
    <g
       id="g5351">
      <path
         d="m 45.40625,13.03125 c -5.901989,-0.06527 -11.323245,2.077691 -15.0625,5.84375 -3.739255,3.766059 -5.753339,9.184863 -4.84375,15.25 0.754434,5.030573 4.527276,9.300537 9.5,11.59375 -1.102978,0.589446 -2.192877,1.271581 -3.09375,2.0625 -1.651662,1.450073 -2.734196,3.28156 -2.71875,5.28125 0.01539,1.992049 1.107207,3.770628 2.75,5.28125 L 32.25,58.625 31.65625,59.09375 c -3.455104,2.631412 -5.919121,5.547279 -7.1875,8.6875 -1.268379,3.140221 -1.253728,6.525564 0.1875,9.5625 1.360478,2.866797 4.073725,4.846484 8.0625,6.40625 2.228035,0.871248 5.320072,1.167837 8.6875,1.21875 3.367428,0.05091 6.888468,-0.21371 9.59375,-0.90625 4.681335,-1.198399 9.330135,-3.293269 13.09375,-5.8125 3.763615,-2.519231 6.741322,-5.366944 7.65625,-8.78125 1.515469,-5.655411 0.421686,-9.825385 -1.8125,-12.21875 -1.618788,-1.734126 -3.590189,-3.056797 -6.5,-3.96875 -2.909811,-0.911953 -6.795961,-1.550843 -12.875,-2.34375 -3.424356,-0.446649 -5.273343,-0.80215 -6.625,-1.125 1.07601,-0.46699 2.432767,-0.965631 4.65625,-1.625 5.816199,-1.72478 10.066479,-3.562278 13,-6.5 2.933521,-2.937722 4.228796,-6.91512 4.3125,-12 0.02372,-1.440862 0.04066,-2.147888 0.0625,-2.65625 l 1.4375,-0.375 a 1.9774144,1.9774144 0 0 0 1.4375,-2.25 L 68.375,21.6875 c -0.260002,-1.458148 -0.975816,-2.970856 -2.3125,-3.84375 -1.336684,-0.872894 -2.900104,-1.094937 -4.90625,-1.15625 -1.583341,-0.04839 -4.443348,-0.876315 -5.5625,-1.375 -3.410313,-1.519611 -6.878672,-2.244655 -10.1875,-2.28125 z M 40.5625,20.4375 c 0.02673,-0.01047 0.06687,0.01028 0.09375,0 -0.447611,0.783074 -0.78125,1.638624 -0.78125,2.59375 0,0.918613 0.300542,1.744293 0.71875,2.5 -0.746549,-0.417009 -1.557099,-0.71875 -2.46875,-0.71875 -1.070453,0 -2.009677,0.406683 -2.84375,0.96875 0.969095,-2.433808 2.737456,-4.347212 5.28125,-5.34375 z m 9.03125,0.03125 c 2.485905,1.021837 4.190315,2.914608 5.1875,5.1875 -0.799166,-0.496118 -1.687457,-0.84375 -2.6875,-0.84375 -0.911651,0 -1.722201,0.301741 -2.46875,0.71875 0.418051,-0.759066 0.71875,-1.582786 0.71875,-2.5 0,-0.940578 -0.313127,-1.78359 -0.75,-2.5625 z m -4.5,9.59375 0.03125,0 0,0.09375 -0.03125,0 0,-0.09375 z m 9.84375,4.375 c -0.942396,2.258998 -2.697995,4.263335 -5.5,5.5625 0.528597,-0.820994 0.90625,-1.744607 0.90625,-2.78125 0,-0.897776 -0.288937,-1.716679 -0.6875,-2.46875 0.73137,0.399188 1.544571,0.65625 2.4375,0.65625 1.074154,0 2.012474,-0.405831 2.84375,-0.96875 z m -19.28125,0.28125 c 0.742893,0.410982 1.563319,0.6875 2.46875,0.6875 0.892929,0 1.706131,-0.257062 2.4375,-0.65625 -0.39993,0.749605 -0.6875,1.568214 -0.6875,2.46875 0,0.893306 0.256396,1.698935 0.65625,2.4375 -2.068164,-1.083643 -3.791267,-2.791825 -4.875,-4.9375 z m 5.0625,27.125 c 0.131157,0.02578 0.243656,0.06426 0.40625,0.09375 0.497347,0.09019 1.134492,0.218737 1.90625,0.34375 1.543516,0.250026 3.581178,0.559514 5.71875,0.875 4.933539,0.728144 7.900359,1.194468 9.71875,1.6875 1.818391,0.493032 2.357654,0.857717 3.1875,1.6875 0.339475,0.33945 0.369326,0.94404 0.25,1.34375 -0.806216,2.700589 -3.258228,5.093703 -8.34375,7.03125 -2.083727,0.793888 -5.118986,1.307735 -7.9375,1.40625 -2.818514,0.09852 -5.492937,-0.293788 -6.53125,-0.78125 -1.977124,-0.928207 -2.888245,-2.52582 -2.96875,-4.71875 -0.08051,-2.19293 0.837953,-4.945965 3.03125,-7.4375 0.46896,-0.532728 0.964443,-1.000313 1.34375,-1.3125 0.252299,-0.207654 0.200105,-0.194268 0.21875,-0.21875 z"
         id="path5349"
         style="opacity:0.05;fill:#000000;fill-opacity:1" />
      <path
         d="M 45.375,14 C 39.718943,13.937445 34.566016,16.002395 31.03125,19.5625 27.496484,23.122605 25.633617,28.222958 26.5,34 c 0.764676,5.098869 4.852342,9.59318 10.28125,11.53125 0.1829,0.06529 0.300356,0.119391 0.46875,0.1875 -0.137229,0.05517 -0.228858,0.103408 -0.375,0.15625 -1.351198,0.488563 -3.109352,1.59995 -4.3125,2.65625 -1.519863,1.33436 -2.418913,2.860537 -2.40625,4.5 0.01266,1.639463 0.936576,3.190436 2.46875,4.59375 L 33.78125,58.6875 32.25,59.875 c -3.352843,2.55353 -5.694737,5.359185 -6.875,8.28125 -1.180263,2.922065 -1.170522,5.985493 0.15625,8.78125 1.221874,2.57473 3.657137,4.360071 7.53125,5.875 1.971457,0.770916 5.07354,1.137584 8.375,1.1875 3.30146,0.04992 6.756439,-0.22066 9.3125,-0.875 4.562707,-1.168031 9.12162,-3.237873 12.78125,-5.6875 3.65963,-2.449627 6.484662,-5.24606 7.28125,-8.21875 1.455388,-5.431202 0.361462,-9.217984 -1.59375,-11.3125 -1.531192,-1.640288 -3.270383,-2.781183 -6.0625,-3.65625 -2.792117,-0.875067 -6.655616,-1.521668 -12.71875,-2.3125 -3.936697,-0.513476 -6.391626,-0.922309 -7.75,-1.3125 -0.679187,-0.195095 -1.05549,-0.395311 -1.1875,-0.5 -0.13201,-0.104689 -0.0625,-0.0095 -0.0625,-0.0625 0,0.05594 -0.05037,0.04356 0.125,-0.125 0.175366,-0.168561 0.53124,-0.409275 1.09375,-0.6875 1.12502,-0.55645 3.00441,-1.244853 5.65625,-2.03125 5.755667,-1.706829 9.860264,-3.481349 12.59375,-6.21875 2.733486,-2.737401 3.949977,-6.3753 4.03125,-11.3125 0.02774,-1.685075 0.01972,-2.7102 0.0625,-3.21875 0.01175,-0.139643 0.01981,-0.13332 0.03125,-0.1875 l 2.125,-0.5625 a 0.9895832,0.9895832 0 0 0 0.71875,-1.125 L 67.40625,21.875 a 0.9895832,0.9895832 0 0 0 0,-0.03125 C 67.171586,20.527704 66.610361,19.392192 65.53125,18.6875 64.452139,17.982808 63.053213,17.715182 61.125,17.65625 59.302805,17.600558 56.457152,16.784497 55.1875,16.21875 51.895806,14.751995 48.544251,14.035051 45.375,14 z m -0.1875,4.625 c 6.529358,-0.02477 10.459405,4.308394 11.40625,9.34375 0.946845,5.035356 -1.122143,10.64598 -7.1875,13.1875 C 42.460109,44.066839 34.068109,38.665926 33.5,30.8125 32.990353,23.767167 37.875245,18.652736 45.1875,18.625 z m -0.0625,0.0625 c -2.3584,0 -4.28125,1.981068 -4.28125,4.34375 0,1.723593 1.12902,3.040733 2.59375,3.71875 l 0,1.34375 a 0.9895832,0.9895832 0 0 0 0.21875,0.625 A 0.9895832,0.9895832 0 0 0 43.125,28.5625 l -1.09375,0 c -0.617315,-1.602537 -2.100654,-2.78125 -3.90625,-2.78125 -2.346988,0 -4.28125,1.949822 -4.28125,4.3125 0,2.362678 1.922847,4.34375 4.28125,4.34375 1.66161,0 2.923547,-1.103495 3.625,-2.5 l 1.375,0 a 0.9895832,0.9895832 0 0 0 0.34375,-0.0625 0.9895832,0.9895832 0 0 0 -0.03125,0.25 l 0,1.1875 c -1.515161,0.667051 -2.59375,2.149741 -2.59375,3.90625 0,2.362682 1.945679,4.28125 4.28125,4.28125 2.335571,0 4.25,-1.929826 4.25,-4.28125 0,-1.747416 -1.053143,-3.235605 -2.5625,-3.90625 l 0,-1.1875 a 0.9895832,0.9895832 0 0 0 -0.0625,-0.25 0.9895832,0.9895832 0 0 0 0.34375,0.0625 l 1.375,0 c 0.701451,1.396508 1.96339,2.5 3.625,2.5 2.358402,0 4.28125,-1.981072 4.28125,-4.34375 0,-2.362678 -1.934263,-4.3125 -4.28125,-4.3125 -1.805596,0 -3.288935,1.178713 -3.90625,2.78125 l -1.09375,0 a 0.9895832,0.9895832 0 0 0 -0.46875,0.125 0.9895832,0.9895832 0 0 0 0.1875,-0.59375 l 0,-1.375 c 1.445272,-0.686752 2.5625,-1.98239 2.5625,-3.6875 0,-2.351425 -1.8916,-4.34375 -4.25,-4.34375 z m -1.21875,10.25 a 0.9895832,0.9895832 0 0 0 0.53125,0.15625 l 1.375,0 a 0.9895832,0.9895832 0 0 0 0.46875,-0.125 0.9895832,0.9895832 0 0 0 -0.1875,0.59375 l 0,1.375 a 0.9895832,0.9895832 0 0 0 0.0625,0.25 0.9895832,0.9895832 0 0 0 -0.34375,-0.0625 l -1.375,0 a 0.9895832,0.9895832 0 0 0 -0.34375,0.0625 0.9895832,0.9895832 0 0 0 0.03125,-0.25 l 0,-1.375 a 0.9895832,0.9895832 0 0 0 -0.21875,-0.625 z m -3.34375,31.875 c 0.03811,0.0078 0.07798,0.02139 0.125,0.03125 0.163367,0.03428 0.381667,0.08087 0.625,0.125 0.486666,0.08825 1.106845,0.188071 1.875,0.3125 1.53631,0.248859 3.553397,0.560026 5.6875,0.875 4.937641,0.728749 7.926004,1.23003 9.84375,1.75 1.917746,0.51997 2.731214,0.981285 3.65625,1.90625 0.6518,0.651751 0.705408,1.655688 0.5,2.34375 -0.919137,3.078839 -3.691317,5.657492 -8.9375,7.65625 -2.238588,0.852889 -5.372111,1.398317 -8.28125,1.5 -2.909139,0.101683 -5.662195,-0.278184 -7,-0.90625 -2.303343,-1.081359 -3.439615,-3.066382 -3.53125,-5.5625 -0.09163,-2.496118 0.976587,-5.471456 3.3125,-8.125 0.50145,-0.569636 1.00747,-1.083566 1.4375,-1.4375 0.39695,-0.326708 0.722801,-0.464022 0.6875,-0.46875 z"
         id="path5347"
         style="opacity:0.1;fill:#000000;fill-opacity:1" />
      <path
         d="m 45.375,15 c -10.819378,-0.11966 -19.552452,7.866877 -17.90625,18.84375 0.698972,4.660752 4.538692,8.923079 9.65625,10.75 1.183682,0.422566 2.15625,0.936187 2.15625,1.125 0,0.188813 -0.93684,0.686737 -2.0625,1.09375 -1.12566,0.407014 -2.91612,1.517161 -4,2.46875 -2.775658,2.436882 -2.759151,5.040657 0.0625,7.625 l 2.03125,1.875 -2.46875,1.875 C 26.34295,65.607269 24.013273,71.391702 26.4375,76.5 c 1.083024,2.282146 3.240752,3.936238 7,5.40625 3.42885,1.340813 12.249348,1.482145 17.0625,0.25 8.887739,-2.275219 17.987672,-8.126919 19.34375,-13.1875 1.395201,-5.206595 0.331994,-8.579864 -1.34375,-10.375 -2.886881,-3.092569 -6.093099,-4.109992 -18.1875,-5.6875 -7.898055,-1.030168 -9.875,-1.590871 -9.875,-2.84375 0,-1.110056 2.244506,-2.194944 7.59375,-3.78125 11.390057,-3.377694 15.748575,-7.046484 15.90625,-16.625 0.05515,-3.35024 -0.03594,-3.961696 0.5,-4.25 L 66.90625,24.75 66.4375,22.03125 C 66.018938,19.683867 64.794035,18.769341 61.09375,18.65625 59.032278,18.593245 56.201668,17.757927 54.78125,17.125 51.608386,15.711195 48.404426,15.033505 45.375,15 z m -0.1875,2.625 C 59.147625,17.572049 62.733699,36.635134 49.78125,42.0625 42.178029,45.24842 33.116129,39.392239 32.5,30.875 31.953659,23.322406 37.397076,17.65455 45.1875,17.625 z m -0.0625,2.0625 c -1.805911,0 -3.28125,1.512524 -3.28125,3.34375 0,1.595763 1.112824,2.902482 2.59375,3.21875 l 0,1.84375 1.375,0 0,-1.84375 c 1.475261,-0.32063 2.5625,-1.62705 2.5625,-3.21875 0,-1.831226 -1.444089,-3.34375 -3.25,-3.34375 z m -7,7.09375 c -1.805912,0 -3.28125,1.48128 -3.28125,3.3125 0,1.83122 1.475338,3.34375 3.28125,3.34375 1.517122,0 2.787004,-1.079219 3.15625,-2.5 l 1.84375,0 0,-1.375 -1.78125,0 C 41.088006,27.989835 39.748369,26.78125 38.125,26.78125 z m 13.96875,0 c -1.623369,0 -2.963006,1.208585 -3.21875,2.78125 l -1.78125,0 0,1.375 1.84375,0 c 0.36924,1.420781 1.639128,2.5 3.15625,2.5 1.805911,0 3.28125,-1.51253 3.28125,-3.34375 0,-1.83122 -1.475339,-3.3125 -3.28125,-3.3125 z m -7.65625,5.34375 0,1.84375 c -1.480926,0.316268 -2.59375,1.654225 -2.59375,3.25 0,1.831225 1.475339,3.28125 3.28125,3.28125 1.805911,0 3.25,-1.450025 3.25,-3.28125 0,-1.591706 -1.087239,-2.92937 -2.5625,-3.25 l 0,-1.84375 -1.375,0 z m -4.03125,27.6875 c 0.07468,-0.01725 0.139871,-0.01745 0.1875,0 0.381023,0.139564 4.176245,0.746078 8.4375,1.375 9.883501,1.458712 11.990462,1.896867 14.03125,3.9375 0.964679,0.964607 1.041642,2.335575 0.75,3.3125 -1.032257,3.457759 -4.124121,6.252423 -9.53125,8.3125 -4.787447,1.823989 -12.755593,2.100338 -16.03125,0.5625 -5.260283,-2.469564 -5.520065,-9.61832 -0.5625,-15.25 1.067996,-1.21322 2.195986,-2.129263 2.71875,-2.25 z"
         id="path5319"
         style="opacity:0.15;fill:#000000;fill-opacity:1" />
      <path
         d="m 33.444051,80.918532 c -3.759248,-1.470012 -5.925854,-3.148859 -7.008878,-5.431005 -2.424227,-5.108298 -0.0832,-10.884959 6.4176,-15.835978 l 2.471011,-1.881921 -2.040582,-1.868968 c -2.821651,-2.584343 -2.845548,-5.192542 -0.06989,-7.629424 1.08388,-0.951589 2.891685,-2.063176 4.017345,-2.47019 1.12566,-0.407013 2.046654,-0.894512 2.046654,-1.083325 0,-0.188813 -0.968467,-0.689033 -2.152149,-1.111599 C 32.007604,41.779201 28.16266,37.490611 27.463688,32.829859 25.35655,18.779461 40.268264,9.6533694 54.772785,16.116476 c 1.420418,0.632927 4.251384,1.470649 6.312856,1.533654 3.700285,0.113091 4.920817,1.04487 5.339379,3.392253 l 0.481788,2.70195 -2.481944,0.660324 c -0.535943,0.288304 -0.420037,0.916163 -0.475183,4.266403 -0.157675,9.578516 -4.528782,13.241185 -15.918839,16.618879 -5.349244,1.586306 -7.605718,2.650653 -7.605718,3.760709 0,1.252879 1.982852,1.826049 9.880907,2.856217 12.094401,1.577508 15.317574,2.582259 18.204455,5.674828 1.675744,1.795136 2.740358,5.193862 1.345157,10.400457 -1.356078,5.060581 -10.476519,10.885923 -19.364258,13.161142 -4.813152,1.232145 -13.618484,1.116053 -17.047334,-0.22476 z m 20.83794,-5.162872 c 5.407129,-2.060077 8.498292,-4.855188 9.530549,-8.312947 0.291642,-0.976925 0.200339,-2.352745 -0.76434,-3.317352 -2.040788,-2.040633 -4.130979,-2.470249 -14.01448,-3.928961 -4.261255,-0.628922 -8.059488,-1.257688 -8.440511,-1.397252 -0.381028,-0.13957 -1.691422,0.880676 -2.911989,2.267213 -4.957565,5.63168 -4.69013,12.788641 0.570153,15.258205 3.275657,1.537838 11.243171,1.255083 16.030618,-0.568906 z M 49.769537,41.074563 c 12.952449,-5.427366 9.373304,-24.516567 -4.586821,-24.463616 -7.790424,0.02955 -13.221679,5.714265 -12.675338,13.266859 0.616129,8.517239 9.658938,14.382677 17.262159,11.196757 z"
         id="path3216"
         style="fill:url(#linearGradient5327);fill-opacity:1" />
      <path
         d="m 45.112826,18.699648 c -1.805911,0 -3.271106,1.485742 -3.271106,3.316968 0,1.595763 1.105969,2.924656 2.586895,3.240924 l 0,1.834308 1.368428,0 0,-1.843811 c 1.475261,-0.32063 2.577523,-1.639721 2.577523,-3.231421 0,-1.831226 -1.455829,-3.316968 -3.26174,-3.316968 z m -7.001492,7.090135 c -1.805912,0 -3.271118,1.485736 -3.271118,3.316956 0,1.83122 1.465206,3.316967 3.271118,3.316967 1.517122,0 2.789397,-1.05031 3.158643,-2.471091 l 1.846441,0 0,-1.387622 -1.780832,0 c -0.255744,-1.572665 -1.600883,-2.77521 -3.224252,-2.77521 z m 13.993618,0 c -1.623369,0 -2.968508,1.202545 -3.224252,2.77521 l -1.780832,0 0,1.387622 1.846446,0 c 0.36924,1.420781 1.641516,2.471091 3.158638,2.471091 1.805911,0 3.271117,-1.485747 3.271117,-3.316967 0,-1.83122 -1.465206,-3.316956 -3.271117,-3.316956 z m -7.676337,5.331847 0,1.834307 c -1.480926,0.316268 -2.586895,1.654659 -2.586895,3.250434 0,1.831225 1.465195,3.307458 3.271106,3.307458 1.805911,0 3.26174,-1.476233 3.26174,-3.307458 0,-1.591706 -1.102262,-2.920301 -2.577523,-3.240931 l 0,-1.84381 -1.368428,0 z"
         id="path4046"
         style="fill:#d54c16;fill-opacity:1" />
      <path
         d="m 45.375,14 c -10.122829,-0.111956 -18.414811,6.861617 -18.09375,16.75 0.331004,-12.250063 14.088074,-19.601255 27.5,-13.625 1.420418,0.632927 4.251028,1.468245 6.3125,1.53125 3.700285,0.113091 4.925188,1.027617 5.34375,3.375 l 0.3125,1.75 L 66.90625,23.75 66.4375,21.03125 C 66.018938,18.683867 64.794035,17.769341 61.09375,17.65625 59.032278,17.593245 56.201668,16.757927 54.78125,16.125 51.608386,14.711195 48.404426,14.033505 45.375,14 z m -6.10142,30.790306 c -0.289455,0.287907 -1.529973,0.832418 -2.05483,1.022194 -1.12566,0.407014 -2.91612,1.517161 -4,2.46875 -1.561308,1.370746 -2.241215,2.774329 -2.03125,4.21875 0.158497,-1.095571 0.837848,-2.171006 2.03125,-3.21875 1.08388,-0.951589 2.87434,-2.061736 4,-2.46875 1.12566,-0.407013 1.239691,-0.686641 1.676284,-1.043374 0.168992,-0.265355 0.412164,-0.621092 0.378546,-0.97882 z m 1.150386,4.234849 c -0.04608,0.547053 -0.01041,0.882728 0.01354,1.037345 0.151128,0.97581 1.976945,1.813582 9.875,2.84375 12.094401,1.577508 15.300619,2.594931 18.1875,5.6875 1.023306,1.096214 1.822204,2.786302 1.96875,5.125 0.04338,-2.858151 -0.80595,-4.879353 -1.96875,-6.125 -2.886881,-3.092569 -6.093099,-4.109992 -18.1875,-5.6875 -6.758912,-0.881586 -9.983939,-1.410733 -9.888536,-2.881095 z m -5.099654,8.742392 -2.480562,1.888703 c -5.015513,3.819822 -7.527235,8.133373 -7.3125,12.25 0.211423,-3.807693 2.703671,-7.739909 7.3125,-11.25 l 2.118474,-1.637525 c 0.37996,-0.320591 0.362088,-1.251178 0.362088,-1.251178 z"
         id="path4789"
         style="opacity:0.42906572;color:#000000;fill:#ffffff;fill-opacity:1;fill-rule:nonzero;stroke-width:1;stroke-linecap:butt;stroke-linejoin:miter;stroke-miterlimit:4;stroke-opacity:1;stroke-dasharray:none;stroke-dashoffset:0;marker:none;visibility:visible;display:inline;overflow:visible;enable-background:accumulate" />
      <path
         d="m 45.125,18.6875 c -1.805911,0 -3.28125,1.512524 -3.28125,3.34375 0,0.155684 0.04212,0.287589 0.0625,0.4375 0.258887,-1.569314 1.597871,-2.78125 3.21875,-2.78125 1.620879,0 2.930159,1.211936 3.1875,2.78125 0.02031,-0.149424 0.0625,-0.282212 0.0625,-0.4375 0,-1.831226 -1.444089,-3.34375 -3.25,-3.34375 z m -7,7.09375 c -1.805912,0 -3.28125,1.48128 -3.28125,3.3125 0,0.166048 0.008,0.340483 0.03125,0.5 0.242635,-1.58868 1.615548,-2.8125 3.25,-2.8125 1.623369,0 2.963006,1.208585 3.21875,2.78125 l 1.78125,0 0,-1 -1.78125,0 C 41.088006,26.989835 39.748369,25.78125 38.125,25.78125 z m 13.96875,0 c -1.623369,0 -2.963006,1.208585 -3.21875,2.78125 l -1.78125,0 0,1 1.78125,0 c 0.255744,-1.572665 1.595381,-2.78125 3.21875,-2.78125 1.634451,0 3.007365,1.22382 3.25,2.8125 0.02326,-0.159517 0.03125,-0.333952 0.03125,-0.5 0,-1.83122 -1.475339,-3.3125 -3.28125,-3.3125 z m -7.65625,5.34375 0,1 1.375,0 0,-1 -1.375,0 z m 0,1.84375 c -1.480926,0.316268 -2.59375,1.654225 -2.59375,3.25 0,0.185694 0.03354,0.354025 0.0625,0.53125 0.190802,-1.385182 1.196895,-2.496284 2.53125,-2.78125 l 0,-1 z m 1.375,0 0,1 c 1.329251,0.288896 2.309844,1.40058 2.5,2.78125 0.02879,-0.177225 0.0625,-0.345556 0.0625,-0.53125 0,-1.591706 -1.087239,-2.92937 -2.5625,-3.25 z"
         id="path5337"
         style="opacity:0.2;fill:#ffffff;fill-opacity:1" />
    </g>
  </g>
  <g
     id="layer5">
    <rect
       width="66"
       height="66"
       rx="12"
       ry="12"
       x="15"
       y="15"
       clip-path="url(#clipPath3613)"
       id="rect3171"
       style="opacity:0.1;fill:url(#linearGradient3613);fill-opacity:1;fill-rule:nonzero;stroke:#ffffff;stroke-width:0.5;stroke-linecap:round;stroke-linejoin:miter;stroke-miterlimit:4;stroke-opacity:1;stroke-dasharray:none;stroke-dashoffset:0;filter:url(#filter3794)" />
  </g>
  <g
     id="layer4" />
</svg>
